{
.appVersion = "3087";
DisplayStrings = (
"/Hbar/beta/haabkhasian-cy/alpha/alphatonos",
"/YturnedSansSerif +/minus ×÷=/notequal ></greaterequal/lessequal ±/approxequal ~¬^/infinity/emptyset/integral/Ohm/increment/product/summation/radical/partialdiff µ%/perthousand",
"A/whiteCircle/dottedCircle \012ÉAdi\012i",
"/Yusbig-cy",
"/Yusbig-cy/yusbig-cy/Qa-cy/qa-cy/KaiSymbol/kaiSymbol \012",
"/Psi/psi",
"/Qa-cy/qa-cy",
"kj/KaiSymbol",
"/ldot ll"
);
classes = (
{
automatic = 1;

glyphs = (
{
glyphname = A;
lastChange = "2023-09-05 19:30:26 +0000";
layers = (
{
anchors = (
{
name = Bottom;
position = "{320, 0}";
},
{
name = Greek;
position = "{114, 558}";
},
{
name = Ogonek;
position = "{585, 0}";
},
{
name = Top;
position = "{320, 714}";
}
);
layerId = "FD4D3FDD-DE85-408F-A52A-FF600B1C6101";
paths = (
{
closed = 1;
nodes = (
"20 0 LINE",
"72 0 LINE",
"168 250 LINE",
"472 250 LINE",
"568 0 LINE",
"620 0 LINE",
"346 714 LINE",
"294 714 LINE"
);
},
{
closed = 1;
nodes = (
"320 646 LINE",
"454 298 LINE",
"186 298 LINE"
);
}
);
width = 640;
},
{
anchors = (
{
name = Bottom;
position = "{391, 0}";
},
{
name = Greek;
position = "{74, 558}";
},
{
name = Ogonek;
position = "{680, 0}";
},
{
name = Top;
position = "{386, 714}";
}
);
layerId = m002;
paths = (
{
closed = 1;
nodes = (
"20 0 LINE",
"232 0 LINE",
"268 98 LINE",
"504 98 LINE",
"540 0 LINE",
"752 0 LINE",
"492 714 LINE",
"280 714 LINE"
);
},
{
closed = 1;
nodes = (
"386 423 LINE",
"450 248 LINE",
"322 248 LINE"
);
}
);
width = 772;
}
);
leftKerningGroup = A;
rightKerningGroup = A;
unicode = 0041;
},
{
color = 10;
glyphname = Astroke;
lastChange = "2023-08-29 21:53:03 +0000";
layers = (
{
layerId = "FD4D3FDD-DE85-408F-A52A-FF600B1C6101";
paths = (
{
closed = 1;
nodes = (
"20 0 LINE",
"72 0 LINE",
"168 250 LINE",
"228 250 LINE",
"112 -53 LINE",
"162 -53 LINE",
"278 250 LINE",
"472 250 LINE",
"568 0 LINE",
"620 0 LINE",
"401 571 LINE",
"478 772 LINE",
"428 772 LINE",
"376 636 LINE",
"346 714 LINE",
"294 714 LINE"
);
},
{
closed = 1;
nodes = (
"320 646 LINE",
"350 568 LINE",
"246 298 LINE",
"186 298 LINE"
);
},
{
closed = 1;
nodes = (
"375 503 LINE",
"454 298 LINE",
"296 298 LINE"
);
}
);
width = 640;
},
{
layerId = m002;
paths = (
{
closed = 1;
nodes = (
"20 0 LINE",
"232 0 LINE",
"268 98 LINE",
"296 98 LINE",
"238 -53 LINE",
"288 -53 LINE",
"346 98 LINE",
"504 98 LINE",
"540 0 LINE",
"752 0 LINE",
"536 594 LINE",
"604 772 LINE",
"554 772 LINE",
"511 661 LINE",
"492 714 LINE",
"280 714 LINE"
);
},
{
closed = 1;
nodes = (
"386 423 LINE",
"403 377 LINE",
"353 248 LINE",
"322 248 LINE"
);
},
{
closed = 1;
nodes = (
"427 310 LINE",
"450 248 LINE",
"403 248 LINE"
);
}
);
width = 772;
}
);
leftKerningGroup = A;
leftMetricsKey = A;
rightKerningGroup = A;
rightMetricsKey = A;
unicode = 023A;
},
{
color = 10;
glyphname = AE;
lastChange = "2023-08-29 21:53:03 +0000";
layers = (
{
anchors = (
{
name = Top;
position = "{590, 714}";
}
);
layerId = "FD4D3FDD-DE85-408F-A52A-FF600B1C6101";
paths = (
{
closed = 1;
nodes = (
"20 0 LINE",
"72 0 LINE",
"203 250 LINE",
"458 250 LINE",
"458 0 LINE",
"849 0 LINE",
"849 48 LINE",
"508 48 LINE",
"508 344 LINE",
"828 344 LINE",
"828 392 LINE",
"508 392 LINE",
"508 666 LINE",
"849 666 LINE",
"849 714 LINE",
"394 714 LINE"
);
},
{
closed = 1;
nodes = (
"421 666 LINE",
"458 666 LINE",
"458 298 LINE",
"228 298 LINE"
);
}
);
width = 889;
},
{
anchors = (
{
name = Top;
position = "{670, 714}";
}
);
layerId = m002;
paths = (
{
closed = 1;
nodes = (
"20 0 LINE",
"232 0 LINE",
"304 138 LINE",
"528 138 LINE",
"528 0 LINE",
"1044 0 LINE",
"1044 168 LINE",
"738 168 LINE",
"738 284 LINE",
"1023 284 LINE",
"1023 452 LINE",
"738 452 LINE",
"738 546 LINE",
"1044 546 LINE",
"1044 714 LINE",
"395 714 LINE"
);
},
{
closed = 1;
nodes = (
"519 546 LINE",
"528 546 LINE",
"528 288 LINE",
"383 288 LINE"
);
}
);
width = 1064;
}
);
leftKerningGroup = A;
leftMetricsKey = A;
rightKerningGroup = E;
rightMetricsKey = E;
unicode = 00C6;
},
{
glyphname = B;
lastChange = "2023-08-29 21:53:10 +0000";
layers = (
{
layerId = "FD4D3FDD-DE85-408F-A52A-FF600B1C6101";
paths = (
{
closed = 1;
nodes = (
"310 0 LINE SMOOTH",
"443 0 OFFCURVE",
"522 74 OFFCURVE",
"522 198 CURVE SMOOTH",
"522 298 OFFCURVE",
"466 363 OFFCURVE",
"371 374 CURVE",
"371 376 LINE",
"453 388 OFFCURVE",
"502 443 OFFCURVE",
"502 525 CURVE SMOOTH",
"502 644 OFFCURVE",
"422 714 OFFCURVE",
"287 714 CURVE SMOOTH",
"40 714 LINE",
"40 0 LINE"
);
},
{
closed = 1;
nodes = (
"90 351 LINE",
"298 351 LINE SMOOTH",
"407 351 OFFCURVE",
"472 293 OFFCURVE",
"472 196 CURVE SMOOTH",
"472 103 OFFCURVE",
"411 48 OFFCURVE",
"308 48 CURVE SMOOTH",
"90 48 LINE"
);
},
{
closed = 1;
nodes = (
"90 666 LINE",
"287 666 LINE SMOOTH",
"391 666 OFFCURVE",
"452 614 OFFCURVE",
"452 527 CURVE SMOOTH",
"452 446 OFFCURVE",
"395 398 OFFCURVE",
"298 398 CURVE SMOOTH",
"90 398 LINE"
);
}
);
width = 552;
},
{
layerId = m002;
paths = (
{
closed = 1;
nodes = (
"370 0 LINE SMOOTH",
"541 0 OFFCURVE",
"642 79 OFFCURVE",
"642 212 CURVE SMOOTH",
"642 295 OFFCURVE",
"597 355 OFFCURVE",
"521 374 CURVE",
"521 376 LINE",
"584 395 OFFCURVE",
"622 450 OFFCURVE",
"622 524 CURVE SMOOTH",
"622 643 OFFCURVE",
"522 714 OFFCURVE",
"352 714 CURVE SMOOTH",
"20 714 LINE",
"20 0 LINE"
);
},
{
closed = 1;
nodes = (
"230 294 LINE",
"348 294 LINE SMOOTH",
"395 294 OFFCURVE",
"422 269 OFFCURVE",
"422 228 CURVE SMOOTH",
"422 185 OFFCURVE",
"398 160 OFFCURVE",
"358 160 CURVE SMOOTH",
"230 160 LINE"
);
},
{
closed = 1;
nodes = (
"230 554 LINE",
"342 554 LINE SMOOTH",
"380 554 OFFCURVE",
"402 535 OFFCURVE",
"402 504 CURVE SMOOTH",
"402 473 OFFCURVE",
"382 454 OFFCURVE",
"348 454 CURVE SMOOTH",
"230 454 LINE"
);
}
);
width = 662;
}
);
leftKerningGroup = H;
leftMetricsKey = N;
rightKerningGroup = B;
unicode = 0042;
},
{
glyphname = C;
lastChange = "2023-09-05 19:14:10 +0000";
layers = (
{
anchors = (
{
name = Bottom;
position = "{340, 0}";
},
{
name = Top;
position = "{330, 726}";
}
);
layerId = "FD4D3FDD-DE85-408F-A52A-FF600B1C6101";
paths = (
{
closed = 1;
nodes = (
"542 216 LINE",
"530 107 OFFCURVE",
"448 35 OFFCURVE",
"336 35 CURVE SMOOTH",
"182 35 OFFCURVE",
"80 164 OFFCURVE",
"80 357 CURVE SMOOTH",
"80 550 OFFCURVE",
"180 678 OFFCURVE",
"330 678 CURVE SMOOTH",
"448 678 OFFCURVE",
"536 605 OFFCURVE",
"550 496 CURVE",
"600 496 LINE",
"586 634 OFFCURVE",
"478 726 OFFCURVE",
"330 726 CURVE SMOOTH",
"150 726 OFFCURVE",
"30 578 OFFCURVE",
"30 357 CURVE SMOOTH",
"30 135 OFFCURVE",
"152 -13 OFFCURVE",
"336 -13 CURVE SMOOTH",
"478 -13 OFFCURVE",
"580 79 OFFCURVE",
"592 216 CURVE"
);
}
);
width = 630;
},
{
anchors = (
{
name = Bottom;
position = "{395, 0}";
},
{
name = Top;
position = "{375, 726}";
}
);
layerId = m002;
paths = (
{
closed = 1;
nodes = (
"512 286 LINE",
"503 204 OFFCURVE",
"456 155 OFFCURVE",
"385 155 CURVE SMOOTH",
"288 155 OFFCURVE",
"230 230 OFFCURVE",
"230 357 CURVE SMOOTH",
"230 483 OFFCURVE",
"288 558 OFFCURVE",
"385 558 CURVE SMOOTH",
"458 558 OFFCURVE",
"508 509 OFFCURVE",
"520 426 CURVE",
"740 426 LINE",
"720 615 OFFCURVE",
"584 726 OFFCURVE",
"375 726 CURVE SMOOTH",
"146 726 OFFCURVE",
"10 589 OFFCURVE",
"10 357 CURVE SMOOTH",
"10 124 OFFCURVE",
"149 -13 OFFCURVE",
"385 -13 CURVE SMOOTH",
"585 -13 OFFCURVE",
"714 98 OFFCURVE",
"732 286 CURVE"
);
}
);
width = 750;
}
);
leftKerningGroup = O;
leftMetricsKey = O;
rightKerningGroup = O;
rightMetricsKey = O;
unicode = 0043;
},
{
color = 10;
glyphname = Cstroke;
lastChange = "2023-08-29 21:53:03 +0000";
layers = (
{
layerId = "FD4D3FDD-DE85-408F-A52A-FF600B1C6101";
paths = (
{
closed = 1;
nodes = (
"542 216 LINE",
"530 107 OFFCURVE",
"448 35 OFFCURVE",
"336 35 CURVE SMOOTH",
"292 35 OFFCURVE",
"252 46 OFFCURVE",
"217 65 CURVE",
"442 652 LINE",
"501 622 OFFCURVE",
"541 566 OFFCURVE",
"550 496 CURVE",
"600 496 LINE",
"591 589 OFFCURVE",
"538 661 OFFCURVE",
"460 698 CURVE",
"488 772 LINE",
"438 772 LINE",
"416 715 LINE",
"389 722 OFFCURVE",
"361 726 OFFCURVE",
"330 726 CURVE SMOOTH",
"150 726 OFFCURVE",
"30 578 OFFCURVE",
"30 357 CURVE SMOOTH",
"30 218 OFFCURVE",
"78 107 OFFCURVE",
"159 45 CURVE",
"122 -53 LINE",
"172 -53 LINE",
"200 19 LINE",
"240 -2 OFFCURVE",
"285 -13 OFFCURVE",
"336 -13 CURVE SMOOTH",
"478 -13 OFFCURVE",
"580 79 OFFCURVE",
"592 216 CURVE"
);
},
{
closed = 1;
nodes = (
"80 550 OFFCURVE",
"180 678 OFFCURVE",
"330 678 CURVE SMOOTH",
"354 678 OFFCURVE",
"377 675 OFFCURVE",
"399 669 CURVE",
"178 94 LINE",
"116 150 OFFCURVE",
"80 242 OFFCURVE",
"80 357 CURVE SMOOTH"
);
}
);
width = 630;
},
{
layerId = m002;
paths = (
{
closed = 1;
nodes = (
"512 286 LINE",
"503 204 OFFCURVE",
"456 155 OFFCURVE",
"385 155 CURVE SMOOTH",
"362 155 OFFCURVE",
"341 159 OFFCURVE",
"322 168 CURVE",
"463 534 LINE",
"493 512 OFFCURVE",
"513 475 OFFCURVE",
"520 426 CURVE",
"740 426 LINE",
"725 564 OFFCURVE",
"649 660 OFFCURVE",
"527 702 CURVE",
"554 772 LINE",
"504 772 LINE",
"482 715 LINE",
"449 722 OFFCURVE",
"413 726 OFFCURVE",
"375 726 CURVE SMOOTH",
"146 726 OFFCURVE",
"10 589 OFFCURVE",
"10 357 CURVE SMOOTH",
"10 187 OFFCURVE",
"84 69 OFFCURVE",
"215 17 CURVE",
"188 -53 LINE",
"238 -53 LINE",
"259 2 LINE",
"297 -8 OFFCURVE",
"339 -13 OFFCURVE",
"385 -13 CURVE SMOOTH",
"585 -13 OFFCURVE",
"714 98 OFFCURVE",
"732 286 CURVE"
);
},
{
closed = 1;
nodes = (
"230 483 OFFCURVE",
"288 558 OFFCURVE",
"385 558 CURVE SMOOTH",
"398 558 OFFCURVE",
"409 557 OFFCURVE",
"420 554 CURVE",
"283 195 LINE",
"249 229 OFFCURVE",
"230 285 OFFCURVE",
"230 357 CURVE SMOOTH"
);
}
);
width = 750;
}
);
leftKerningGroup = O;
leftMetricsKey = C;
rightKerningGroup = O;
rightMetricsKey = C;
unicode = 023B;
},
{
glyphname = D;
lastChange = "2023-08-29 21:53:14 +0000";
layers = (
{
anchors = (
{
name = Bottom;
position = "{268, 0}";
},
{
name = Top;
position = "{264, 714}";
}
);
layerId = "FD4D3FDD-DE85-408F-A52A-FF600B1C6101";
paths = (
{
closed = 1;
nodes = (
"264 0 LINE SMOOTH",
"456 0 OFFCURVE",
"584 143 OFFCURVE",
"584 357 CURVE SMOOTH",
"584 571 OFFCURVE",
"456 714 OFFCURVE",
"264 714 CURVE SMOOTH",
"40 714 LINE",
"40 0 LINE"
);
},
{
closed = 1;
nodes = (
"90 666 LINE",
"264 666 LINE SMOOTH",
"426 666 OFFCURVE",
"534 542 OFFCURVE",
"534 356 CURVE SMOOTH",
"534 171 OFFCURVE",
"426 48 OFFCURVE",
"264 48 CURVE SMOOTH",
"90 48 LINE"
);
}
);
width = 614;
},
{
anchors = (
{
name = Bottom;
position = "{348, 0}";
},
{
name = Top;
position = "{344, 714}";
}
);
layerId = m002;
paths = (
{
closed = 1;
nodes = (
"334 0 LINE SMOOTH",
"573 0 OFFCURVE",
"714 133 OFFCURVE",
"714 357 CURVE SMOOTH",
"714 581 OFFCURVE",
"573 714 OFFCURVE",
"334 714 CURVE SMOOTH",
"20 714 LINE",
"20 0 LINE"
);
},
{
closed = 1;
nodes = (
"230 546 LINE",
"334 546 LINE SMOOTH",
"435 546 OFFCURVE",
"494 475 OFFCURVE",
"494 356 CURVE SMOOTH",
"494 238 OFFCURVE",
"435 168 OFFCURVE",
"334 168 CURVE SMOOTH",
"230 168 LINE"
);
}
);
width = 724;
}
);
leftKerningGroup = H;
leftMetricsKey = N;
rightKerningGroup = O;
rightMetricsKey = O;
unicode = 0044;
},
{
color = 10;
glyphname = Eth;
lastChange = "2023-08-29 21:53:22 +0000";
layers = (
{
layerId = "FD4D3FDD-DE85-408F-A52A-FF600B1C6101";
paths = (
{
closed = 1;
nodes = (
"315 0 LINE SMOOTH",
"507 0 OFFCURVE",
"635 143 OFFCURVE",
"635 357 CURVE SMOOTH",
"635 571 OFFCURVE",
"507 714 OFFCURVE",
"315 714 CURVE SMOOTH",
"91 714 LINE",
"91 381 LINE",
"40 386 LINE",
"40 341 LINE",
"91 341 LINE",
"91 0 LINE"
);
},
{
closed = 1;
nodes = (
"141 341 LINE",
"241 341 LINE",
"241 383 LINE",
"141 383 LINE",
"141 666 LINE",
"315 666 LINE SMOOTH",
"477 666 OFFCURVE",
"585 542 OFFCURVE",
"585 356 CURVE SMOOTH",
"585 171 OFFCURVE",
"477 48 OFFCURVE",
"315 48 CURVE SMOOTH",
"141 48 LINE"
);
}
);
width = 665;
},
{
layerId = m002;
paths = (
{
closed = 1;
nodes = (
"381 0 LINE SMOOTH",
"620 0 OFFCURVE",
"761 133 OFFCURVE",
"761 357 CURVE SMOOTH",
"761 581 OFFCURVE",
"620 714 OFFCURVE",
"381 714 CURVE SMOOTH",
"67 714 LINE",
"67 417 LINE",
"20 422 LINE",
"20 299 LINE",
"67 299 LINE",
"67 0 LINE"
);
},
{
closed = 1;
nodes = (
"277 299 LINE",
"384 299 LINE",
"384 419 LINE",
"277 419 LINE",
"277 546 LINE",
"381 546 LINE SMOOTH",
"482 546 OFFCURVE",
"541 475 OFFCURVE",
"541 356 CURVE SMOOTH",
"541 238 OFFCURVE",
"482 168 OFFCURVE",
"381 168 CURVE SMOOTH",
"277 168 LINE"
);
}
);
width = 771;
}
);
leftKerningGroup = H;
leftMetricsKey = D;
rightKerningGroup = O;
rightMetricsKey = D;
unicode = 00D0;
},
{
glyphname = E;
lastChange = "2023-08-29 22:56:23 +0000";
layers = (
{
anchors = (
{
name = Bottom;
position = "{395, 0}";
},
{
name = Dot;
position = "{259, 0}";
},
{
name = Greek;
position = "{-116, 558}";
},
{
name = Top;
position = "{253, 714}";
}
);
layerId = "FD4D3FDD-DE85-408F-A52A-FF600B1C6101";
paths = (
{
closed = 1;
nodes = (
"90 392 LINE",
"90 666 LINE",
"431 666 LINE",
"431 714 LINE",
"40 714 LINE",
"40 0 LINE",
"431 0 LINE",
"431 48 LINE",
"90 48 LINE",
"90 344 LINE",
"410 344 LINE",
"410 392 LINE"
);
}
);
width = 471;
},
{
anchors = (
{
name = Bottom;
position = "{464, 0}";
},
{
name = Dot;
position = "{294, 0}";
},
{
name = Greek;
position = "{-161, 558}";
},
{
name = Top;
position = "{273, 714}";
}
);
layerId = m002;
paths = (
{
closed = 1;
nodes = (
"230 452 LINE",
"230 546 LINE",
"536 546 LINE",
"536 714 LINE",
"20 714 LINE",
"20 0 LINE",
"536 0 LINE",
"536 168 LINE",
"230 168 LINE",
"230 284 LINE",
"515 284 LINE",
"515 452 LINE"
);
}
);
width = 556;
}
);
leftKerningGroup = H;
leftMetricsKey = N;
rightKerningGroup = E;
unicode = 0045;
},
{
color = 10;
glyphname = Eopen;
lastChange = "2023-08-29 21:53:46 +0000";
layers = (
{
layerId = "FD4D3FDD-DE85-408F-A52A-FF600B1C6101";
paths = (
{
closed = 1;
nodes = (
"90 285 OFFCURVE",
"170 348 OFFCURVE",
"291 348 CURVE SMOOTH",
"358 348 LINE",
"358 396 LINE",
"291 396 LINE SMOOTH",
"184 396 OFFCURVE",
"113 454 OFFCURVE",
"113 540 CURVE SMOOTH",
"113 624 OFFCURVE",
"190 680 OFFCURVE",
"305 680 CURVE SMOOTH",
"346 680 OFFCURVE",
"393 672 OFFCURVE",
"421 659 CURVE",
"421 704 LINE",
"393 717 OFFCURVE",
"343 726 OFFCURVE",
"298 726 CURVE SMOOTH",
"157 726 OFFCURVE",
"63 652 OFFCURVE",
"63 540 CURVE SMOOTH",
"63 468 OFFCURVE",
"116 401 OFFCURVE",
"195 373 CURVE",
"195 371 LINE",
"102 354 OFFCURVE",
"40 282 OFFCURVE",
"40 190 CURVE SMOOTH",
"40 68 OFFCURVE",
"142 -13 OFFCURVE",
"295 -13 CURVE SMOOTH",
"347 -13 OFFCURVE",
"397 -4 OFFCURVE",
"418 9 CURVE",
"418 54 LINE",
"394 41 OFFCURVE",
"347 33 OFFCURVE",
"302 33 CURVE SMOOTH",
"175 33 OFFCURVE",
"90 96 OFFCURVE",
"90 190 CURVE SMOOTH"
);
}
);
width = 461;
},
{
layerId = m002;
paths = (
{
closed = 1;
nodes = (
"220 280 OFFCURVE",
"260 307 OFFCURVE",
"329 307 CURVE SMOOTH",
"409 307 LINE",
"409 437 LINE",
"326 437 LINE SMOOTH",
"274 437 OFFCURVE",
"243 457 OFFCURVE",
"243 490 CURVE SMOOTH",
"243 535 OFFCURVE",
"292 561 OFFCURVE",
"374 561 CURVE SMOOTH",
"416 561 OFFCURVE",
"456 550 OFFCURVE",
"482 531 CURVE",
"482 694 LINE",
"441 714 OFFCURVE",
"385 726 OFFCURVE",
"331 726 CURVE SMOOTH",
"150 726 OFFCURVE",
"43 648 OFFCURVE",
"43 517 CURVE SMOOTH",
"43 453 OFFCURVE",
"76 399 OFFCURVE",
"131 373 CURVE",
"131 371 LINE",
"61 346 OFFCURVE",
"20 287 OFFCURVE",
"20 213 CURVE SMOOTH",
"20 71 OFFCURVE",
"144 -13 OFFCURVE",
"354 -13 CURVE SMOOTH",
"401 -13 OFFCURVE",
"452 -5 OFFCURVE",
"492 9 CURVE",
"492 177 LINE",
"461 163 OFFCURVE",
"416 155 OFFCURVE",
"369 155 CURVE SMOOTH",
"275 155 OFFCURVE",
"220 185 OFFCURVE",
"220 235 CURVE SMOOTH"
);
}
);
width = 512;
}
);
leftKerningGroup = O;
leftMetricsKey = E;
rightKerningGroup = E;
rightMetricsKey = E;
unicode = 0190;
},
{
color = 10;
glyphname = Ezh;
lastChange = "2023-08-29 21:54:02 +0000";
layers = (
{
anchors = (
{
name = Top;
position = "{253, 714}";
}
);
layerId = "FD4D3FDD-DE85-408F-A52A-FF600B1C6101";
paths = (
{
closed = 1;
nodes = (
"52 666 LINE",
"401 666 LINE",
"235 469 LINE",
"235 421 LINE",
"270 421 LINE SMOOTH",
"374 421 OFFCURVE",
"436 350 OFFCURVE",
"436 229 CURVE SMOOTH",
"436 107 OFFCURVE",
"371 35 OFFCURVE",
"262 35 CURVE SMOOTH",
"148 35 OFFCURVE",
"80 99 OFFCURVE",
"80 206 CURVE",
"30 206 LINE",
"30 68 OFFCURVE",
"116 -13 OFFCURVE",
"262 -13 CURVE SMOOTH",
"403 -13 OFFCURVE",
"486 77 OFFCURVE",
"486 229 CURVE SMOOTH",
"486 372 OFFCURVE",
"414 459 OFFCURVE",
"291 468 CURVE",
"459 666 LINE",
"459 714 LINE",
"52 714 LINE"
);
}
);
width = 516;
},
{
anchors = (
{
name = Top;
position = "{278, 714}";
}
);
layerId = m002;
paths = (
{
closed = 1;
nodes = (
"32 564 LINE",
"322 564 LINE",
"245 479 LINE",
"245 329 LINE",
"292 329 LINE SMOOTH",
"333 329 OFFCURVE",
"358 295 OFFCURVE",
"358 238 CURVE SMOOTH",
"358 182 OFFCURVE",
"333 149 OFFCURVE",
"292 149 CURVE SMOOTH",
"245 149 OFFCURVE",
"218 178 OFFCURVE",
"218 226 CURVE",
"10 226 LINE",
"10 76 OFFCURVE",
"115 -13 OFFCURVE",
"292 -13 CURVE SMOOTH",
"464 -13 OFFCURVE",
"566 78 OFFCURVE",
"566 232 CURVE SMOOTH",
"566 340 OFFCURVE",
"517 417 OFFCURVE",
"429 454 CURVE",
"539 564 LINE",
"539 714 LINE",
"32 714 LINE"
);
}
);
width = 576;
}
);
leftKerningGroup = three;
leftMetricsKey = O;
rightKerningGroup = O;
rightMetricsKey = O;
unicode = 01B7;
},
{
color = 10;
glyphname = F;
lastChange = "2023-08-29 21:54:05 +0000";
layers = (
{
anchors = (
{
name = Bottom;
position = "{263, 0}";
},
{
name = Top;
position = "{245, 726}";
}
);
layerId = "FD4D3FDD-DE85-408F-A52A-FF600B1C6101";
paths = (
{
closed = 1;
nodes = (
"90 666 LINE",
"434 666 LINE",
"434 714 LINE",
"40 714 LINE",
"40 0 LINE",
"90 0 LINE",
"90 344 LINE",
"411 344 LINE",
"411 392 LINE",
"90 392 LINE"
);
}
);
width = 464;
},
{
anchors = (
{
name = Bottom;
position = "{363, 0}";
},
{
name = Top;
position = "{305, 714}";
}
);
layerId = m002;
paths = (
{
closed = 1;
nodes = (
"230 546 LINE",
"535 546 LINE",
"535 714 LINE",
"20 714 LINE",
"20 0 LINE",
"230 0 LINE",
"230 275 LINE",
"512 275 LINE",
"512 443 LINE",
"230 443 LINE"
);
}
);
width = 555;
}
);
leftKerningGroup = H;
leftMetricsKey = N;
rightKerningGroup = F;
unicode = 0046;
},
{
glyphname = G;
lastChange = "2023-08-29 21:54:09 +0000";
layers = (
{
anchors = (
{
name = Bottom;
position = "{350, 0}";
},
{
name = Top;
position = "{357, 726}";
}
);
layerId = "FD4D3FDD-DE85-408F-A52A-FF600B1C6101";
paths = (
{
closed = 1;
nodes = (
"352 327 LINE",
"352 279 LINE",
"556 279 LINE",
"556 133 LINE",
"520 73 OFFCURVE",
"440 35 OFFCURVE",
"350 35 CURVE SMOOTH",
"188 35 OFFCURVE",
"80 164 OFFCURVE",
"80 357 CURVE SMOOTH",
"80 550 OFFCURVE",
"191 678 OFFCURVE",
"357 678 CURVE SMOOTH",
"476 678 OFFCURVE",
"566 605 OFFCURVE",
"580 496 CURVE",
"630 496 LINE",
"616 634 OFFCURVE",
"507 726 OFFCURVE",
"357 726 CURVE SMOOTH",
"161 726 OFFCURVE",
"30 578 OFFCURVE",
"30 357 CURVE SMOOTH",
"30 135 OFFCURVE",
"158 -13 OFFCURVE",
"350 -13 CURVE SMOOTH",
"426 -13 OFFCURVE",
"507 13 OFFCURVE",
"554 52 CURVE",
"556 52 LINE",
"541 0 LINE",
"606 0 LINE",
"606 327 LINE"
);
}
);
width = 670;
},
{
anchors = (
{
name = Bottom;
position = "{376, 0}";
},
{
name = Top;
position = "{376, 726}";
}
);
layerId = m002;
paths = (
{
closed = 1;
nodes = (
"363 389 LINE",
"363 239 LINE",
"541 239 LINE",
"541 200 LINE",
"518 165 OFFCURVE",
"466 145 OFFCURVE",
"401 145 CURVE SMOOTH",
"294 145 OFFCURVE",
"230 224 OFFCURVE",
"230 357 CURVE SMOOTH",
"230 483 OFFCURVE",
"290 558 OFFCURVE",
"391 558 CURVE SMOOTH",
"463 558 OFFCURVE",
"509 524 OFFCURVE",
"516 466 CURVE",
"736 466 LINE",
"719 629 OFFCURVE",
"585 726 OFFCURVE",
"375 726 CURVE SMOOTH",
"146 726 OFFCURVE",
"10 589 OFFCURVE",
"10 357 CURVE SMOOTH",
"10 124 OFFCURVE",
"140 -13 OFFCURVE",
"359 -13 CURVE SMOOTH",
"433 -13 OFFCURVE",
"499 11 OFFCURVE",
"537 52 CURVE",
"544 52 LINE",
"514 0 LINE",
"722 0 LINE",
"722 389 LINE"
);
}
);
width = 756;
}
);
leftKerningGroup = O;
leftMetricsKey = O;
rightKerningGroup = G;
rightMetricsKey = N;
unicode = 0047;
},
{
color = 10;
glyphname = Glottalstop;
lastChange = "2023-08-30 18:49:33 +0000";
layers = (
{
layerId = "FD4D3FDD-DE85-408F-A52A-FF600B1C6101";
paths = (
{
closed = 1;
nodes = (
"426 315 OFFCURVE",
"173 340 OFFCURVE",
"173 0 CURVE",
"223 0 LINE",
"223 315 OFFCURVE",
"476 285 OFFCURVE",
"476 521 CURVE SMOOTH",
"476 650 OFFCURVE",
"395 726 OFFCURVE",
"258 726 CURVE",
"258 678 LINE",
"364 678 OFFCURVE",
"426 620 OFFCURVE",
"426 521 CURVE SMOOTH"
);
},
{
closed = 1;
nodes = (
"30 649 OFFCURVE",
"115 726 OFFCURVE",
"258 726 CURVE",
"258 678 LINE",
"146 678 OFFCURVE",
"80 619 OFFCURVE",
"80 520 CURVE",
"30 520 LINE"
);
}
);
width = 506;
},
{
layerId = m002;
paths = (
{
closed = 1;
nodes = (
"386 303 OFFCURVE",
"122 321 OFFCURVE",
"122 0 CURVE",
"332 0 LINE",
"332 258 OFFCURVE",
"607 216 OFFCURVE",
"607 475 CURVE SMOOTH",
"607 633 OFFCURVE",
"496 726 OFFCURVE",
"308 726 CURVE",
"308 558 LINE",
"357 558 OFFCURVE",
"386 527 OFFCURVE",
"386 475 CURVE SMOOTH"
);
},
{
closed = 1;
nodes = (
"10 629 OFFCURVE",
"121 726 OFFCURVE",
"308 726 CURVE",
"308 558 LINE",
"259 558 OFFCURVE",
"230 523 OFFCURVE",
"230 465 CURVE",
"10 465 LINE"
);
}
);
width = 617;
}
);
leftKerningGroup = O;
leftMetricsKey = O;
rightKerningGroup = P;
rightMetricsKey = P;
unicode = 0241;
},
{
color = 10;
glyphname = Gstroke;
lastChange = "2023-08-29 21:54:17 +0000";
layers = (
{
layerId = "FD4D3FDD-DE85-408F-A52A-FF600B1C6101";
paths = (
{
closed = 1;
nodes = (
"352 327 LINE",
"352 279 LINE",
"556 279 LINE",
"556 222 LINE",
"456 227 LINE",
"456 182 LINE",
"556 182 LINE",
"556 125 LINE",
"518 66 OFFCURVE",
"441 35 OFFCURVE",
"350 35 CURVE SMOOTH",
"188 35 OFFCURVE",
"80 164 OFFCURVE",
"80 357 CURVE SMOOTH",
"80 550 OFFCURVE",
"191 678 OFFCURVE",
"357 678 CURVE SMOOTH",
"476 678 OFFCURVE",
"566 605 OFFCURVE",
"580 496 CURVE",
"630 496 LINE",
"616 634 OFFCURVE",
"507 726 OFFCURVE",
"357 726 CURVE SMOOTH",
"161 726 OFFCURVE",
"30 578 OFFCURVE",
"30 357 CURVE SMOOTH",
"30 135 OFFCURVE",
"158 -13 OFFCURVE",
"350 -13 CURVE SMOOTH",
"426 -13 OFFCURVE",
"507 13 OFFCURVE",
"554 52 CURVE",
"556 52 LINE",
"541 0 LINE",
"606 0 LINE",
"606 182 LINE",
"656 182 LINE",
"656 224 LINE",
"606 224 LINE",
"606 327 LINE"
);
}
);
width = 696;
},
{
layerId = m002;
paths = (
{
closed = 1;
nodes = (
"363 389 LINE",
"363 239 LINE",
"541 239 LINE",
"541 229 LINE",
"439 234 LINE",
"439 161 LINE",
"477 161 LINE",
"491 161 LINE",
"466 151 OFFCURVE",
"435 145 OFFCURVE",
"401 145 CURVE SMOOTH",
"294 145 OFFCURVE",
"230 224 OFFCURVE",
"230 357 CURVE SMOOTH",
"230 483 OFFCURVE",
"290 558 OFFCURVE",
"391 558 CURVE SMOOTH",
"463 558 OFFCURVE",
"509 524 OFFCURVE",
"516 466 CURVE",
"736 466 LINE",
"719 629 OFFCURVE",
"585 726 OFFCURVE",
"375 726 CURVE SMOOTH",
"146 726 OFFCURVE",
"10 589 OFFCURVE",
"10 357 CURVE SMOOTH",
"10 124 OFFCURVE",
"140 -13 OFFCURVE",
"359 -13 CURVE SMOOTH",
"433 -13 OFFCURVE",
"499 11 OFFCURVE",
"537 52 CURVE",
"544 52 LINE",
"514 0 LINE",
"722 0 LINE",
"722 161 LINE",
"770 161 LINE",
"770 231 LINE",
"722 231 LINE",
"722 389 LINE"
);
}
);
width = 790;
}
);
leftKerningGroup = O;
leftMetricsKey = G;
rightKerningGroup = G;
rightMetricsKey = G;
unicode = 01E4;
},
{
glyphname = H;
lastChange = "2023-08-30 02:37:51 +0000";
layers = (
{
anchors = (
{
name = Bottom;
position = "{302, 0}";
},
{
name = Greek;
position = "{-116, 558}";
},
{
name = Top;
position = "{302, 714}";
}
);
layerId = "FD4D3FDD-DE85-408F-A52A-FF600B1C6101";
paths = (
{
closed = 1;
nodes = (
"514 397 LINE",
"90 397 LINE",
"90 714 LINE",
"40 714 LINE",
"40 0 LINE",
"90 0 LINE",
"90 349 LINE",
"514 349 LINE",
"514 0 LINE",
"564 0 LINE",
"564 714 LINE",
"514 714 LINE"
);
}
);
width = 604;
},
{
anchors = (
{
name = Bottom;
position = "{350, 0}";
},
{
name = Greek;
position = "{-161, 558}";
},
{
name = Top;
position = "{350, 714}";
}
);
layerId = m002;
paths = (
{
closed = 1;
nodes = (
"464 448 LINE",
"230 448 LINE",
"230 714 LINE",
"20 714 LINE",
"20 0 LINE",
"230 0 LINE",
"230 280 LINE",
"464 280 LINE",
"464 0 LINE",
"674 0 LINE",
"674 714 LINE",
"464 714 LINE"
);
}
);
width = 694;
}
);
leftKerningGroup = H;
leftMetricsKey = N;
rightKerningGroup = H;
rightMetricsKey = N;
unicode = 0048;
},
{
color = 10;
glyphname = Hbar;
lastChange = "2023-08-29 21:54:49 +0000";
layers = (
{
layerId = "FD4D3FDD-DE85-408F-A52A-FF600B1C6101";
paths = (
{
closed = 1;
nodes = (
"614 602 LINE",
"190 600 LINE",
"190 714 LINE",
"140 714 LINE",
"140 601 LINE",
"40 605 LINE",
"40 560 LINE",
"140 560 LINE",
"140 0 LINE",
"190 0 LINE",
"190 349 LINE",
"614 349 LINE",
"614 0 LINE",
"664 0 LINE",
"664 560 LINE",
"764 560 LINE",
"764 602 LINE",
"664 602 LINE",
"664 714 LINE",
"614 714 LINE"
);
},
{
closed = 1;
nodes = (
"190 560 LINE",
"614 560 LINE",
"614 397 LINE",
"190 397 LINE"
);
}
);
width = 804;
},
{
layerId = m002;
paths = (
{
closed = 1;
nodes = (
"584 638 LINE",
"280 636 LINE",
"280 714 LINE",
"110 714 LINE",
"110 638 LINE",
"20 641 LINE",
"20 518 LINE",
"110 518 LINE",
"110 0 LINE",
"280 0 LINE",
"280 298 LINE",
"584 298 LINE",
"584 0 LINE",
"754 0 LINE",
"754 518 LINE",
"843 518 LINE",
"843 638 LINE",
"754 638 LINE",
"754 714 LINE",
"584 714 LINE"
);
},
{
closed = 1;
nodes = (
"280 518 LINE",
"584 518 LINE",
"584 448 LINE",
"280 448 LINE"
);
}
);
width = 863;
}
);
leftKerningGroup = H;
leftMetricsKey = N;
rightKerningGroup = H;
rightMetricsKey = N;
unicode = 0126;
},
{
glyphname = I;
lastChange = "2023-08-29 22:57:07 +0000";
layers = (
{
anchors = (
{
name = Bottom;
position = "{65, 0}";
},
{
name = Greek;
position = "{-116, 558}";
},
{
name = Top;
position = "{65, 714}";
}
);
layerId = "FD4D3FDD-DE85-408F-A52A-FF600B1C6101";
paths = (
{
closed = 1;
nodes = (
"40 0 LINE",
"90 0 LINE",
"90 714 LINE",
"40 714 LINE"
);
}
);
width = 130;
},
{
anchors = (
{
name = Bottom;
position = "{125, 0}";
},
{
name = Greek;
position = "{-166, 558}";
},
{
name = Top;
position = "{125, 714}";
}
);
layerId = m002;
paths = (
{
closed = 1;
nodes = (
"20 0 LINE",
"230 0 LINE",
"230 714 LINE",
"20 714 LINE"
);
}
);
width = 250;
}
);
leftKerningGroup = I;
leftMetricsKey = N;
rightKerningGroup = I;
rightMetricsKey = N;
unicode = 0049;
},
{
color = 10;
glyphname = IJ;
lastChange = "2023-08-29 21:55:06 +0000";
layers = (
{
layerId = "FD4D3FDD-DE85-408F-A52A-FF600B1C6101";
paths = (
{
closed = 1;
nodes = (
"40 160 LINE",
"90 160 LINE",
"90 714 LINE",
"40 714 LINE"
);
},
{
closed = 1;
nodes = (
"78 -8 OFFCURVE",
"103 -13 OFFCURVE",
"126 -13 CURVE SMOOTH",
"243 -13 OFFCURVE",
"312 48 OFFCURVE",
"312 152 CURVE SMOOTH",
"312 714 LINE",
"262 714 LINE",
"262 152 LINE SMOOTH",
"262 78 OFFCURVE",
"212 34 OFFCURVE",
"127 34 CURVE SMOOTH",
"100 34 OFFCURVE",
"75 39 OFFCURVE",
"60 48 CURVE",
"60 0 LINE"
);
}
);
width = 352;
},
{
layerId = m002;
paths = (
{
closed = 1;
nodes = (
"20 240 LINE",
"190 240 LINE",
"190 714 LINE",
"20 714 LINE"
);
},
{
closed = 1;
nodes = (
"168 -8 OFFCURVE",
"191 -13 OFFCURVE",
"211 -13 CURVE SMOOTH",
"369 -13 OFFCURVE",
"462 67 OFFCURVE",
"462 202 CURVE SMOOTH",
"462 714 LINE",
"292 714 LINE",
"292 232 LINE SMOOTH",
"292 182 OFFCURVE",
"262 153 OFFCURVE",
"212 153 CURVE SMOOTH",
"189 153 OFFCURVE",
"166 159 OFFCURVE",
"150 168 CURVE",
"150 0 LINE"
);
}
);
width = 482;
}
);
leftKerningGroup = I;
leftMetricsKey = N;
rightKerningGroup = U;
rightMetricsKey = N;
unicode = 0132;
},
{
color = 10;
glyphname = Istroke;
lastChange = "2023-08-29 21:59:46 +0000";
layers = (
{
layerId = "FD4D3FDD-DE85-408F-A52A-FF600B1C6101";
paths = (
{
closed = 1;
nodes = (
"110 382 LINE",
"40 386 LINE",
"40 341 LINE",
"110 341 LINE",
"110 0 LINE",
"160 0 LINE",
"160 341 LINE",
"230 341 LINE",
"230 383 LINE",
"160 383 LINE",
"160 714 LINE",
"110 714 LINE"
);
}
);
width = 270;
},
{
layerId = m002;
paths = (
{
closed = 1;
nodes = (
"96 417 LINE",
"20 422 LINE",
"20 299 LINE",
"96 299 LINE",
"96 0 LINE",
"306 0 LINE",
"306 299 LINE",
"382 299 LINE",
"382 419 LINE",
"306 419 LINE",
"306 714 LINE",
"96 714 LINE"
);
}
);
width = 402;
}
);
leftKerningGroup = Istroke;
leftMetricsKey = N;
rightKerningGroup = Istroke;
rightMetricsKey = N;
unicode = 0197;
},
{
glyphname = J;
lastChange = "2023-09-05 19:16:21 +0000";
layers = (
{
anchors = (
{
name = Bottom;
position = "{59, 0}";
},
{
name = Top;
position = "{237, 714}";
}
);
layerId = "FD4D3FDD-DE85-408F-A52A-FF600B1C6101";
paths = (
{
closed = 1;
nodes = (
"262 714 LINE",
"212 714 LINE",
"212 152 LINE SMOOTH",
"212 78 OFFCURVE",
"166 34 OFFCURVE",
"87 34 CURVE SMOOTH",
"64 34 OFFCURVE",
"43 39 OFFCURVE",
"30 48 CURVE",
"30 0 LINE",
"48 -8 OFFCURVE",
"69 -13 OFFCURVE",
"86 -13 CURVE SMOOTH",
"197 -13 OFFCURVE",
"262 48 OFFCURVE",
"262 152 CURVE SMOOTH"
);
}
);
width = 302;
},
{
anchors = (
{
name = Bottom;
position = "{69, 0}";
},
{
name = Top;
position = "{247, 714}";
}
);
layerId = m002;
paths = (
{
closed = 1;
nodes = (
"352 714 LINE",
"142 714 LINE",
"142 232 LINE SMOOTH",
"142 182 OFFCURVE",
"120 153 OFFCURVE",
"82 153 CURVE SMOOTH",
"60 153 OFFCURVE",
"37 159 OFFCURVE",
"20 168 CURVE",
"20 0 LINE",
"38 -8 OFFCURVE",
"61 -13 OFFCURVE",
"81 -13 CURVE SMOOTH",
"251 -13 OFFCURVE",
"352 67 OFFCURVE",
"352 202 CURVE SMOOTH"
);
}
);
width = 372;
}
);
leftKerningGroup = J;
rightKerningGroup = U;
rightMetricsKey = N;
unicode = 004A;
},
{
glyphname = K;
lastChange = "2023-08-29 22:00:05 +0000";
layers = (
{
anchors = (
{
name = Bottom;
position = "{269, 0}";
},
{
name = Top;
position = "{233, 714}";
}
);
layerId = "FD4D3FDD-DE85-408F-A52A-FF600B1C6101";
paths = (
{
closed = 1;
nodes = (
"40 0 LINE",
"90 0 LINE",
"90 263 LINE",
"226 399 LINE",
"476 0 LINE",
"533 0 LINE",
"262 435 LINE",
"541 714 LINE",
"471 714 LINE",
"92 336 LINE",
"90 336 LINE",
"90 714 LINE",
"40 714 LINE"
);
}
);
width = 561;
},
{
anchors = (
{
name = Bottom;
position = "{366, 0}";
},
{
name = Top;
position = "{330, 714}";
}
);
layerId = m002;
paths = (
{
closed = 1;
nodes = (
"20 0 LINE",
"230 0 LINE",
"230 179 LINE",
"320 271 LINE",
"491 0 LINE",
"737 0 LINE",
"472 428 LINE",
"751 714 LINE",
"474 714 LINE",
"232 471 LINE",
"230 471 LINE",
"230 714 LINE",
"20 714 LINE"
);
}
);
width = 771;
}
);
leftKerningGroup = H;
leftMetricsKey = N;
rightKerningGroup = K;
rightMetricsKey = A;
unicode = 004B;
},
{
glyphname = L;
lastChange = "2023-08-29 22:00:18 +0000";
layers = (
{
anchors = (
{
name = Bottom;
position = "{247, 0}";
},
{
name = Caron;
position = "{235, 548}";
},
{
name = Top;
position = "{66, 714}";
}
);
layerId = "FD4D3FDD-DE85-408F-A52A-FF600B1C6101";
paths = (
{
closed = 1;
nodes = (
"90 48 LINE",
"90 714 LINE",
"40 714 LINE",
"40 0 LINE",
"428 0 LINE",
"428 48 LINE"
);
}
);
width = 448;
},
{
anchors = (
{
name = Bottom;
position = "{297, 0}";
},
{
name = Caron;
position = "{345, 548}";
},
{
name = Top;
position = "{126, 714}";
}
);
layerId = m002;
paths = (
{
closed = 1;
nodes = (
"230 168 LINE",
"230 714 LINE",
"20 714 LINE",
"20 0 LINE",
"518 0 LINE",
"518 168 LINE"
);
}
);
width = 538;
}
);
leftKerningGroup = H;
leftMetricsKey = N;
rightKerningGroup = L;
rightMetricsKey = A;
unicode = 004C;
},
{
color = 10;
glyphname = Lbar;
lastChange = "2023-08-29 22:00:27 +0000";
layers = (
{
layerId = "FD4D3FDD-DE85-408F-A52A-FF600B1C6101";
paths = (
{
closed = 1;
nodes = (
"140 48 LINE",
"140 341 LINE",
"241 341 LINE",
"241 383 LINE",
"140 383 LINE",
"140 714 LINE",
"90 714 LINE",
"90 381 LINE",
"40 386 LINE",
"40 341 LINE",
"90 341 LINE",
"90 0 LINE",
"478 0 LINE",
"478 48 LINE"
);
}
);
width = 498;
},
{
layerId = m002;
paths = (
{
closed = 1;
nodes = (
"277 168 LINE",
"277 299 LINE",
"382 299 LINE",
"382 419 LINE",
"277 419 LINE",
"277 714 LINE",
"67 714 LINE",
"67 417 LINE",
"20 422 LINE",
"20 299 LINE",
"67 299 LINE",
"67 0 LINE",
"565 0 LINE",
"565 168 LINE"
);
}
);
width = 585;
}
);
leftKerningGroup = H;
leftMetricsKey = L;
rightKerningGroup = L;
rightMetricsKey = L;
unicode = 023D;
},
{
color = 10;
glyphname = Lmiddletilde;
lastChange = "2023-08-29 22:00:27 +0000";
layers = (
{
layerId = "FD4D3FDD-DE85-408F-A52A-FF600B1C6101";
paths = (
{
closed = 1;
nodes = (
"552 0 LINE",
"552 48 LINE",
"214 48 LINE",
"214 339 LINE",
"226 335 OFFCURVE",
"238 333 OFFCURVE",
"252 333 CURVE SMOOTH",
"301 333 OFFCURVE",
"334 365 OFFCURVE",
"334 414 CURVE",
"286 414 LINE",
"286 391 OFFCURVE",
"272 376 OFFCURVE",
"252 376 CURVE SMOOTH",
"238 376 OFFCURVE",
"226 379 OFFCURVE",
"214 384 CURVE",
"214 714 LINE",
"164 714 LINE",
"164 405 LINE",
"151 410 OFFCURVE",
"137 413 OFFCURVE",
"122 413 CURVE SMOOTH",
"73 413 OFFCURVE",
"40 381 OFFCURVE",
"40 332 CURVE",
"88 332 LINE",
"88 355 OFFCURVE",
"102 370 OFFCURVE",
"122 370 CURVE SMOOTH",
"136 370 OFFCURVE",
"150 366 OFFCURVE",
"164 360 CURVE",
"164 0 LINE"
);
}
);
width = 572;
},
{
layerId = m002;
paths = (
{
closed = 1;
nodes = (
"653 0 LINE",
"653 168 LINE",
"365 168 LINE",
"365 308 LINE",
"371 308 OFFCURVE",
"379 308 OFFCURVE",
"391 308 CURVE SMOOTH",
"456 308 OFFCURVE",
"501 355 OFFCURVE",
"501 426 CURVE",
"396 426 LINE",
"396 414 OFFCURVE",
"387 406 OFFCURVE",
"373 406 CURVE SMOOTH",
"369 406 OFFCURVE",
"367 406 OFFCURVE",
"365 406 CURVE",
"365 714 LINE",
"155 714 LINE",
"155 428 LINE",
"149 429 OFFCURVE",
"141 430 OFFCURVE",
"132 430 CURVE SMOOTH",
"65 430 OFFCURVE",
"20 383 OFFCURVE",
"20 312 CURVE",
"125 312 LINE",
"125 325 OFFCURVE",
"134 333 OFFCURVE",
"148 333 CURVE SMOOTH",
"151 333 OFFCURVE",
"153 333 OFFCURVE",
"155 333 CURVE",
"155 0 LINE"
);
}
);
width = 673;
}
);
leftKerningGroup = H;
leftMetricsKey = L;
rightKerningGroup = L;
rightMetricsKey = L;
unicode = 2C62;
},
{
color = 10;
glyphname = Lslash;
lastChange = "2023-08-29 22:00:27 +0000";
layers = (
{
layerId = "FD4D3FDD-DE85-408F-A52A-FF600B1C6101";
paths = (
{
closed = 1;
nodes = (
"161 48 LINE",
"161 404 LINE",
"288 479 LINE",
"288 537 LINE",
"161 462 LINE",
"161 714 LINE",
"111 714 LINE",
"111 432 LINE",
"40 390 LINE",
"40 332 LINE",
"111 374 LINE",
"111 0 LINE",
"499 0 LINE",
"499 48 LINE"
);
}
);
width = 519;
},
{
layerId = m002;
paths = (
{
closed = 1;
nodes = (
"303 168 LINE",
"303 418 LINE",
"388 476 LINE",
"388 612 LINE",
"303 555 LINE",
"303 714 LINE",
"93 714 LINE",
"93 413.997 LINE",
"20 365 LINE",
"20 227 LINE",
"93 276 LINE",
"93 0 LINE",
"591 0 LINE",
"591 168 LINE"
);
}
);
width = 611;
}
);
leftKerningGroup = H;
leftMetricsKey = N;
rightKerningGroup = L;
rightMetricsKey = A;
unicode = 0141;
},
{
glyphname = M;
lastChange = "2023-08-29 22:00:30 +0000";
layers = (
{
anchors = (
{
name = Bottom;
position = "{370, 0}";
}
);
layerId = "FD4D3FDD-DE85-408F-A52A-FF600B1C6101";
paths = (
{
closed = 1;
nodes = (
"40 0 LINE",
"90 0 LINE",
"90 593 LINE",
"92 593 LINE",
"346 0 LINE",
"394 0 LINE",
"648 593 LINE",
"650 593 LINE",
"650 0 LINE",
"700 0 LINE",
"700 714 LINE",
"643 714 LINE",
"371 79 LINE",
"369 79 LINE",
"97 714 LINE",
"40 714 LINE"
);
}
);
width = 740;
},
{
anchors = (
{
name = Bottom;
position = "{425, 0}";
}
);
layerId = m002;
paths = (
{
closed = 1;
nodes = (
"20 0 LINE",
"230 0 LINE",
"230 323 LINE",
"232 323 LINE",
"360 0 LINE",
"488 0 LINE",
"616 323 LINE",
"618 323 LINE",
"618 0 LINE",
"828 0 LINE",
"828 714 LINE",
"611 714 LINE",
"425 259 LINE",
"423 259 LINE",
"237 714 LINE",
"20 714 LINE"
);
}
);
width = 848;
}
);
leftKerningGroup = H;
leftMetricsKey = N;
rightKerningGroup = H;
rightMetricsKey = N;
unicode = 004D;
},
{
glyphname = N;
lastChange = "2023-08-29 22:00:37 +0000";
layers = (
{
anchors = (
{
name = Bottom;
position = "{301, 0}";
},
{
name = Top;
position = "{306, 714}";
}
);
layerId = "FD4D3FDD-DE85-408F-A52A-FF600B1C6101";
paths = (
{
closed = 1;
nodes = (
"40 714 LINE",
"40 0 LINE",
"90 0 LINE",
"90 626 LINE",
"92 626 LINE",
"515 0 LINE",
"565 0 LINE",
"565 714 LINE",
"515 714 LINE",
"515 88 LINE",
"513 88 LINE",
"90 714 LINE"
);
}
);
width = 605;
},
{
anchors = (
{
name = Bottom;
position = "{381, 0}";
},
{
name = Top;
position = "{386, 714}";
}
);
layerId = m002;
paths = (
{
closed = 1;
nodes = (
"20 714 LINE",
"20 0 LINE",
"230 0 LINE",
"230 379 LINE",
"232 379 LINE",
"505 0 LINE",
"715 0 LINE",
"715 714 LINE",
"505 714 LINE",
"505 335 LINE",
"503 335 LINE",
"230 714 LINE"
);
}
);
width = 735;
}
);
leftKerningGroup = H;
rightKerningGroup = H;
unicode = 004E;
},
{
color = 10;
glyphname = Eng;
lastChange = "2023-08-29 22:00:45 +0000";
layers = (
{
layerId = "FD4D3FDD-DE85-408F-A52A-FF600B1C6101";
paths = (
{
closed = 1;
nodes = (
"40 714 LINE",
"40 0 LINE",
"90 0 LINE",
"90 626 LINE",
"92 626 LINE",
"515 0 LINE",
"515 -68 LINE SMOOTH",
"515 -142 OFFCURVE",
"469 -186 OFFCURVE",
"390 -186 CURVE SMOOTH",
"367 -186 OFFCURVE",
"346 -181 OFFCURVE",
"333 -172 CURVE",
"333 -220 LINE",
"351 -228 OFFCURVE",
"372 -233 OFFCURVE",
"389 -233 CURVE SMOOTH",
"500 -233 OFFCURVE",
"565 -172 OFFCURVE",
"565 -68 CURVE SMOOTH",
"565 714 LINE",
"515 714 LINE",
"515 88 LINE",
"513 88 LINE",
"90 714 LINE"
);
}
);
width = 605;
},
{
layerId = m002;
paths = (
{
closed = 1;
nodes = (
"20 714 LINE",
"20 0 LINE",
"230 0 LINE",
"230 379 LINE",
"232 379 LINE",
"505 1 LINE",
"505 -5 LINE",
"505 -44 OFFCURVE",
"478 -67 OFFCURVE",
"445 -67 CURVE SMOOTH",
"423 -67 OFFCURVE",
"400 -61 OFFCURVE",
"383 -52 CURVE",
"383 -220 LINE",
"401 -228 OFFCURVE",
"424 -233 OFFCURVE",
"444 -233 CURVE SMOOTH",
"614 -233 OFFCURVE",
"715 -153 OFFCURVE",
"715 -18 CURVE SMOOTH",
"715 714 LINE",
"505 714 LINE",
"505 335 LINE",
"503 335 LINE",
"230 714 LINE"
);
}
);
width = 735;
}
);
leftKerningGroup = H;
leftMetricsKey = N;
rightKerningGroup = H;
rightMetricsKey = N;
unicode = 014A;
},
{
glyphname = O;
lastChange = "2023-08-29 23:47:16 +0000";
layers = (
{
anchors = (
{
name = Bottom;
position = "{347, 0}";
},
{
name = Greek;
position = "{-33, 558}";
},
{
name = Top;
position = "{346, 726}";
}
);
layerId = "FD4D3FDD-DE85-408F-A52A-FF600B1C6101";
paths = (
{
closed = 1;
nodes = (
"536 -13 OFFCURVE",
"663 135 OFFCURVE",
"663 356 CURVE SMOOTH",
"663 578 OFFCURVE",
"536 726 OFFCURVE",
"346 726 CURVE SMOOTH",
"156 726 OFFCURVE",
"30 578 OFFCURVE",
"30 356 CURVE SMOOTH",
"30 135 OFFCURVE",
"156 -13 OFFCURVE",
"346 -13 CURVE SMOOTH"
);
},
{
closed = 1;
nodes = (
"80 549 OFFCURVE",
"186 677 OFFCURVE",
"346 677 CURVE SMOOTH",
"506 677 OFFCURVE",
"613 549 OFFCURVE",
"613 356 CURVE SMOOTH",
"613 163 OFFCURVE",
"506 35 OFFCURVE",
"346 35 CURVE SMOOTH",
"186 35 OFFCURVE",
"80 163 OFFCURVE",
"80 356 CURVE SMOOTH"
);
}
);
width = 693;
},
{
anchors = (
{
name = Bottom;
position = "{379, 0}";
},
{
name = Greek;
position = "{-53, 558}";
},
{
name = Top;
position = "{379, 726}";
}
);
layerId = m002;
paths = (
{
closed = 1;
nodes = (
"610 -13 OFFCURVE",
"747 124 OFFCURVE",
"747 356 CURVE SMOOTH",
"747 589 OFFCURVE",
"610 726 OFFCURVE",
"378 726 CURVE SMOOTH",
"147 726 OFFCURVE",
"10 589 OFFCURVE",
"10 356 CURVE SMOOTH",
"10 124 OFFCURVE",
"147 -13 OFFCURVE",
"378 -13 CURVE SMOOTH"
);
},
{
closed = 1;
nodes = (
"230 483 OFFCURVE",
"285 558 OFFCURVE",
"378 558 CURVE SMOOTH",
"472 558 OFFCURVE",
"527 483 OFFCURVE",
"527 356 CURVE SMOOTH",
"527 230 OFFCURVE",
"472 155 OFFCURVE",
"378 155 CURVE SMOOTH",
"285 155 OFFCURVE",
"230 230 OFFCURVE",
"230 356 CURVE SMOOTH"
);
}
);
width = 757;
}
);
leftKerningGroup = O;
rightKerningGroup = O;
unicode = 004F;
},
{
color = 10;
glyphname = Oopen;
lastChange = "2023-08-29 22:00:59 +0000";
layers = (
{
layerId = "FD4D3FDD-DE85-408F-A52A-FF600B1C6101";
paths = (
{
closed = 1;
nodes = (
"30 607 LINE",
"76 650 OFFCURVE",
"157 678 OFFCURVE",
"231 678 CURVE SMOOTH",
"381 678 OFFCURVE",
"481 550 OFFCURVE",
"481 357 CURVE SMOOTH",
"481 164 OFFCURVE",
"379 35 OFFCURVE",
"225 35 CURVE SMOOTH",
"153 35 OFFCURVE",
"75 63 OFFCURVE",
"30 105 CURVE",
"30 49 LINE",
"72 12 OFFCURVE",
"150 -13 OFFCURVE",
"225 -13 CURVE SMOOTH",
"409 -13 OFFCURVE",
"531 135 OFFCURVE",
"531 357 CURVE SMOOTH",
"531 578 OFFCURVE",
"411 726 OFFCURVE",
"231 726 CURVE SMOOTH",
"155 726 OFFCURVE",
"75 702 OFFCURVE",
"30 666 CURVE"
);
}
);
width = 561;
},
{
layerId = m002;
paths = (
{
closed = 1;
nodes = (
"10 506 LINE",
"46 539 OFFCURVE",
"97 558 OFFCURVE",
"146 558 CURVE SMOOTH",
"259 558 OFFCURVE",
"325 483 OFFCURVE",
"325 357 CURVE SMOOTH",
"325 230 OFFCURVE",
"267 155 OFFCURVE",
"170 155 CURVE SMOOTH",
"105 155 OFFCURVE",
"46 174 OFFCURVE",
"10 206 CURVE",
"10 8 LINE",
"56 -5 OFFCURVE",
"115 -13 OFFCURVE",
"170 -13 CURVE SMOOTH",
"406 -13 OFFCURVE",
"545 124 OFFCURVE",
"545 357 CURVE SMOOTH",
"545 589 OFFCURVE",
"402 726 OFFCURVE",
"160 726 CURVE SMOOTH",
"117 726 OFFCURVE",
"62 717 OFFCURVE",
"10 703 CURVE"
);
}
);
width = 555;
}
);
leftKerningGroup = O;
leftMetricsKey = O;
rightKerningGroup = O;
rightMetricsKey = O;
unicode = 0186;
},
{
color = 10;
glyphname = Oslash;
lastChange = "2023-08-29 22:00:59 +0000";
layers = (
{
anchors = (
{
name = Top;
position = "{346, 726}";
}
);
layerId = "FD4D3FDD-DE85-408F-A52A-FF600B1C6101";
paths = (
{
closed = 1;
nodes = (
"536 -13 OFFCURVE",
"663 135 OFFCURVE",
"663 356 CURVE SMOOTH",
"663 512 OFFCURVE",
"600 632 OFFCURVE",
"497 689 CURVE",
"529 778 LINE",
"471 778 LINE",
"447 711 LINE",
"416 721 OFFCURVE",
"382 726 OFFCURVE",
"346 726 CURVE SMOOTH",
"156 726 OFFCURVE",
"30 578 OFFCURVE",
"30 356 CURVE SMOOTH",
"30 200 OFFCURVE",
"93 80 OFFCURVE",
"197 23 CURVE",
"165 -64 LINE",
"223 -64 LINE",
"247 2 LINE",
"277 -8 OFFCURVE",
"311 -13 OFFCURVE",
"346 -13 CURVE SMOOTH"
);
},
{
closed = 1;
nodes = (
"80 616 OFFCURVE",
"272 719 OFFCURVE",
"430 664 CURVE",
"214 70 LINE",
"130 121 OFFCURVE",
"80 223 OFFCURVE",
"80 356 CURVE SMOOTH"
);
},
{
closed = 1;
nodes = (
"479 641 LINE",
"563 590 OFFCURVE",
"613 488 OFFCURVE",
"613 356 CURVE SMOOTH",
"613 90 OFFCURVE",
"413 -5 OFFCURVE",
"264 48 CURVE"
);
}
);
width = 693;
},
{
anchors = (
{
name = Top;
position = "{358, 726}";
}
);
layerId = m002;
paths = (
{
closed = 1;
nodes = (
"567 -13 OFFCURVE",
"707 135 OFFCURVE",
"707 356 CURVE SMOOTH",
"707 495 OFFCURVE",
"652 605 OFFCURVE",
"560 668 CURVE",
"600 778 LINE",
"424 778 LINE",
"404 723 LINE",
"389 725 OFFCURVE",
"374 726 OFFCURVE",
"358 726 CURVE SMOOTH",
"149 726 OFFCURVE",
"10 578 OFFCURVE",
"10 356 CURVE SMOOTH",
"10 217 OFFCURVE",
"65 107 OFFCURVE",
"157 45 CURVE",
"118 -64 LINE",
"294 -64 LINE",
"313 -11 LINE",
"328 -12 OFFCURVE",
"343 -13 OFFCURVE",
"358 -13 CURVE SMOOTH"
);
},
{
closed = 1;
nodes = (
"180 472 OFFCURVE",
"245 551 OFFCURVE",
"344 558 CURVE",
"221 220 LINE",
"195 254 OFFCURVE",
"180 301 OFFCURVE",
"180 356 CURVE SMOOTH"
);
},
{
closed = 1;
nodes = (
"496 492 LINE",
"522 457 OFFCURVE",
"537 411 OFFCURVE",
"537 356 CURVE SMOOTH",
"537 241 OFFCURVE",
"472 163 OFFCURVE",
"374 156 CURVE"
);
}
);
width = 717;
}
);
leftKerningGroup = O;
leftMetricsKey = O;
rightKerningGroup = O;
rightMetricsKey = O;
unicode = 00D8;
},
{
color = 10;
glyphname = OE;
lastChange = "2023-08-29 22:01:03 +0000";
layers = (
{
layerId = "FD4D3FDD-DE85-408F-A52A-FF600B1C6101";
paths = (
{
closed = 1;
nodes = (
"574 392 LINE",
"574 666 LINE",
"915 666 LINE",
"915 714 LINE",
"350 714 LINE SMOOTH",
"158 714 OFFCURVE",
"30 571 OFFCURVE",
"30 357 CURVE SMOOTH",
"30 143 OFFCURVE",
"158 0 OFFCURVE",
"350 0 CURVE SMOOTH",
"915 0 LINE",
"915 48 LINE",
"574 48 LINE",
"574 344 LINE",
"894 344 LINE",
"894 392 LINE"
);
},
{
closed = 1;
nodes = (
"80 542 OFFCURVE",
"188 666 OFFCURVE",
"350 666 CURVE SMOOTH",
"524 666 LINE",
"524 48 LINE",
"350 48 LINE SMOOTH",
"188 48 OFFCURVE",
"80 171 OFFCURVE",
"80 356 CURVE SMOOTH"
);
}
);
width = 955;
},
{
layerId = m002;
paths = (
{
closed = 1;
nodes = (
"654 452 LINE",
"654 546 LINE",
"960 546 LINE",
"960 714 LINE",
"385 714 LINE SMOOTH",
"149 714 OFFCURVE",
"10 581 OFFCURVE",
"10 357 CURVE SMOOTH",
"10 133 OFFCURVE",
"149 0 OFFCURVE",
"385 0 CURVE SMOOTH",
"960 0 LINE",
"960 168 LINE",
"654 168 LINE",
"654 284 LINE",
"939 284 LINE",
"939 452 LINE"
);
},
{
closed = 1;
nodes = (
"230 476 OFFCURVE",
"288 546 OFFCURVE",
"385 546 CURVE SMOOTH",
"444 546 LINE",
"444 168 LINE",
"385 168 LINE SMOOTH",
"288 168 OFFCURVE",
"230 238 OFFCURVE",
"230 357 CURVE SMOOTH"
);
}
);
width = 980;
}
);
leftKerningGroup = O;
leftMetricsKey = O;
rightKerningGroup = E;
rightMetricsKey = E;
unicode = 0152;
},
{
glyphname = P;
lastChange = "2023-08-29 22:01:06 +0000";
layers = (
{
anchors = (
{
name = Bottom;
position = "{234, 0}";
},
{
name = Top;
position = "{220, 714}";
}
);
layerId = "FD4D3FDD-DE85-408F-A52A-FF600B1C6101";
paths = (
{
closed = 1;
nodes = (
"90 291 LINE",
"278 291 LINE SMOOTH",
"394 291 OFFCURVE",
"472 376 OFFCURVE",
"472 503 CURVE SMOOTH",
"472 630 OFFCURVE",
"390 714 OFFCURVE",
"267 714 CURVE SMOOTH",
"40 714 LINE",
"40 0 LINE",
"90 0 LINE"
);
},
{
closed = 1;
nodes = (
"90 666 LINE",
"267 666 LINE SMOOTH",
"360 666 OFFCURVE",
"422 601 OFFCURVE",
"422 503 CURVE SMOOTH",
"422 404 OFFCURVE",
"364 338 OFFCURVE",
"278 338 CURVE SMOOTH",
"90 338 LINE"
);
}
);
width = 502;
},
{
anchors = (
{
name = Bottom;
position = "{274, 0}";
},
{
name = Top;
position = "{260, 714}";
}
);
layerId = m002;
paths = (
{
closed = 1;
nodes = (
"230 221 LINE",
"348 221 LINE SMOOTH",
"527 221 OFFCURVE",
"632 313 OFFCURVE",
"632 468 CURVE SMOOTH",
"632 623 OFFCURVE",
"522 714 OFFCURVE",
"337 714 CURVE SMOOTH",
"20 714 LINE",
"20 0 LINE",
"230 0 LINE"
);
},
{
closed = 1;
nodes = (
"230 546 LINE",
"337 546 LINE SMOOTH",
"390 546 OFFCURVE",
"422 517 OFFCURVE",
"422 468 CURVE SMOOTH",
"422 418 OFFCURVE",
"395 389 OFFCURVE",
"348 389 CURVE SMOOTH",
"230 389 LINE"
);
}
);
width = 642;
}
);
leftKerningGroup = H;
leftMetricsKey = N;
rightKerningGroup = P;
unicode = 0050;
},
{
color = 10;
glyphname = Thorn;
lastChange = "2023-08-29 22:01:13 +0000";
layers = (
{
layerId = "FD4D3FDD-DE85-408F-A52A-FF600B1C6101";
paths = (
{
closed = 1;
nodes = (
"90 151 LINE",
"288 151 LINE SMOOTH",
"416 151 OFFCURVE",
"492 227 OFFCURVE",
"492 355 CURVE SMOOTH",
"492 493 OFFCURVE",
"412 574 OFFCURVE",
"277 574 CURVE SMOOTH",
"90 574 LINE",
"90 714 LINE",
"40 714 LINE",
"40 0 LINE",
"90 0 LINE"
);
},
{
closed = 1;
nodes = (
"90 526 LINE",
"277 526 LINE SMOOTH",
"381 526 OFFCURVE",
"442 463 OFFCURVE",
"442 357 CURVE SMOOTH",
"442 257 OFFCURVE",
"385 198 OFFCURVE",
"288 198 CURVE SMOOTH",
"90 198 LINE"
);
}
);
width = 522;
},
{
layerId = m002;
paths = (
{
closed = 1;
nodes = (
"230 110 LINE",
"348 110 LINE SMOOTH",
"527 110 OFFCURVE",
"632 202 OFFCURVE",
"632 357 CURVE SMOOTH",
"632 512 OFFCURVE",
"522 603 OFFCURVE",
"337 603 CURVE SMOOTH",
"230 603 LINE",
"230 714 LINE",
"20 714 LINE",
"20 0 LINE",
"230 0 LINE"
);
},
{
closed = 1;
nodes = (
"230 435 LINE",
"337 435 LINE SMOOTH",
"390 435 OFFCURVE",
"422 406 OFFCURVE",
"422 357 CURVE SMOOTH",
"422 307 OFFCURVE",
"395 278 OFFCURVE",
"348 278 CURVE SMOOTH",
"230 278 LINE"
);
}
);
width = 642;
}
);
leftKerningGroup = H;
leftMetricsKey = P;
rightKerningGroup = P;
rightMetricsKey = P;
unicode = 00DE;
},
{
glyphname = Q;
lastChange = "2023-08-29 22:01:16 +0000";
layers = (
{
layerId = "FD4D3FDD-DE85-408F-A52A-FF600B1C6101";
paths = (
{
closed = 1;
nodes = (
"404 -13 OFFCURVE",
"455 -1 OFFCURVE",
"499 21 CURVE",
"542 -54 LINE",
"585 -29 LINE",
"541 48 LINE",
"619 109 OFFCURVE",
"663 215 OFFCURVE",
"663 356 CURVE SMOOTH",
"663 589 OFFCURVE",
"545 726 OFFCURVE",
"346 726 CURVE SMOOTH",
"147 726 OFFCURVE",
"30 589 OFFCURVE",
"30 356 CURVE SMOOTH",
"30 124 OFFCURVE",
"147 -13 OFFCURVE",
"346 -13 CURVE SMOOTH"
);
},
{
closed = 1;
nodes = (
"80 558 OFFCURVE",
"179 678 OFFCURVE",
"346 678 CURVE SMOOTH",
"514 678 OFFCURVE",
"613 558 OFFCURVE",
"613 356 CURVE SMOOTH",
"613 236 OFFCURVE",
"578 146 OFFCURVE",
"515 92 CURVE",
"445 213 LINE",
"402 188 LINE",
"474 64 LINE",
"437 45 OFFCURVE",
"395 35 OFFCURVE",
"346 35 CURVE SMOOTH",
"179 35 OFFCURVE",
"80 154 OFFCURVE",
"80 356 CURVE SMOOTH"
);
}
);
width = 693;
},
{
layerId = m002;
paths = (
{
closed = 1;
nodes = (
"415 -13 OFFCURVE",
"450 -9 OFFCURVE",
"482 -3 CURVE",
"529 -84 LINE",
"659 -9 LINE",
"620 59 LINE",
"702 121 OFFCURVE",
"747 223 OFFCURVE",
"747 356 CURVE SMOOTH",
"747 589 OFFCURVE",
"610 726 OFFCURVE",
"378 726 CURVE SMOOTH",
"147 726 OFFCURVE",
"10 589 OFFCURVE",
"10 356 CURVE SMOOTH",
"10 124 OFFCURVE",
"147 -13 OFFCURVE",
"378 -13 CURVE SMOOTH"
);
},
{
closed = 1;
nodes = (
"220 483 OFFCURVE",
"279 558 OFFCURVE",
"378 558 CURVE SMOOTH",
"478 558 OFFCURVE",
"537 483 OFFCURVE",
"537 356 CURVE SMOOTH",
"537 310 OFFCURVE",
"529 272 OFFCURVE",
"515 241 CURVE",
"489 285 LINE",
"359 210 LINE",
"391 155 LINE",
"386 155 OFFCURVE",
"382 155 OFFCURVE",
"378 155 CURVE",
"279 155 OFFCURVE",
"220 230 OFFCURVE",
"220 356 CURVE SMOOTH"
);
}
);
width = 757;
}
);
leftKerningGroup = O;
leftMetricsKey = O;
rightKerningGroup = O;
rightMetricsKey = O;
unicode = 0051;
},
{
glyphname = R;
lastChange = "2023-08-29 22:01:20 +0000";
layers = (
{
anchors = (
{
name = Bottom;
position = "{255, 0}";
},
{
name = Top;
position = "{228, 714}";
}
);
layerId = "FD4D3FDD-DE85-408F-A52A-FF600B1C6101";
paths = (
{
closed = 1;
nodes = (
"90 291 LINE",
"286 291 LINE",
"455 0 LINE",
"512 0 LINE",
"340 298 LINE",
"430 319 OFFCURVE",
"482 389 OFFCURVE",
"482 495 CURVE SMOOTH",
"482 633 OFFCURVE",
"402 714 OFFCURVE",
"267 714 CURVE SMOOTH",
"40 714 LINE",
"40 0 LINE",
"90 0 LINE"
);
},
{
closed = 1;
nodes = (
"90 666 LINE",
"267 666 LINE SMOOTH",
"371 666 OFFCURVE",
"432 603 OFFCURVE",
"432 497 CURVE SMOOTH",
"432 397 OFFCURVE",
"375 338 OFFCURVE",
"278 338 CURVE SMOOTH",
"90 338 LINE"
);
}
);
width = 532;
},
{
anchors = (
{
name = Bottom;
position = "{325, 0}";
},
{
name = Top;
position = "{278, 714}";
}
);
layerId = m002;
paths = (
{
closed = 1;
nodes = (
"230 240 LINE",
"298 240 LINE",
"437 0 LINE",
"653 0 LINE",
"499 266 LINE",
"584 302 OFFCURVE",
"632 375 OFFCURVE",
"632 477 CURVE SMOOTH",
"632 626 OFFCURVE",
"526 714 OFFCURVE",
"347 714 CURVE SMOOTH",
"20 714 LINE",
"20 0 LINE",
"230 0 LINE"
);
},
{
closed = 1;
nodes = (
"230 546 LINE",
"347 546 LINE SMOOTH",
"394 546 OFFCURVE",
"422 520 OFFCURVE",
"422 477 CURVE SMOOTH",
"422 434 OFFCURVE",
"398 408 OFFCURVE",
"358 408 CURVE SMOOTH",
"230 408 LINE"
);
}
);
width = 673;
}
);
leftKerningGroup = H;
leftMetricsKey = N;
rightKerningGroup = R;
unicode = 0052;
},
{
glyphname = S;
lastChange = "2023-08-29 23:46:44 +0000";
layers = (
{
anchors = (
{
name = Bottom;
position = "{294, 0}";
},
{
name = Top;
position = "{282, 726}";
}
);
layerId = "FD4D3FDD-DE85-408F-A52A-FF600B1C6101";
paths = (
{
closed = 1;
nodes = (
"136 726 OFFCURVE",
"50 652 OFFCURVE",
"50 527 CURVE SMOOTH",
"50 292 OFFCURVE",
"481 384 OFFCURVE",
"481 189 CURVE SMOOTH",
"481 92 OFFCURVE",
"413 35 OFFCURVE",
"298 35 CURVE SMOOTH",
"155 35 OFFCURVE",
"70 108 OFFCURVE",
"70 231 CURVE",
"20 231 LINE",
"20 78 OFFCURVE",
"122 -13 OFFCURVE",
"294 -13 CURVE SMOOTH",
"443 -13 OFFCURVE",
"531 64 OFFCURVE",
"531 195 CURVE SMOOTH",
"531 426 OFFCURVE",
"100 341 OFFCURVE",
"100 531 CURVE SMOOTH",
"100 623 OFFCURVE",
"168 678 OFFCURVE",
"282 678 CURVE SMOOTH",
"400 678 OFFCURVE",
"470 613 OFFCURVE",
"470 504 CURVE",
"520 504 LINE",
"520 644 OFFCURVE",
"432 726 OFFCURVE",
"282 726 CURVE SMOOTH"
);
}
);
width = 551;
},
{
anchors = (
{
name = Bottom;
position = "{358, 0}";
},
{
name = Top;
position = "{347, 726}";
}
);
layerId = m002;
paths = (
{
closed = 1;
nodes = (
"160 726 OFFCURVE",
"50 644 OFFCURVE",
"50 506 CURVE SMOOTH",
"50 227 OFFCURVE",
"451 313 OFFCURVE",
"451 215 CURVE SMOOTH",
"451 177 OFFCURVE",
"417 155 OFFCURVE",
"359 155 CURVE SMOOTH",
"278 155 OFFCURVE",
"230 193 OFFCURVE",
"230 256 CURVE",
"20 256 LINE",
"20 87 OFFCURVE",
"146 -13 OFFCURVE",
"359 -13 CURVE SMOOTH",
"549 -13 OFFCURVE",
"661 72 OFFCURVE",
"661 215 CURVE SMOOTH",
"661 490 OFFCURVE",
"260 410 OFFCURVE",
"260 506 CURVE SMOOTH",
"260 539 OFFCURVE",
"292 558 OFFCURVE",
"347 558 CURVE SMOOTH",
"405 558 OFFCURVE",
"440 529 OFFCURVE",
"440 479 CURVE",
"650 479 LINE",
"650 634 OFFCURVE",
"537 726 OFFCURVE",
"347 726 CURVE SMOOTH"
);
}
);
width = 681;
}
);
leftKerningGroup = S;
rightKerningGroup = S;
unicode = 0053;
},
{
color = 10;
glyphname = Saltillo;
lastChange = "2023-08-29 22:01:50 +0000";
layers = (
{
layerId = "FD4D3FDD-DE85-408F-A52A-FF600B1C6101";
paths = (
{
closed = 1;
nodes = (
"40 409 LINE",
"45 196 LINE",
"85 196 LINE",
"90 409 LINE",
"90 731 LINE",
"40 731 LINE"
);
}
);
width = 130;
},
{
layerId = m002;
paths = (
{
closed = 1;
nodes = (
"20 409 LINE",
"25 196 LINE",
"185 196 LINE",
"190 409 LINE",
"190 731 LINE",
"20 731 LINE"
);
}
);
width = 210;
}
);
leftKerningGroup = H;
leftMetricsKey = N;
rightKerningGroup = H;
rightMetricsKey = N;
unicode = A78B;
},
{
color = 10;
glyphname = Germandbls;
lastChange = "2023-08-29 22:01:57 +0000";
layers = (
{
layerId = "FD4D3FDD-DE85-408F-A52A-FF600B1C6101";
paths = (
{
closed = 1;
nodes = (
"437 -13 OFFCURVE",
"521 79 OFFCURVE",
"521 217 CURVE SMOOTH",
"521 350 OFFCURVE",
"418 441 OFFCURVE",
"263 447 CURVE",
"455 666 LINE",
"455 714 LINE",
"40 714 LINE",
"40 0 LINE",
"90 0 LINE",
"90 666 LINE",
"393 666 LINE",
"200 446 LINE",
"200 398 LINE",
"220 398 LINE SMOOTH",
"371 398 OFFCURVE",
"471 326 OFFCURVE",
"471 217 CURVE SMOOTH",
"471 108 OFFCURVE",
"407 35 OFFCURVE",
"310 35 CURVE",
"310 -13 LINE"
);
}
);
width = 551;
},
{
layerId = m002;
paths = (
{
closed = 1;
nodes = (
"523 -13 OFFCURVE",
"631 72 OFFCURVE",
"631 217 CURVE SMOOTH",
"631 323 OFFCURVE",
"577 396 OFFCURVE",
"481 429 CURVE",
"575 546 LINE",
"575 714 LINE",
"20 714 LINE",
"20 0 LINE",
"230 0 LINE",
"230 546 LINE",
"369 546 LINE",
"280 436 LINE",
"280 278 LINE",
"300 278 LINE SMOOTH",
"370 278 OFFCURVE",
"411 255 OFFCURVE",
"411 217 CURVE SMOOTH",
"411 178 OFFCURVE",
"385 155 OFFCURVE",
"340 155 CURVE",
"340 -13 LINE"
);
}
);
width = 641;
}
);
leftKerningGroup = H;
leftMetricsKey = B;
rightKerningGroup = B;
rightMetricsKey = O;
unicode = 1E9E;
},
{
color = 10;
glyphname = Schwa;
lastChange = "2023-08-29 22:02:01 +0000";
layers = (
{
layerId = "FD4D3FDD-DE85-408F-A52A-FF600B1C6101";
paths = (
{
closed = 1;
nodes = (
"87 492 LINE",
"110 604 OFFCURVE",
"203 678 OFFCURVE",
"320 678 CURVE SMOOTH",
"465 678 OFFCURVE",
"561 552 OFFCURVE",
"561 364 CURVE SMOOTH",
"561 356 LINE",
"30 356 LINE",
"30 127 OFFCURVE",
"141 -13 OFFCURVE",
"308 -13 CURVE SMOOTH",
"490 -13 OFFCURVE",
"611 138 OFFCURVE",
"611 364 CURVE SMOOTH",
"611 581 OFFCURVE",
"495 726 OFFCURVE",
"322 726 CURVE SMOOTH",
"177 726 OFFCURVE",
"63 632 OFFCURVE",
"37 492 CURVE"
);
},
{
closed = 1;
nodes = (
"558 308 LINE",
"541 142 OFFCURVE",
"449 35 OFFCURVE",
"316 35 CURVE SMOOTH",
"174 35 OFFCURVE",
"80 144 OFFCURVE",
"80 308 CURVE"
);
}
);
width = 641;
},
{
layerId = m002;
paths = (
{
closed = 1;
nodes = (
"220 452 LINE",
"234 519 OFFCURVE",
"287 558 OFFCURVE",
"363 558 CURVE SMOOTH",
"446 558 OFFCURVE",
"499 503 OFFCURVE",
"511 408 CURVE",
"13 408 LINE",
"13 328 LINE SMOOTH",
"13 114 OFFCURVE",
"148 -13 OFFCURVE",
"376 -13 CURVE SMOOTH",
"595 -13 OFFCURVE",
"724 127 OFFCURVE",
"724 364 CURVE SMOOTH",
"724 592 OFFCURVE",
"591 726 OFFCURVE",
"365 726 CURVE SMOOTH",
"173 726 OFFCURVE",
"41 624 OFFCURVE",
"10 452 CURVE"
);
},
{
closed = 1;
nodes = (
"499 258 LINE",
"477 192 OFFCURVE",
"432 155 OFFCURVE",
"369 155 CURVE SMOOTH",
"285 155 OFFCURVE",
"233 193 OFFCURVE",
"224 258 CURVE"
);
}
);
width = 734;
}
);
leftKerningGroup = O;
leftMetricsKey = O;
rightKerningGroup = O;
rightMetricsKey = O;
unicode = 018F;
},
{
glyphname = T;
lastChange = "2023-09-05 19:20:00 +0000";
layers = (
{
anchors = (
{
name = Bottom;
position = "{280, 0}";
},
{
name = Top;
position = "{280, 714}";
}
);
layerId = "FD4D3FDD-DE85-408F-A52A-FF600B1C6101";
paths = (
{
closed = 1;
nodes = (
"20 714 LINE",
"20 666 LINE",
"255 666 LINE",
"255 0 LINE",
"305 0 LINE",
"305 666 LINE",
"539 666 LINE",
"539 714 LINE"
);
}
);
width = 559;
},
{
anchors = (
{
name = Bottom;
position = "{315, 0}";
},
{
name = Top;
position = "{315, 714}";
}
);
layerId = m002;
paths = (
{
closed = 1;
nodes = (
"10 714 LINE",
"10 546 LINE",
"210 546 LINE",
"210 0 LINE",
"420 0 LINE",
"420 546 LINE",
"619 546 LINE",
"619 714 LINE"
);
}
);
width = 629;
}
);
leftKerningGroup = T;
rightKerningGroup = T;
unicode = 0054;
},
{
color = 10;
glyphname = Tbar;
lastChange = "2023-08-29 22:02:13 +0000";
layers = (
{
layerId = "FD4D3FDD-DE85-408F-A52A-FF600B1C6101";
paths = (
{
closed = 1;
nodes = (
"20 714 LINE",
"20 666 LINE",
"255 666 LINE",
"255 412 LINE",
"60 417 LINE",
"60 372 LINE",
"255 372 LINE",
"255 0 LINE",
"305 0 LINE",
"305 372 LINE",
"499 372 LINE",
"499 414 LINE",
"305 414 LINE",
"305 666 LINE",
"539 666 LINE",
"539 714 LINE"
);
}
);
width = 559;
},
{
layerId = m002;
paths = (
{
closed = 1;
nodes = (
"10 714 LINE",
"10 546 LINE",
"210 546 LINE",
"210 402 LINE",
"51 407 LINE",
"51 284 LINE",
"210 284 LINE",
"210 0 LINE",
"420 0 LINE",
"420 284 LINE",
"579 284 LINE",
"579 404 LINE",
"420 404 LINE",
"420 546 LINE",
"619 546 LINE",
"619 714 LINE"
);
}
);
width = 629;
}
);
leftKerningGroup = T;
leftMetricsKey = T;
rightKerningGroup = T;
rightMetricsKey = T;
unicode = 0166;
},
{
color = 10;
glyphname = Tdiagonalstroke;
lastChange = "2023-08-29 22:02:13 +0000";
layers = (
{
layerId = "FD4D3FDD-DE85-408F-A52A-FF600B1C6101";
paths = (
{
closed = 1;
nodes = (
"456 714 LINE",
"478 772 LINE",
"428 772 LINE",
"406 714 LINE",
"20 714 LINE",
"20 666 LINE",
"255 666 LINE",
"255 320 LINE",
"112 -53 LINE",
"162 -53 LINE",
"255 190 LINE",
"255 0 LINE",
"305 0 LINE",
"305 320 LINE",
"437 666 LINE",
"539 666 LINE",
"539 714 LINE"
);
},
{
closed = 1;
nodes = (
"305 666 LINE",
"387 666 LINE",
"305 451 LINE"
);
}
);
width = 559;
},
{
layerId = m002;
paths = (
{
closed = 1;
nodes = (
"572 714 LINE",
"594 772 LINE",
"544 772 LINE",
"522 714 LINE",
"10 714 LINE",
"10 546 LINE",
"210 546 LINE",
"210 0 LINE",
"248 0 LINE",
"228 -53 LINE",
"278 -53 LINE",
"298 0 LINE",
"420 0 LINE",
"420 318 LINE",
"507 546 LINE",
"619 546 LINE",
"619 714 LINE"
);
},
{
closed = 1;
nodes = (
"420 546 LINE",
"457 546 LINE",
"420 448 LINE"
);
}
);
width = 629;
}
);
leftKerningGroup = T;
leftMetricsKey = T;
rightKerningGroup = T;
rightMetricsKey = T;
unicode = 023E;
},
{
glyphname = U;
lastChange = "2023-08-29 22:02:15 +0000";
layers = (
{
anchors = (
{
name = Bottom;
position = "{312, 0}";
},
{
name = Top;
position = "{312, 714}";
}
);
layerId = "FD4D3FDD-DE85-408F-A52A-FF600B1C6101";
paths = (
{
closed = 1;
nodes = (
"40 90 OFFCURVE",
"141 -13 OFFCURVE",
"311 -13 CURVE SMOOTH",
"483 -13 OFFCURVE",
"584 90 OFFCURVE",
"584 265 CURVE SMOOTH",
"584 714 LINE",
"534 714 LINE",
"534 275 LINE SMOOTH",
"534 124 OFFCURVE",
"451 35 OFFCURVE",
"311 35 CURVE SMOOTH",
"172 36 OFFCURVE",
"90 125 OFFCURVE",
"90 275 CURVE SMOOTH",
"90 714 LINE",
"40 714 LINE",
"40 265 LINE SMOOTH"
);
}
);
width = 624;
},
{
anchors = (
{
name = Bottom;
position = "{341, 0}";
},
{
name = Top;
position = "{341, 714}";
}
);
layerId = m002;
paths = (
{
closed = 1;
nodes = (
"20 94 OFFCURVE",
"139 -13 OFFCURVE",
"341 -13 CURVE SMOOTH",
"544 -13 OFFCURVE",
"664 94 OFFCURVE",
"664 275 CURVE SMOOTH",
"664 714 LINE",
"454 714 LINE",
"454 265 LINE SMOOTH",
"454 196 OFFCURVE",
"412 155 OFFCURVE",
"341 155 CURVE SMOOTH",
"271 156 OFFCURVE",
"230 197 OFFCURVE",
"230 265 CURVE SMOOTH",
"230 714 LINE",
"20 714 LINE",
"20 275 LINE SMOOTH"
);
}
);
width = 684;
}
);
leftKerningGroup = U;
rightKerningGroup = U;
unicode = 0055;
},
{
color = 10;
glyphname = "Upsilon-latin";
lastChange = "2023-08-29 22:02:27 +0000";
layers = (
{
layerId = "FD4D3FDD-DE85-408F-A52A-FF600B1C6101";
paths = (
{
closed = 1;
nodes = (
"536 -13 OFFCURVE",
"662 123 OFFCURVE",
"662 327 CURVE SMOOTH",
"662 485 OFFCURVE",
"577 614 OFFCURVE",
"443 666 CURVE",
"651 666 LINE",
"651 714 LINE",
"376 714 LINE",
"376 666 LINE",
"518 618 OFFCURVE",
"612 482 OFFCURVE",
"612 327 CURVE SMOOTH",
"612 152 OFFCURVE",
"506 35 OFFCURVE",
"346 35 CURVE SMOOTH",
"186 35 OFFCURVE",
"80 152 OFFCURVE",
"80 327 CURVE SMOOTH",
"80 482 OFFCURVE",
"174 618 OFFCURVE",
"316 666 CURVE",
"316 714 LINE",
"41 714 LINE",
"41 666 LINE",
"249 666 LINE",
"115 614 OFFCURVE",
"30 485 OFFCURVE",
"30 327 CURVE SMOOTH",
"30 123 OFFCURVE",
"156 -13 OFFCURVE",
"346 -13 CURVE SMOOTH"
);
}
);
width = 692;
},
{
layerId = m002;
paths = (
{
closed = 1;
nodes = (
"612 -13 OFFCURVE",
"747 99 OFFCURVE",
"747 289 CURVE SMOOTH",
"747 404 OFFCURVE",
"687 494 OFFCURVE",
"581 546 CURVE",
"756 546 LINE",
"756 714 LINE",
"413 714 LINE",
"413 546 LINE",
"485 519 OFFCURVE",
"527 451 OFFCURVE",
"527 362 CURVE SMOOTH",
"527 256 OFFCURVE",
"474 194 OFFCURVE",
"383 194 CURVE SMOOTH",
"292 194 OFFCURVE",
"239 256 OFFCURVE",
"239 362 CURVE SMOOTH",
"239 451 OFFCURVE",
"281 519 OFFCURVE",
"353 546 CURVE",
"353 714 LINE",
"10 714 LINE",
"10 546 LINE",
"185 546 LINE",
"79 494 OFFCURVE",
"19 404 OFFCURVE",
"19 289 CURVE SMOOTH",
"19 99 OFFCURVE",
"154 -13 OFFCURVE",
"383 -13 CURVE SMOOTH"
);
}
);
width = 766;
}
);
leftKerningGroup = O;
leftMetricsKey = O;
rightKerningGroup = O;
rightMetricsKey = O;
unicode = 01B1;
},
{
glyphname = V;
lastChange = "2023-09-05 19:31:56 +0000";
layers = (
{
anchors = (
{
name = Bottom;
position = "{317, 0}";
},
{
name = Top;
position = "{317, 714}";
}
);
layerId = "FD4D3FDD-DE85-408F-A52A-FF600B1C6101";
paths = (
{
closed = 1;
nodes = (
"317 98 LINE",
"315 98 LINE",
"73 714 LINE",
"20 714 LINE",
"299 0 LINE",
"333 0 LINE",
"613 714 LINE",
"560 714 LINE"
);
}
);
width = 633;
},
{
anchors = (
{
name = Bottom;
position = "{417, 0}";
},
{
name = Top;
position = "{417, 714}";
}
);
layerId = m002;
paths = (
{
closed = 1;
nodes = (
"417 290 LINE",
"415 290 LINE",
"233 714 LINE",
"20 714 LINE",
"329 0 LINE",
"503 0 LINE",
"813 714 LINE",
"600 714 LINE"
);
}
);
width = 833;
}
);
leftKerningGroup = V;
leftMetricsKey = A;
rightKerningGroup = V;
rightMetricsKey = A;
unicode = 0056;
},
{
color = 10;
glyphname = "Gamma-latin";
lastChange = "2023-08-29 22:02:35 +0000";
layers = (
{
layerId = "FD4D3FDD-DE85-408F-A52A-FF600B1C6101";
paths = (
{
closed = 1;
nodes = (
"339 -13 OFFCURVE",
"393 42 OFFCURVE",
"393 125 CURVE SMOOTH",
"393 187 OFFCURVE",
"355 241 OFFCURVE",
"323 295 CURVE SMOOTH",
"284 360 LINE",
"494 714 LINE",
"441 714 LINE",
"257 406 LINE",
"73 714 LINE",
"20 714 LINE",
"230 360 LINE",
"191 295 LINE SMOOTH",
"159 241 OFFCURVE",
"121 187 OFFCURVE",
"121 125 CURVE SMOOTH",
"121 42 OFFCURVE",
"175 -13 OFFCURVE",
"257 -13 CURVE SMOOTH"
);
},
{
closed = 1;
nodes = (
"171 185 OFFCURVE",
"212 238 OFFCURVE",
"244 292 CURVE SMOOTH",
"257 314 LINE",
"270 292 LINE SMOOTH",
"302 238 OFFCURVE",
"343 185 OFFCURVE",
"343 125 CURVE SMOOTH",
"343 71 OFFCURVE",
"309 35 OFFCURVE",
"257 35 CURVE SMOOTH",
"205 35 OFFCURVE",
"171 71 OFFCURVE",
"171 125 CURVE SMOOTH"
);
}
);
width = 514;
},
{
layerId = m002;
paths = (
{
closed = 1;
nodes = (
"452 -13 OFFCURVE",
"550 72 OFFCURVE",
"550 217 CURVE SMOOTH",
"550 259 OFFCURVE",
"531 311 OFFCURVE",
"499 357 CURVE SMOOTH",
"401 502 LINE",
"537 714 LINE",
"314 714 LINE",
"285 671 LINE",
"256 714 LINE",
"33 714 LINE",
"169 502 LINE",
"71 357 LINE SMOOTH",
"39 311 OFFCURVE",
"20 259 OFFCURVE",
"20 217 CURVE SMOOTH",
"20 72 OFFCURVE",
"118 -13 OFFCURVE",
"285 -13 CURVE SMOOTH"
);
},
{
closed = 1;
nodes = (
"230 231 OFFCURVE",
"239 250 OFFCURVE",
"266 292 CURVE SMOOTH",
"285 322 LINE",
"304 292 LINE SMOOTH",
"331 250 OFFCURVE",
"340 231 OFFCURVE",
"340 208 CURVE SMOOTH",
"340 176 OFFCURVE",
"318 155 OFFCURVE",
"285 155 CURVE SMOOTH",
"252 155 OFFCURVE",
"230 176 OFFCURVE",
"230 208 CURVE SMOOTH"
);
}
);
width = 570;
}
);
leftKerningGroup = V;
leftMetricsKey = V;
rightKerningGroup = V;
rightMetricsKey = V;
unicode = 0194;
},
{
glyphname = W;
lastChange = "2023-08-29 22:02:37 +0000";
layers = (
{
anchors = (
{
name = Bottom;
position = "{438, 0}";
},
{
name = Top;
position = "{439, 714}";
}
);
layerId = "FD4D3FDD-DE85-408F-A52A-FF600B1C6101";
paths = (
{
closed = 1;
nodes = (
"216 0 LINE",
"269 0 LINE",
"438 617 LINE",
"440 617 LINE",
"608 0 LINE",
"661 0 LINE",
"857 714 LINE",
"804 714 LINE",
"636 97 LINE",
"634 97 LINE",
"465 714 LINE",
"412 714 LINE",
"244 97 LINE",
"242 97 LINE",
"73 714 LINE",
"20 714 LINE"
);
}
);
width = 877;
},
{
anchors = (
{
name = Bottom;
position = "{543, 0}";
},
{
name = Top;
position = "{544, 714}";
}
);
layerId = m002;
paths = (
{
closed = 1;
nodes = (
"216 0 LINE",
"436 0 LINE",
"543 405 LINE",
"545 405 LINE",
"652 0 LINE",
"872 0 LINE",
"1068 714 LINE",
"848 714 LINE",
"737 304 LINE",
"735 304 LINE",
"626 714 LINE",
"461 714 LINE",
"353 305 LINE",
"351 305 LINE",
"240 714 LINE",
"20 714 LINE"
);
}
);
width = 1088;
}
);
leftKerningGroup = V;
leftMetricsKey = A;
rightKerningGroup = V;
rightMetricsKey = A;
unicode = 0057;
},
{
glyphname = X;
lastChange = "2023-08-29 22:03:24 +0000";
layers = (
{
anchors = (
{
name = Bottom;
position = "{292, 0}";
},
{
name = Top;
position = "{292, 714}";
}
);
layerId = "FD4D3FDD-DE85-408F-A52A-FF600B1C6101";
paths = (
{
closed = 1;
nodes = (
"330 357 LINE",
"580 714 LINE",
"521 714 LINE",
"300 399 LINE",
"79 714 LINE",
"20 714 LINE",
"271 357 LINE",
"20 0 LINE",
"79 0 LINE",
"300 315 LINE",
"521 0 LINE",
"580 0 LINE"
);
}
);
width = 600;
},
{
anchors = (
{
name = Bottom;
position = "{399, 0}";
},
{
name = Top;
position = "{399, 714}";
}
);
layerId = m002;
paths = (
{
closed = 1;
nodes = (
"522 357 LINE",
"775 714 LINE",
"526 714 LINE",
"398 533 LINE",
"269 714 LINE",
"20 714 LINE",
"273 357 LINE",
"20 0 LINE",
"269 0 LINE",
"398 181 LINE",
"526 0 LINE",
"775 0 LINE"
);
}
);
width = 795;
}
);
leftKerningGroup = X;
leftMetricsKey = A;
rightKerningGroup = X;
rightMetricsKey = A;
unicode = 0058;
},
{
glyphname = Y;
lastChange = "2023-08-29 22:03:26 +0000";
layers = (
{
anchors = (
{
name = Bottom;
position = "{284, 0}";
},
{
name = Top;
position = "{284, 714}";
}
);
layerId = "FD4D3FDD-DE85-408F-A52A-FF600B1C6101";
paths = (
{
closed = 1;
nodes = (
"259 0 LINE",
"309 0 LINE",
"309 273 LINE",
"547 714 LINE",
"492 714 LINE",
"285 330 LINE",
"283 330 LINE",
"75 714 LINE",
"20 714 LINE",
"259 273 LINE"
);
}
);
width = 567;
},
{
anchors = (
{
name = Bottom;
position = "{384, 0}";
},
{
name = Top;
position = "{384, 714}";
}
);
layerId = m002;
paths = (
{
closed = 1;
nodes = (
"279 0 LINE",
"489 0 LINE",
"489 273 LINE",
"748 714 LINE",
"522 714 LINE",
"385 477 LINE",
"383 477 LINE",
"246 714 LINE",
"20 714 LINE",
"279 273 LINE"
);
}
);
width = 768;
}
);
leftKerningGroup = V;
leftMetricsKey = A;
rightKerningGroup = V;
rightMetricsKey = A;
unicode = 0059;
},
{
glyphname = Z;
lastChange = "2023-08-29 22:03:36 +0000";
layers = (
{
anchors = (
{
name = Bottom;
position = "{255, 0}";
},
{
name = Top;
position = "{290, 714}";
}
);
layerId = "FD4D3FDD-DE85-408F-A52A-FF600B1C6101";
paths = (
{
closed = 1;
nodes = (
"21 714 LINE",
"21 664 LINE",
"457 664 LINE",
"10 50 LINE",
"10 0 LINE",
"519 0 LINE",
"519 50 LINE",
"69 50 LINE",
"518 664 LINE",
"518 714 LINE"
);
}
);
width = 529;
},
{
anchors = (
{
name = Bottom;
position = "{285, 0}";
},
{
name = Top;
position = "{310, 714}";
}
);
layerId = m002;
paths = (
{
closed = 1;
nodes = (
"31 714 LINE",
"31 546 LINE",
"317 546 LINE",
"20 168 LINE",
"20 0 LINE",
"549 0 LINE",
"549 168 LINE",
"249 168 LINE",
"548 546 LINE",
"548 714 LINE"
);
}
);
width = 569;
}
);
leftKerningGroup = Z;
rightKerningGroup = Z;
unicode = 005A;
},
{
color = 10;
glyphname = Ismall;
lastChange = "2023-09-06 15:47:01 +0000";
layers = (
{
layerId = "FD4D3FDD-DE85-408F-A52A-FF600B1C6101";
paths = (
{
closed = 1;
nodes = (
"40 520 LINE",
"40 478 LINE",
"154 478 LINE",
"154 42 LINE",
"40 42 LINE",
"40 0 LINE",
"315 0 LINE",
"315 42 LINE",
"202 42 LINE",
"202 478 LINE",
"315 478 LINE",
"315 520 LINE"
);
}
);
width = 355;
},
{
layerId = m002;
paths = (
{
closed = 1;
nodes = (
"20 520 LINE",
"20 370 LINE",
"129 370 LINE",
"129 150 LINE",
"20 150 LINE",
"20 0 LINE",
"395 0 LINE",
"395 150 LINE",
"287 150 LINE",
"287 370 LINE",
"395 370 LINE",
"395 520 LINE"
);
}
);
width = 415;
}
);
leftKerningGroup = n;
rightKerningGroup = n;
unicode = 026A;
},
{
glyphname = a;
lastChange = "2023-09-05 19:28:22 +0000";
layers = (
{
anchors = (
{
name = Bottom;
position = "{231, 0}";
},
{
name = Ogonek;
position = "{372, 0}";
},
{
name = Top;
position = "{230, 532}";
}
);
background = {
paths = (
{
closed = 1;
nodes = (
"420 297 LINE",
"300 297 LINE SMOOTH",
"156 297 OFFCURVE",
"71 236 OFFCURVE",
"71 132 CURVE SMOOTH",
"71 45 OFFCURVE",
"139 -13 OFFCURVE",
"241 -13 CURVE SMOOTH",
"325 -13 OFFCURVE",
"392 25 OFFCURVE",
"420 88 CURVE",
"422 88 LINE",
"430 0 LINE",
"468 0 LINE",
"468 364 LINE SMOOTH",
"468 470 OFFCURVE",
"404 532 OFFCURVE",
"295 532 CURVE SMOOTH",
"174 532 OFFCURVE",
"102 476 OFFCURVE",
"102 382 CURVE",
"150 382 LINE",
"150 450 OFFCURVE",
"203 490 OFFCURVE",
"293 490 CURVE SMOOTH",
"373 490 OFFCURVE",
"420 446 OFFCURVE",
"420 372 CURVE SMOOTH"
);
},
{
closed = 1;
nodes = (
"123 214 OFFCURVE",
"185 257 OFFCURVE",
"305 257 CURVE SMOOTH",
"419 257 LINE",
"419 212 LINE SMOOTH",
"419 96 OFFCURVE",
"353 28 OFFCURVE",
"241 28 CURVE SMOOTH",
"170 28 OFFCURVE",
"123 69 OFFCURVE",
"123 131 CURVE SMOOTH"
);
},
{
closed = 1;
nodes = (
"400 90 LINE",
"400 45 OFFCURVE",
"413 25 QCURVE SMOOTH",
"429 0 OFFCURVE",
"474 0 QCURVE SMOOTH",
"496 0 OFFCURVE",
"515 4 QCURVE",
"515 57 LINE",
"505 53 OFFCURVE",
"495 53 QCURVE SMOOTH",
"458 53 OFFCURVE",
"458 91 QCURVE"
);
}
);
};
layerId = "FD4D3FDD-DE85-408F-A52A-FF600B1C6101";
paths = (
{
closed = 1;
nodes = (
"259 -13 OFFCURVE",
"325 23 OFFCURVE",
"357 78 CURVE",
"359 78 LINE",
"344 0 LINE",
"407 0 LINE",
"407 374 LINE SMOOTH",
"407 473 OFFCURVE",
"341 532 OFFCURVE",
"230 532 CURVE SMOOTH",
"112 532 OFFCURVE",
"43 476 OFFCURVE",
"43 382 CURVE",
"91 382 LINE",
"91 450 OFFCURVE",
"143 490 OFFCURVE",
"230 490 CURVE SMOOTH",
"311 490 OFFCURVE",
"359 451 OFFCURVE",
"359 384 CURVE SMOOTH",
"359 332 OFFCURVE",
"312 306 OFFCURVE",
"237 289 CURVE SMOOTH",
"107 260 OFFCURVE",
"30 215 OFFCURVE",
"30 132 CURVE SMOOTH",
"30 45 OFFCURVE",
"94 -13 OFFCURVE",
"190 -13 CURVE SMOOTH"
);
},
{
closed = 1;
nodes = (
"78 190 OFFCURVE",
"136 221 OFFCURVE",
"234 244 CURVE SMOOTH",
"294 258 OFFCURVE",
"333 274 OFFCURVE",
"358 302 CURVE",
"358 212 LINE SMOOTH",
"358 102 OFFCURVE",
"291 29 OFFCURVE",
"190 29 CURVE SMOOTH",
"123 29 OFFCURVE",
"78 70 OFFCURVE",
"78 131 CURVE SMOOTH"
);
}
);
width = 447;
},
{
anchors = (
{
name = Bottom;
position = "{292, 0}";
},
{
name = Ogonek;
position = "{475, 0}";
},
{
name = Top;
position = "{282, 532}";
}
);
background = {
paths = (
{
closed = 1;
nodes = (
"384 297 LINE",
"264 297 LINE SMOOTH",
"120 297 OFFCURVE",
"35 236 OFFCURVE",
"35 132 CURVE SMOOTH",
"35 45 OFFCURVE",
"103 -13 OFFCURVE",
"205 -13 CURVE SMOOTH",
"289 -13 OFFCURVE",
"356 25 OFFCURVE",
"384 88 CURVE",
"386 88 LINE",
"394 0 LINE",
"432 0 LINE",
"432 364 LINE SMOOTH",
"432 470 OFFCURVE",
"368 532 OFFCURVE",
"259 532 CURVE SMOOTH",
"138 532 OFFCURVE",
"66 476 OFFCURVE",
"66 382 CURVE",
"114 382 LINE",
"114 450 OFFCURVE",
"167 490 OFFCURVE",
"257 490 CURVE SMOOTH",
"337 490 OFFCURVE",
"384 446 OFFCURVE",
"384 372 CURVE SMOOTH"
);
},
{
closed = 1;
nodes = (
"87 214 OFFCURVE",
"149 257 OFFCURVE",
"269 257 CURVE SMOOTH",
"383 257 LINE",
"383 212 LINE SMOOTH",
"383 96 OFFCURVE",
"317 28 OFFCURVE",
"205 28 CURVE SMOOTH",
"134 28 OFFCURVE",
"87 69 OFFCURVE",
"87 131 CURVE SMOOTH"
);
},
{
closed = 1;
nodes = (
"364 90 LINE",
"364 45 OFFCURVE",
"377 25 QCURVE SMOOTH",
"393 0 OFFCURVE",
"438 0 QCURVE SMOOTH",
"460 0 OFFCURVE",
"479 4 QCURVE",
"479 57 LINE",
"469 53 OFFCURVE",
"459 53 QCURVE SMOOTH",
"422 53 OFFCURVE",
"422 91 QCURVE"
);
}
);
};
layerId = m002;
paths = (
{
closed = 1;
nodes = (
"284 -13 OFFCURVE",
"334 7 OFFCURVE",
"357 40 CURVE",
"361 40 LINE",
"341 0 LINE",
"547 0 LINE",
"547 354 LINE SMOOTH",
"547 466 OFFCURVE",
"448 532 OFFCURVE",
"280 532 CURVE SMOOTH",
"118 532 OFFCURVE",
"23 460 OFFCURVE",
"23 337 CURVE",
"221 337 LINE",
"221 373 OFFCURVE",
"247 395 OFFCURVE",
"291 395 CURVE SMOOTH",
"327 395 OFFCURVE",
"349 382 OFFCURVE",
"349 360 CURVE SMOOTH",
"349 326 OFFCURVE",
"302 316 OFFCURVE",
"220 304 CURVE SMOOTH",
"93 285 OFFCURVE",
"10 229 OFFCURVE",
"10 141 CURVE SMOOTH",
"10 44 OFFCURVE",
"89 -13 OFFCURVE",
"222 -13 CURVE SMOOTH"
);
},
{
closed = 1;
nodes = (
"208 181 OFFCURVE",
"222 197 OFFCURVE",
"259 206 CURVE SMOOTH",
"306 217 OFFCURVE",
"329 224 OFFCURVE",
"349 240 CURVE",
"349 209 LINE SMOOTH",
"349 156 OFFCURVE",
"316 125 OFFCURVE",
"261 125 CURVE SMOOTH",
"229 125 OFFCURVE",
"208 140 OFFCURVE",
"208 162 CURVE SMOOTH"
);
}
);
width = 567;
}
);
leftKerningGroup = a;
leftMetricsKey = o;
rightKerningGroup = a;
rightMetricsKey = n;
unicode = 0061;
},
{
color = 10;
glyphname = astroke;
lastChange = "2023-08-29 22:04:31 +0000";
layers = (
{
layerId = "FD4D3FDD-DE85-408F-A52A-FF600B1C6101";
paths = (
{
closed = 1;
nodes = (
"259 -13 OFFCURVE",
"325 23 OFFCURVE",
"357 78 CURVE",
"359 78 LINE",
"344 0 LINE",
"407 0 LINE",
"407 374 LINE SMOOTH",
"407 434 OFFCURVE",
"383 479 OFFCURVE",
"339 506 CURVE",
"358 558 LINE",
"317 558 LINE",
"304 521 LINE",
"282 528 OFFCURVE",
"257 532 OFFCURVE",
"230 532 CURVE SMOOTH",
"112 532 OFFCURVE",
"43 476 OFFCURVE",
"43 382 CURVE",
"91 382 LINE",
"91 450 OFFCURVE",
"143 490 OFFCURVE",
"230 490 CURVE SMOOTH",
"252 490 OFFCURVE",
"272 487 OFFCURVE",
"289 481 CURVE",
"217 284 LINE",
"99 255 OFFCURVE",
"30 211 OFFCURVE",
"30 132 CURVE SMOOTH",
"30 71 OFFCURVE",
"62 24 OFFCURVE",
"114 2 CURVE",
"95 -50 LINE",
"136 -50 LINE",
"151 -10 LINE",
"163 -12 OFFCURVE",
"176 -13 OFFCURVE",
"190 -13 CURVE SMOOTH"
);
},
{
closed = 1;
nodes = (
"78 183 OFFCURVE",
"122 213 OFFCURVE",
"199 235 CURVE",
"129 43 LINE",
"97 60 OFFCURVE",
"78 91 OFFCURVE",
"78 131 CURVE SMOOTH"
);
},
{
closed = 1;
nodes = (
"244 246 LINE",
"298 260 OFFCURVE",
"334 276 OFFCURVE",
"358 302 CURVE",
"358 212 LINE SMOOTH",
"358 102 OFFCURVE",
"291 29 OFFCURVE",
"190 29 CURVE SMOOTH",
"181 29 OFFCURVE",
"173 30 OFFCURVE",
"166 31 CURVE"
);
},
{
closed = 1;
nodes = (
"323 463 LINE",
"346 445 OFFCURVE",
"359 418 OFFCURVE",
"359 384 CURVE SMOOTH",
"359 338 OFFCURVE",
"322 312 OFFCURVE",
"262 295 CURVE"
);
}
);
width = 447;
},
{
layerId = m002;
paths = (
{
closed = 1;
nodes = (
"284 -13 OFFCURVE",
"334 7 OFFCURVE",
"357 40 CURVE",
"361 40 LINE",
"341 0 LINE",
"547 0 LINE",
"547 354 LINE SMOOTH",
"547 438 OFFCURVE",
"492 496 OFFCURVE",
"394 520 CURVE",
"408 558 LINE",
"362 558 LINE",
"351 528 LINE",
"329 531 OFFCURVE",
"305 532 OFFCURVE",
"280 532 CURVE SMOOTH",
"118 532 OFFCURVE",
"23 460 OFFCURVE",
"23 337 CURVE",
"221 337 LINE",
"221 373 OFFCURVE",
"247 395 OFFCURVE",
"291 395 CURVE SMOOTH",
"295 395 OFFCURVE",
"299 395 OFFCURVE",
"302 395 CURVE",
"272 313 LINE",
"148 288 OFFCURVE",
"10 267 OFFCURVE",
"10 141 CURVE SMOOTH",
"10 61 OFFCURVE",
"63 9 OFFCURVE",
"156 -8 CURVE",
"140 -50 LINE",
"186 -50 LINE",
"200 -12 LINE",
"206 -13 OFFCURVE",
"214 -13 OFFCURVE",
"222 -13 CURVE SMOOTH"
);
},
{
closed = 1;
nodes = (
"208 175 OFFCURVE",
"214 186 OFFCURVE",
"229 195 CURVE",
"212 147 LINE",
"209 151 OFFCURVE",
"208 156 OFFCURVE",
"208 162 CURVE SMOOTH"
);
},
{
closed = 1;
nodes = (
"281 211 LINE",
"314 220 OFFCURVE",
"332 227 OFFCURVE",
"349 240 CURVE",
"349 209 LINE SMOOTH",
"349 156 OFFCURVE",
"316 125 OFFCURVE",
"261 125 CURVE SMOOTH",
"257 125 OFFCURVE",
"254 125 OFFCURVE",
"250 126 CURVE"
);
},
{
closed = 1;
nodes = (
"342 378 LINE",
"347 373 OFFCURVE",
"349 367 OFFCURVE",
"349 360 CURVE SMOOTH",
"349 345 OFFCURVE",
"340 335 OFFCURVE",
"324 327 CURVE"
);
}
);
width = 567;
}
);
leftKerningGroup = a;
leftMetricsKey = a;
rightKerningGroup = a;
rightMetricsKey = a;
unicode = 2C65;
},
{
color = 10;
glyphname = ae;
lastChange = "2023-08-29 22:04:37 +0000";
layers = (
{
anchors = (
{
name = Top;
position = "{407, 532}";
}
);
layerId = "FD4D3FDD-DE85-408F-A52A-FF600B1C6101";
paths = (
{
closed = 1;
nodes = (
"259 -13 OFFCURVE",
"325 23 OFFCURVE",
"357 78 CURVE",
"359 78 LINE",
"344 0 LINE",
"407 0 LINE",
"407 106 LINE",
"445 32 OFFCURVE",
"513 -13 OFFCURVE",
"600 -13 CURVE SMOOTH",
"705 -13 OFFCURVE",
"788 56 OFFCURVE",
"807 159 CURVE",
"759 159 LINE",
"743 81 OFFCURVE",
"680 29 OFFCURVE",
"601 29 CURVE SMOOTH",
"494 29 OFFCURVE",
"423 119 OFFCURVE",
"423 255 CURVE",
"812 255 LINE",
"812 295 LINE SMOOTH",
"812 437 OFFCURVE",
"724 532 OFFCURVE",
"593 532 CURVE SMOOTH",
"507 532 OFFCURVE",
"441 485 OFFCURVE",
"405 405 CURVE",
"392 485 OFFCURVE",
"329 532 OFFCURVE",
"230 532 CURVE SMOOTH",
"112 532 OFFCURVE",
"43 476 OFFCURVE",
"43 382 CURVE",
"91 382 LINE",
"91 450 OFFCURVE",
"143 490 OFFCURVE",
"230 490 CURVE SMOOTH",
"311 490 OFFCURVE",
"359 450 OFFCURVE",
"359 383 CURVE SMOOTH",
"359 328 OFFCURVE",
"312 303 OFFCURVE",
"237 289 CURVE SMOOTH",
"107 265 OFFCURVE",
"30 215 OFFCURVE",
"30 132 CURVE SMOOTH",
"30 45 OFFCURVE",
"94 -13 OFFCURVE",
"190 -13 CURVE SMOOTH"
);
},
{
closed = 1;
nodes = (
"78 190 OFFCURVE",
"136 233 OFFCURVE",
"234 247 CURVE SMOOTH",
"294 255 OFFCURVE",
"340 271 OFFCURVE",
"358 301 CURVE",
"358 212 LINE SMOOTH",
"358 102 OFFCURVE",
"291 29 OFFCURVE",
"190 29 CURVE SMOOTH",
"123 29 OFFCURVE",
"78 70 OFFCURVE",
"78 131 CURVE SMOOTH"
);
},
{
closed = 1;
nodes = (
"437 414 OFFCURVE",
"501 490 OFFCURVE",
"594 490 CURVE SMOOTH",
"696 490 OFFCURVE",
"764 412 OFFCURVE",
"764 295 CURVE",
"425 295 LINE"
);
}
);
width = 842;
},
{
anchors = (
{
name = Top;
position = "{520, 532}";
}
);
layerId = m002;
paths = (
{
closed = 1;
nodes = (
"284 -13 OFFCURVE",
"334 7 OFFCURVE",
"357 40 CURVE",
"361 40 LINE",
"341 0 LINE",
"547 0 LINE",
"547 61 LINE",
"596 13 OFFCURVE",
"667 -13 OFFCURVE",
"757 -13 CURVE SMOOTH",
"911 -13 OFFCURVE",
"1017 57 OFFCURVE",
"1041 175 CURVE",
"843 175 LINE",
"835 143 OFFCURVE",
"805 124 OFFCURVE",
"761 124 CURVE SMOOTH",
"716 124 OFFCURVE",
"686 157 OFFCURVE",
"676 214 CURVE",
"1036 214 LINE",
"1036 243 LINE SMOOTH",
"1036 424 OFFCURVE",
"936 532 OFFCURVE",
"766 532 CURVE SMOOTH",
"658 532 OFFCURVE",
"576 497 OFFCURVE",
"527 433 CURVE",
"490 496 OFFCURVE",
"403 532 OFFCURVE",
"280 532 CURVE SMOOTH",
"118 532 OFFCURVE",
"23 460 OFFCURVE",
"23 337 CURVE",
"221 337 LINE",
"221 373 OFFCURVE",
"247 395 OFFCURVE",
"291 395 CURVE SMOOTH",
"327 395 OFFCURVE",
"349 382 OFFCURVE",
"349 360 CURVE SMOOTH",
"349 326 OFFCURVE",
"302 316 OFFCURVE",
"220 304 CURVE SMOOTH",
"93 285 OFFCURVE",
"10 229 OFFCURVE",
"10 141 CURVE SMOOTH",
"10 44 OFFCURVE",
"89 -13 OFFCURVE",
"222 -13 CURVE SMOOTH"
);
},
{
closed = 1;
nodes = (
"208 181 OFFCURVE",
"222 197 OFFCURVE",
"259 206 CURVE SMOOTH",
"306 217 OFFCURVE",
"329 224 OFFCURVE",
"349 240 CURVE",
"349 209 LINE SMOOTH",
"349 156 OFFCURVE",
"316 125 OFFCURVE",
"261 125 CURVE SMOOTH",
"229 125 OFFCURVE",
"208 140 OFFCURVE",
"208 162 CURVE SMOOTH"
);
},
{
closed = 1;
nodes = (
"694 369 OFFCURVE",
"723 395 OFFCURVE",
"763 395 CURVE SMOOTH",
"802 395 OFFCURVE",
"827 369 OFFCURVE",
"835 324 CURVE",
"680 324 LINE"
);
}
);
width = 1051;
}
);
leftKerningGroup = a;
leftMetricsKey = a;
rightKerningGroup = o;
rightMetricsKey = e;
unicode = 00E6;
},
{
glyphname = b;
lastChange = "2023-08-29 22:04:48 +0000";
layers = (
{
anchors = (
{
name = Top;
position = "{268, 532}";
}
);
layerId = "FD4D3FDD-DE85-408F-A52A-FF600B1C6101";
paths = (
{
closed = 1;
nodes = (
"394 -13 OFFCURVE",
"478 89 OFFCURVE",
"478 261 CURVE SMOOTH",
"478 431 OFFCURVE",
"400 532 OFFCURVE",
"268 532 CURVE SMOOTH",
"183 532 OFFCURVE",
"115 493 OFFCURVE",
"85 427 CURVE",
"83 427 LINE",
"88 520 LINE",
"88 736 LINE",
"40 736 LINE",
"40 0 LINE",
"103 0 LINE",
"88 78 LINE",
"90 78 LINE",
"117 21 OFFCURVE",
"178 -13 OFFCURVE",
"253 -13 CURVE SMOOTH"
);
},
{
closed = 1;
nodes = (
"88 405 OFFCURVE",
"153 490 OFFCURVE",
"262 490 CURVE SMOOTH",
"368 490 OFFCURVE",
"430 405 OFFCURVE",
"430 261 CURVE SMOOTH",
"430 115 OFFCURVE",
"364 29 OFFCURVE",
"253 29 CURVE SMOOTH",
"149 29 OFFCURVE",
"88 115 OFFCURVE",
"88 261 CURVE SMOOTH"
);
}
);
width = 508;
},
{
anchors = (
{
name = Top;
position = "{336, 532}";
}
);
layerId = m002;
paths = (
{
closed = 1;
nodes = (
"501 -13 OFFCURVE",
"598 89 OFFCURVE",
"598 261 CURVE SMOOTH",
"598 431 OFFCURVE",
"500 532 OFFCURVE",
"333 532 CURVE SMOOTH",
"287 532 OFFCURVE",
"243 519 OFFCURVE",
"215 497 CURVE",
"213 497 LINE",
"218 549 LINE",
"218 736 LINE",
"20 736 LINE",
"20 0 LINE",
"226 0 LINE",
"206 37 LINE",
"210 37 LINE",
"232 6 OFFCURVE",
"279 -13 OFFCURVE",
"337 -13 CURVE SMOOTH"
);
},
{
closed = 1;
nodes = (
"218 348 OFFCURVE",
"250 400 OFFCURVE",
"304 400 CURVE SMOOTH",
"358 400 OFFCURVE",
"390 348 OFFCURVE",
"390 261 CURVE SMOOTH",
"390 173 OFFCURVE",
"358 121 OFFCURVE",
"304 121 CURVE SMOOTH",
"250 121 OFFCURVE",
"218 173 OFFCURVE",
"218 261 CURVE SMOOTH"
);
}
);
width = 608;
}
);
leftKerningGroup = n;
leftMetricsKey = n;
rightKerningGroup = o;
rightMetricsKey = o;
unicode = 0062;
},
{
glyphname = c;
lastChange = "2023-08-29 22:04:51 +0000";
layers = (
{
anchors = (
{
name = Bottom;
position = "{246, 0}";
},
{
name = Top;
position = "{246, 532}";
}
);
layerId = "FD4D3FDD-DE85-408F-A52A-FF600B1C6101";
paths = (
{
closed = 1;
nodes = (
"386 155 LINE",
"376 79 OFFCURVE",
"320 29 OFFCURVE",
"246 29 CURVE SMOOTH",
"145 29 OFFCURVE",
"78 121 OFFCURVE",
"78 259 CURVE SMOOTH",
"78 398 OFFCURVE",
"145 490 OFFCURVE",
"246 490 CURVE SMOOTH",
"325 490 OFFCURVE",
"384 438 OFFCURVE",
"394 361 CURVE",
"442 361 LINE",
"431 464 OFFCURVE",
"353 532 OFFCURVE",
"246 532 CURVE SMOOTH",
"116 532 OFFCURVE",
"30 423 OFFCURVE",
"30 259 CURVE SMOOTH",
"30 96 OFFCURVE",
"116 -13 OFFCURVE",
"246 -13 CURVE SMOOTH",
"349 -13 OFFCURVE",
"424 54 OFFCURVE",
"434 155 CURVE"
);
}
);
width = 472;
},
{
anchors = (
{
name = Bottom;
position = "{286, 0}";
},
{
name = Top;
position = "{291, 532}";
}
);
layerId = m002;
paths = (
{
closed = 1;
nodes = (
"346 210 LINE",
"341 172 OFFCURVE",
"321 149 OFFCURVE",
"291 149 CURVE SMOOTH",
"245 149 OFFCURVE",
"218 190 OFFCURVE",
"218 259 CURVE SMOOTH",
"218 329 OFFCURVE",
"245 370 OFFCURVE",
"291 370 CURVE SMOOTH",
"326 370 OFFCURVE",
"349 346 OFFCURVE",
"354 306 CURVE",
"562 306 LINE",
"546 448 OFFCURVE",
"445 532 OFFCURVE",
"291 532 CURVE SMOOTH",
"114 532 OFFCURVE",
"10 431 OFFCURVE",
"10 259 CURVE SMOOTH",
"10 88 OFFCURVE",
"113 -13 OFFCURVE",
"286 -13 CURVE SMOOTH",
"439 -13 OFFCURVE",
"539 70 OFFCURVE",
"554 210 CURVE"
);
}
);
width = 572;
}
);
leftKerningGroup = o;
leftMetricsKey = o;
rightKerningGroup = c;
rightMetricsKey = o;
unicode = 0063;
},
{
color = 10;
glyphname = "chi-latin";
lastChange = "2023-08-29 22:05:04 +0000";
layers = (
{
layerId = "FD4D3FDD-DE85-408F-A52A-FF600B1C6101";
paths = (
{
closed = 1;
nodes = (
"352 153 LINE",
"551 520 LINE",
"496 520 LINE",
"326 207 LINE",
"237 394 LINE SMOOTH",
"193 487 OFFCURVE",
"143 532 OFFCURVE",
"68 532 CURVE SMOOTH",
"52 532 OFFCURVE",
"34 529 OFFCURVE",
"20 524 CURVE",
"20 476 LINE",
"31 482 OFFCURVE",
"53 485 OFFCURVE",
"72 485 CURVE SMOOTH",
"120 485 OFFCURVE",
"155 451 OFFCURVE",
"182 394 CURVE SMOOTH",
"297 153 LINE",
"97 -217 LINE",
"152 -217 LINE",
"323 98 LINE",
"415 -95 LINE SMOOTH",
"459 -187 OFFCURVE",
"504 -233 OFFCURVE",
"579 -233 CURVE SMOOTH",
"595 -233 OFFCURVE",
"613 -230 OFFCURVE",
"627 -225 CURVE",
"627 -177 LINE",
"616 -183 OFFCURVE",
"594 -186 OFFCURVE",
"575 -186 CURVE SMOOTH",
"527 -186 OFFCURVE",
"497 -152 OFFCURVE",
"470 -95 CURVE SMOOTH"
);
}
);
width = 647;
},
{
layerId = m002;
paths = (
{
closed = 1;
nodes = (
"470 156 LINE",
"697 520 LINE",
"471 520 LINE",
"349 323 LINE",
"320 363 LINE SMOOTH",
"247 464 OFFCURVE",
"196 532 OFFCURVE",
"86 532 CURVE SMOOTH",
"65 532 OFFCURVE",
"31 527 OFFCURVE",
"11 521 CURVE",
"10 361 LINE",
"23 364 OFFCURVE",
"38 365 OFFCURVE",
"55 365 CURVE SMOOTH",
"73 365 OFFCURVE",
"88 356 OFFCURVE",
"125 305 CURVE SMOOTH",
"239 147 LINE",
"12 -217 LINE",
"238 -217 LINE",
"360 -20 LINE",
"392 -64 LINE SMOOTH",
"465 -165 OFFCURVE",
"516 -233 OFFCURVE",
"626 -233 CURVE SMOOTH",
"647 -233 OFFCURVE",
"681 -228 OFFCURVE",
"701 -222 CURVE",
"701 -62 LINE",
"688 -65 OFFCURVE",
"674 -66 OFFCURVE",
"657 -66 CURVE SMOOTH",
"639 -66 OFFCURVE",
"624 -57 OFFCURVE",
"587 -6 CURVE SMOOTH"
);
}
);
width = 711;
}
);
leftKerningGroup = x;
leftMetricsKey = x;
rightKerningGroup = x;
rightMetricsKey = x;
unicode = AB53;
},
{
color = 10;
glyphname = cstroke;
lastChange = "2023-08-29 22:05:00 +0000";
layers = (
{
layerId = "FD4D3FDD-DE85-408F-A52A-FF600B1C6101";
paths = (
{
closed = 1;
nodes = (
"386 155 LINE",
"376 79 OFFCURVE",
"320 29 OFFCURVE",
"246 29 CURVE SMOOTH",
"225 29 OFFCURVE",
"206 33 OFFCURVE",
"189 40 CURVE",
"342 458 LINE",
"370 435 OFFCURVE",
"389 402 OFFCURVE",
"394 361 CURVE",
"442 361 LINE",
"435 423 OFFCURVE",
"404 472 OFFCURVE",
"357 502 CURVE",
"378 558 LINE",
"337 558 LINE",
"323 519 LINE",
"300 527 OFFCURVE",
"274 532 OFFCURVE",
"246 532 CURVE SMOOTH",
"116 532 OFFCURVE",
"30 423 OFFCURVE",
"30 259 CURVE SMOOTH",
"30 146 OFFCURVE",
"71 60 OFFCURVE",
"139 17 CURVE",
"115 -50 LINE",
"156 -50 LINE",
"174 -1 LINE",
"196 -9 OFFCURVE",
"220 -13 OFFCURVE",
"246 -13 CURVE SMOOTH",
"349 -13 OFFCURVE",
"424 54 OFFCURVE",
"434 155 CURVE"
);
},
{
closed = 1;
nodes = (
"78 398 OFFCURVE",
"145 490 OFFCURVE",
"246 490 CURVE SMOOTH",
"268 490 OFFCURVE",
"289 486 OFFCURVE",
"308 478 CURVE",
"155 60 LINE",
"107 98 OFFCURVE",
"78 169 OFFCURVE",
"78 259 CURVE SMOOTH"
);
}
);
width = 472;
},
{
layerId = m002;
paths = (
{
closed = 1;
nodes = (
"346 210 LINE",
"341 172 OFFCURVE",
"321 149 OFFCURVE",
"291 149 CURVE SMOOTH",
"284 149 OFFCURVE",
"278 150 OFFCURVE",
"272 152 CURVE",
"342 343 LINE",
"348 333 OFFCURVE",
"352 321 OFFCURVE",
"354 306 CURVE",
"562 306 LINE",
"550 410 OFFCURVE",
"494 482 OFFCURVE",
"404 514 CURVE",
"420 558 LINE",
"369 558 LINE",
"357 526 LINE",
"337 530 OFFCURVE",
"314 532 OFFCURVE",
"291 532 CURVE SMOOTH",
"114 532 OFFCURVE",
"10 431 OFFCURVE",
"10 259 CURVE SMOOTH",
"10 132 OFFCURVE",
"67 43 OFFCURVE",
"168 6 CURVE",
"147 -50 LINE",
"198 -50 LINE",
"214 -6 LINE",
"236 -11 OFFCURVE",
"260 -13 OFFCURVE",
"286 -13 CURVE SMOOTH",
"439 -13 OFFCURVE",
"539 70 OFFCURVE",
"554 210 CURVE"
);
},
{
closed = 1;
nodes = (
"218 329 OFFCURVE",
"245 370 OFFCURVE",
"291 370 CURVE SMOOTH",
"294 370 OFFCURVE",
"297 370 OFFCURVE",
"300 369 CURVE",
"233 185 LINE",
"223 204 OFFCURVE",
"218 229 OFFCURVE",
"218 259 CURVE SMOOTH"
);
}
);
width = 572;
}
);
leftKerningGroup = o;
leftMetricsKey = c;
rightKerningGroup = c;
rightMetricsKey = c;
unicode = 023C;
},
{
glyphname = d;
lastChange = "2023-08-29 22:05:08 +0000";
layers = (
{
anchors = (
{
name = Bottom;
position = "{254, 0}";
},
{
name = Top;
position = "{251, 532}";
},
{
name = Top_EC;
position = "{526, 532}";
}
);
layerId = "FD4D3FDD-DE85-408F-A52A-FF600B1C6101";
paths = (
{
closed = 1;
nodes = (
"330 -13 OFFCURVE",
"391 21 OFFCURVE",
"418 78 CURVE",
"420 78 LINE",
"405 0 LINE",
"468 0 LINE",
"468 736 LINE",
"420 736 LINE",
"420 520 LINE",
"425 427 LINE",
"423 427 LINE",
"393 493 OFFCURVE",
"325 532 OFFCURVE",
"240 532 CURVE SMOOTH",
"108 532 OFFCURVE",
"30 431 OFFCURVE",
"30 261 CURVE SMOOTH",
"30 89 OFFCURVE",
"114 -13 OFFCURVE",
"255 -13 CURVE SMOOTH"
);
},
{
closed = 1;
nodes = (
"78 405 OFFCURVE",
"140 490 OFFCURVE",
"246 490 CURVE SMOOTH",
"355 490 OFFCURVE",
"420 405 OFFCURVE",
"420 261 CURVE SMOOTH",
"420 115 OFFCURVE",
"359 29 OFFCURVE",
"255 29 CURVE SMOOTH",
"144 29 OFFCURVE",
"78 115 OFFCURVE",
"78 261 CURVE SMOOTH"
);
}
);
width = 508;
},
{
anchors = (
{
name = Bottom;
position = "{357, 0}";
},
{
name = Top;
position = "{332, 532}";
},
{
name = Top_EC;
position = "{682, 500}";
}
);
layerId = m002;
paths = (
{
closed = 1;
nodes = (
"329 -13 OFFCURVE",
"376 6 OFFCURVE",
"398 37 CURVE",
"402 37 LINE",
"382 0 LINE",
"588 0 LINE",
"588 736 LINE",
"390 736 LINE",
"390 549 LINE",
"395 497 LINE",
"393 497 LINE",
"365 519 OFFCURVE",
"321 532 OFFCURVE",
"275 532 CURVE SMOOTH",
"108 532 OFFCURVE",
"10 431 OFFCURVE",
"10 261 CURVE SMOOTH",
"10 89 OFFCURVE",
"107 -13 OFFCURVE",
"271 -13 CURVE SMOOTH"
);
},
{
closed = 1;
nodes = (
"218 348 OFFCURVE",
"250 400 OFFCURVE",
"304 400 CURVE SMOOTH",
"358 400 OFFCURVE",
"390 348 OFFCURVE",
"390 261 CURVE SMOOTH",
"390 173 OFFCURVE",
"358 121 OFFCURVE",
"304 121 CURVE SMOOTH",
"250 121 OFFCURVE",
"218 173 OFFCURVE",
"218 261 CURVE SMOOTH"
);
}
);
width = 608;
}
);
leftKerningGroup = o;
leftMetricsKey = o;
rightKerningGroup = n;
rightMetricsKey = n;
unicode = 0064;
},
{
color = 10;
glyphname = eth;
lastChange = "2023-08-29 22:05:13 +0000";
layers = (
{
layerId = "FD4D3FDD-DE85-408F-A52A-FF600B1C6101";
paths = (
{
closed = 1;
nodes = (
"378 -12 OFFCURVE",
"468 109 OFFCURVE",
"468 291 CURVE SMOOTH",
"468 430 OFFCURVE",
"399 560 OFFCURVE",
"285 649 CURVE",
"352 704 LINE",
"329 731 LINE",
"256 670 LINE",
"220 695 OFFCURVE",
"179 715 OFFCURVE",
"136 731 CURVE",
"108 695 LINE",
"147 682 OFFCURVE",
"185 663 OFFCURVE",
"220 640 CURVE",
"154 585 LINE",
"176 559 LINE",
"250 620 LINE",
"304 580 OFFCURVE",
"347 531 OFFCURVE",
"367 482 CURVE",
"365 481 LINE",
"340 509 OFFCURVE",
"288 532 OFFCURVE",
"244 532 CURVE SMOOTH",
"116 532 OFFCURVE",
"30 422 OFFCURVE",
"30 258 CURVE SMOOTH",
"30 96 OFFCURVE",
"116 -12 OFFCURVE",
"244 -12 CURVE SMOOTH"
);
},
{
closed = 1;
nodes = (
"78 398 OFFCURVE",
"144 490 OFFCURVE",
"244 490 CURVE SMOOTH",
"345 490 OFFCURVE",
"412 398 OFFCURVE",
"412 260 CURVE SMOOTH",
"412 122 OFFCURVE",
"345 30 OFFCURVE",
"244 30 CURVE SMOOTH",
"144 30 OFFCURVE",
"78 122 OFFCURVE",
"78 260 CURVE SMOOTH"
);
}
);
width = 498;
},
{
layerId = m002;
paths = (
{
closed = 1;
nodes = (
"438 -12 OFFCURVE",
"548 109 OFFCURVE",
"548 291 CURVE SMOOTH",
"548 437 OFFCURVE",
"468 574 OFFCURVE",
"337 668 CURVE",
"388 710 LINE",
"329 777 LINE",
"256 716 LINE",
"229 730 OFFCURVE",
"201 742 OFFCURVE",
"171 752 CURVE",
"90 647 LINE",
"109 640 OFFCURVE",
"128 633 OFFCURVE",
"146 625 CURVE",
"96 583 LINE",
"154 517 LINE",
"229 579 LINE",
"253 564 OFFCURVE",
"275 548 OFFCURVE",
"294 531 CURVE",
"293 530 LINE",
"287 531 OFFCURVE",
"281 532 OFFCURVE",
"274 532 CURVE SMOOTH",
"116 532 OFFCURVE",
"10 422 OFFCURVE",
"10 258 CURVE SMOOTH",
"10 96 OFFCURVE",
"116 -12 OFFCURVE",
"274 -12 CURVE SMOOTH"
);
},
{
closed = 1;
nodes = (
"178 326 OFFCURVE",
"216 370 OFFCURVE",
"274 370 CURVE SMOOTH",
"333 370 OFFCURVE",
"372 326 OFFCURVE",
"372 260 CURVE SMOOTH",
"372 194 OFFCURVE",
"333 150 OFFCURVE",
"274 150 CURVE SMOOTH",
"216 150 OFFCURVE",
"178 194 OFFCURVE",
"178 260 CURVE SMOOTH"
);
}
);
width = 558;
}
);
leftKerningGroup = o;
leftMetricsKey = d;
rightKerningGroup = o;
rightMetricsKey = o;
unicode = 00F0;
},
{
color = 10;
glyphname = dcroat;
lastChange = "2023-08-29 22:05:21 +0000";
layers = (
{
layerId = "FD4D3FDD-DE85-408F-A52A-FF600B1C6101";
paths = (
{
closed = 1;
nodes = (
"326 -13 OFFCURVE",
"390 27 OFFCURVE",
"420 90 CURVE",
"422 90 LINE",
"417 0 LINE",
"468 0 LINE",
"468 619 LINE",
"561 619 LINE",
"561 664 LINE",
"468 659 LINE",
"468 736 LINE",
"420 736 LINE",
"420 661 LINE",
"286 661 LINE",
"286 619 LINE",
"420 619 LINE",
"420 520 LINE",
"422 427 LINE",
"420 427 LINE",
"390 493 OFFCURVE",
"327 532 OFFCURVE",
"251 532 CURVE SMOOTH",
"112 532 OFFCURVE",
"30 431 OFFCURVE",
"30 261 CURVE SMOOTH",
"30 90 OFFCURVE",
"111 -13 OFFCURVE",
"247 -13 CURVE SMOOTH"
);
},
{
closed = 1;
nodes = (
"78 405 OFFCURVE",
"144 490 OFFCURVE",
"257 490 CURVE SMOOTH",
"359 490 OFFCURVE",
"420 405 OFFCURVE",
"420 261 CURVE SMOOTH",
"420 115 OFFCURVE",
"358 27 OFFCURVE",
"253 27 CURVE SMOOTH",
"143 27 OFFCURVE",
"78 115 OFFCURVE",
"78 261 CURVE SMOOTH"
);
}
);
width = 601;
},
{
layerId = m002;
paths = (
{
closed = 1;
nodes = (
"313 -13 OFFCURVE",
"368 8 OFFCURVE",
"390 40 CURVE",
"392 40 LINE",
"387 0 LINE",
"558 0 LINE",
"558 587 LINE",
"631 587 LINE",
"631 690 LINE",
"558 685 LINE",
"558 736 LINE",
"390 736 LINE",
"390 687 LINE",
"286 687 LINE",
"286 587 LINE",
"390 587 LINE",
"390 520 LINE",
"392 477 LINE",
"390 477 LINE",
"365 510 OFFCURVE",
"313 532 OFFCURVE",
"260 532 CURVE SMOOTH",
"110 532 OFFCURVE",
"10 424 OFFCURVE",
"10 261 CURVE SMOOTH",
"10 97 OFFCURVE",
"107 -13 OFFCURVE",
"252 -13 CURVE SMOOTH"
);
},
{
closed = 1;
nodes = (
"198 326 OFFCURVE",
"238 370 OFFCURVE",
"297 370 CURVE SMOOTH",
"353 370 OFFCURVE",
"390 326 OFFCURVE",
"390 261 CURVE SMOOTH",
"390 195 OFFCURVE",
"351 151 OFFCURVE",
"293 151 CURVE SMOOTH",
"236 151 OFFCURVE",
"198 195 OFFCURVE",
"198 261 CURVE SMOOTH"
);
}
);
width = 651;
}
);
leftKerningGroup = o;
leftMetricsKey = o;
rightKerningGroup = n;
rightMetricsKey = n;
unicode = 0111;
},
{
glyphname = e;
lastChange = "2023-09-01 23:37:13 +0000";
layers = (
{
anchors = (
{
name = Bottom;
position = "{256, 0}";
},
{
name = Top;
position = "{248, 532}";
}
);
layerId = "FD4D3FDD-DE85-408F-A52A-FF600B1C6101";
paths = (
{
closed = 1;
nodes = (
"414 159 LINE",
"397 77 OFFCURVE",
"338 29 OFFCURVE",
"256 29 CURVE SMOOTH",
"146 29 OFFCURVE",
"80 113 OFFCURVE",
"78 256 CURVE",
"467 256 LINE",
"467 298 LINE SMOOTH",
"467 445 OFFCURVE",
"386 532 OFFCURVE",
"248 532 CURVE SMOOTH",
"111 532 OFFCURVE",
"30 432 OFFCURVE",
"30 263 CURVE SMOOTH",
"30 90 OFFCURVE",
"114 -13 OFFCURVE",
"255 -13 CURVE SMOOTH",
"365 -13 OFFCURVE",
"442 51 OFFCURVE",
"462 159 CURVE"
);
},
{
closed = 1;
nodes = (
"91 420 OFFCURVE",
"152 490 OFFCURVE",
"249 490 CURVE SMOOTH",
"356 490 OFFCURVE",
"419 419 OFFCURVE",
"419 298 CURVE",
"80 298 LINE"
);
}
);
width = 497;
},
{
anchors = (
{
name = Bottom;
position = "{302, 0}";
},
{
name = Top;
position = "{302, 532}";
}
);
layerId = m002;
paths = (
{
closed = 1;
nodes = (
"379 175 LINE",
"371 143 OFFCURVE",
"344 124 OFFCURVE",
"307 124 CURVE SMOOTH",
"264 124 OFFCURVE",
"236 157 OFFCURVE",
"226 214 CURVE",
"572 214 LINE",
"572 243 LINE SMOOTH",
"572 424 OFFCURVE",
"472 532 OFFCURVE",
"302 532 CURVE SMOOTH",
"118 532 OFFCURVE",
"10 431 OFFCURVE",
"10 259 CURVE SMOOTH",
"10 88 OFFCURVE",
"115 -13 OFFCURVE",
"293 -13 CURVE SMOOTH",
"447 -13 OFFCURVE",
"553 57 OFFCURVE",
"577 175 CURVE"
);
},
{
closed = 1;
nodes = (
"241 369 OFFCURVE",
"265 395 OFFCURVE",
"299 395 CURVE SMOOTH",
"333 395 OFFCURVE",
"355 369 OFFCURVE",
"362 324 CURVE",
"230 324 LINE"
);
}
);
width = 587;
}
);
leftKerningGroup = o;
leftMetricsKey = o;
rightKerningGroup = o;
rightMetricsKey = o;
unicode = 0065;
},
{
color = 10;
glyphname = eopen;
lastChange = "2023-08-29 22:06:38 +0000";
layers = (
{
layerId = "FD4D3FDD-DE85-408F-A52A-FF600B1C6101";
paths = (
{
closed = 1;
nodes = (
"78 209 OFFCURVE",
"126 250 OFFCURVE",
"208 250 CURVE SMOOTH",
"243 250 LINE",
"243 292 LINE",
"208 292 LINE SMOOTH",
"137 292 OFFCURVE",
"95 328 OFFCURVE",
"95 388 CURVE SMOOTH",
"95 452 OFFCURVE",
"137 490 OFFCURVE",
"208 490 CURVE SMOOTH",
"283 490 OFFCURVE",
"328 451 OFFCURVE",
"328 386 CURVE",
"376 386 LINE",
"376 478 OFFCURVE",
"314 532 OFFCURVE",
"208 532 CURVE SMOOTH",
"107 532 OFFCURVE",
"47 479 OFFCURVE",
"47 388 CURVE SMOOTH",
"47 330 OFFCURVE",
"74 287 OFFCURVE",
"119 272 CURVE",
"119 270 LINE",
"63 259 OFFCURVE",
"30 211 OFFCURVE",
"30 140 CURVE SMOOTH",
"30 44 OFFCURVE",
"95 -13 OFFCURVE",
"206 -13 CURVE SMOOTH",
"317 -13 OFFCURVE",
"382 43 OFFCURVE",
"382 138 CURVE",
"334 138 LINE",
"334 69 OFFCURVE",
"286 29 OFFCURVE",
"206 29 CURVE SMOOTH",
"126 29 OFFCURVE",
"78 70 OFFCURVE",
"78 140 CURVE SMOOTH"
);
}
);
width = 412;
},
{
layerId = m002;
paths = (
{
closed = 1;
nodes = (
"219 207 OFFCURVE",
"235 220 OFFCURVE",
"261 220 CURVE SMOOTH",
"286 220 LINE",
"286 316 LINE",
"261 316 LINE SMOOTH",
"246 316 OFFCURVE",
"237 326 OFFCURVE",
"237 342 CURVE SMOOTH",
"237 363 OFFCURVE",
"250 375 OFFCURVE",
"271 375 CURVE SMOOTH",
"294 375 OFFCURVE",
"308 359 OFFCURVE",
"308 331 CURVE",
"516 331 LINE",
"516 457 OFFCURVE",
"425 532 OFFCURVE",
"271 532 CURVE SMOOTH",
"119 532 OFFCURVE",
"29 470 OFFCURVE",
"29 364 CURVE SMOOTH",
"29 319 OFFCURVE",
"48 285 OFFCURVE",
"79 272 CURVE",
"79 270 LINE",
"36 256 OFFCURVE",
"10 218 OFFCURVE",
"10 169 CURVE SMOOTH",
"10 55 OFFCURVE",
"104 -13 OFFCURVE",
"264 -13 CURVE SMOOTH",
"432 -13 OFFCURVE",
"531 65 OFFCURVE",
"531 196 CURVE",
"323 196 LINE",
"323 163 OFFCURVE",
"301 144 OFFCURVE",
"264 144 CURVE SMOOTH",
"236 144 OFFCURVE",
"219 160 OFFCURVE",
"219 186 CURVE SMOOTH"
);
}
);
width = 541;
}
);
leftKerningGroup = o;
leftMetricsKey = o;
rightKerningGroup = o;
rightMetricsKey = o;
unicode = 025B;
},
{
color = 10;
glyphname = schwa;
lastChange = "2023-08-29 22:06:38 +0000";
layers = (
{
layerId = "FD4D3FDD-DE85-408F-A52A-FF600B1C6101";
paths = (
{
closed = 1;
nodes = (
"83 358 LINE",
"100 440 OFFCURVE",
"159 488 OFFCURVE",
"241 488 CURVE SMOOTH",
"347 488 OFFCURVE",
"409 405 OFFCURVE",
"409 263 CURVE",
"30 263 LINE",
"30 75 OFFCURVE",
"106 -13 OFFCURVE",
"234 -13 CURVE SMOOTH",
"374 -13 OFFCURVE",
"457 90 OFFCURVE",
"457 264 CURVE SMOOTH",
"457 431 OFFCURVE",
"377 530 OFFCURVE",
"242 530 CURVE SMOOTH",
"132 530 OFFCURVE",
"55 466 OFFCURVE",
"35 358 CURVE"
);
},
{
closed = 1;
nodes = (
"407 223 LINE",
"396 100 OFFCURVE",
"333 29 OFFCURVE",
"233 29 CURVE SMOOTH",
"136 29 OFFCURVE",
"78 101 OFFCURVE",
"78 223 CURVE"
);
}
);
width = 487;
},
{
layerId = m002;
paths = (
{
closed = 1;
nodes = (
"208 344 LINE",
"216 376 OFFCURVE",
"246 395 OFFCURVE",
"290 395 CURVE SMOOTH",
"335 395 OFFCURVE",
"365 362 OFFCURVE",
"375 305 CURVE",
"15 305 LINE",
"15 95 OFFCURVE",
"115 -13 OFFCURVE",
"285 -13 CURVE SMOOTH",
"469 -13 OFFCURVE",
"577 88 OFFCURVE",
"577 260 CURVE SMOOTH",
"577 431 OFFCURVE",
"472 532 OFFCURVE",
"294 532 CURVE SMOOTH",
"140 532 OFFCURVE",
"34 462 OFFCURVE",
"10 344 CURVE"
);
},
{
closed = 1;
nodes = (
"371 195 LINE",
"357 150 OFFCURVE",
"328 124 OFFCURVE",
"288 124 CURVE SMOOTH",
"249 124 OFFCURVE",
"224 150 OFFCURVE",
"216 195 CURVE"
);
}
);
width = 587;
}
);
leftKerningGroup = o;
leftMetricsKey = e;
rightKerningGroup = o;
rightMetricsKey = e;
unicode = 0259;
},
{
color = 10;
glyphname = ezh;
lastChange = "2023-08-29 22:06:42 +0000";
layers = (
{
anchors = (
{
name = Top;
position = "{260, 520}";
}
);
layerId = "FD4D3FDD-DE85-408F-A52A-FF600B1C6101";
paths = (
{
closed = 1;
nodes = (
"52 478 LINE",
"406 478 LINE",
"235 275 LINE",
"235 233 LINE",
"270 233 LINE SMOOTH",
"371 233 OFFCURVE",
"438 161 OFFCURVE",
"438 52 CURVE SMOOTH",
"438 -58 OFFCURVE",
"368 -132 OFFCURVE",
"262 -132 CURVE SMOOTH",
"152 -132 OFFCURVE",
"78 -61 OFFCURVE",
"78 45 CURVE",
"30 45 LINE",
"30 -86 OFFCURVE",
"123 -174 OFFCURVE",
"262 -174 CURVE SMOOTH",
"396 -174 OFFCURVE",
"486 -84 OFFCURVE",
"486 52 CURVE SMOOTH",
"486 180 OFFCURVE",
"407 267 OFFCURVE",
"287 275 CURVE",
"459 478 LINE",
"459 520 LINE",
"52 520 LINE"
);
}
);
width = 516;
},
{
anchors = (
{
name = Top;
position = "{292, 520}";
}
);
layerId = m002;
paths = (
{
closed = 1;
nodes = (
"32 370 LINE",
"322 370 LINE",
"245 285 LINE",
"245 135 LINE",
"292 135 LINE SMOOTH",
"333 135 OFFCURVE",
"358 108 OFFCURVE",
"358 61 CURVE SMOOTH",
"358 15 OFFCURVE",
"333 -12 OFFCURVE",
"292 -12 CURVE SMOOTH",
"245 -12 OFFCURVE",
"218 17 OFFCURVE",
"218 65 CURVE",
"10 65 LINE",
"10 -85 OFFCURVE",
"115 -174 OFFCURVE",
"292 -174 CURVE SMOOTH",
"464 -174 OFFCURVE",
"566 -89 OFFCURVE",
"566 55 CURVE SMOOTH",
"566 155 OFFCURVE",
"517 227 OFFCURVE",
"430 261 CURVE",
"539 370 LINE",
"539 520 LINE",
"32 520 LINE"
);
}
);
width = 576;
}
);
leftKerningGroup = o;
leftMetricsKey = o;
rightKerningGroup = o;
rightMetricsKey = o;
unicode = 0292;
},
{
glyphname = f;
lastChange = "2023-08-29 22:06:48 +0000";
layers = (
{
layerId = "FD4D3FDD-DE85-408F-A52A-FF600B1C6101";
paths = (
{
closed = 1;
nodes = (
"133 518 LINE",
"40 523 LINE",
"40 478 LINE",
"133 478 LINE",
"133 0 LINE",
"181 0 LINE",
"181 478 LINE",
"305 478 LINE",
"305 520 LINE",
"181 520 LINE",
"181 575 LINE SMOOTH",
"181 654 OFFCURVE",
"215 695 OFFCURVE",
"280 695 CURVE SMOOTH",
"301 695 OFFCURVE",
"322 690 OFFCURVE",
"339 681 CURVE",
"339 723 LINE",
"321 731 OFFCURVE",
"298 736 OFFCURVE",
"277 736 CURVE SMOOTH",
"182 736 OFFCURVE",
"133 680 OFFCURVE",
"133 572 CURVE SMOOTH"
);
}
);
width = 349;
},
{
layerId = m002;
paths = (
{
closed = 1;
nodes = (
"93 518 LINE",
"20 523 LINE",
"20 370 LINE",
"93 370 LINE",
"93 0 LINE",
"291 0 LINE",
"291 370 LINE",
"395 370 LINE",
"395 520 LINE",
"291 520 LINE",
"291 532 LINE SMOOTH",
"291 562 OFFCURVE",
"310 577 OFFCURVE",
"345 577 CURVE SMOOTH",
"361 577 OFFCURVE",
"387 571 OFFCURVE",
"409 563 CURVE",
"409 723 LINE",
"391 731 OFFCURVE",
"362 736 OFFCURVE",
"335 736 CURVE SMOOTH",
"176 736 OFFCURVE",
"93 673 OFFCURVE",
"93 552 CURVE SMOOTH"
);
}
);
width = 419;
}
);
leftKerningGroup = f;
leftMetricsKey = n;
rightKerningGroup = f;
unicode = 0066;
},
{
glyphname = g;
lastChange = "2023-08-29 22:06:51 +0000";
layers = (
{
anchors = (
{
name = Top;
position = "{251, 531}";
}
);
layerId = "FD4D3FDD-DE85-408F-A52A-FF600B1C6101";
paths = (
{
closed = 1;
nodes = (
"459 520 LINE",
"396 520 LINE",
"411 442 LINE",
"409 442 LINE",
"376 499 OFFCURVE",
"318 532 OFFCURVE",
"251 532 CURVE SMOOTH",
"112 532 OFFCURVE",
"30 431 OFFCURVE",
"30 260 CURVE SMOOTH",
"30 88 OFFCURVE",
"114 -13 OFFCURVE",
"257 -13 CURVE SMOOTH",
"322 -13 OFFCURVE",
"381 26 OFFCURVE",
"414 93 CURVE",
"416 93 LINE",
"411 -22 LINE SMOOTH",
"406 -128 OFFCURVE",
"348 -191 OFFCURVE",
"255 -191 CURVE SMOOTH",
"171 -191 OFFCURVE",
"112 -143 OFFCURVE",
"95 -61 CURVE",
"47 -61 LINE",
"67 -169 OFFCURVE",
"144 -233 OFFCURVE",
"254 -233 CURVE SMOOTH",
"383 -233 OFFCURVE",
"459 -151 OFFCURVE",
"459 -11 CURVE SMOOTH"
);
},
{
closed = 1;
nodes = (
"78 405 OFFCURVE",
"143 490 OFFCURVE",
"252 490 CURVE SMOOTH",
"351 490 OFFCURVE",
"410 405 OFFCURVE",
"410 260 CURVE SMOOTH",
"410 115 OFFCURVE",
"351 29 OFFCURVE",
"252 29 CURVE SMOOTH",
"143 29 OFFCURVE",
"78 115 OFFCURVE",
"78 260 CURVE SMOOTH"
);
}
);
width = 499;
},
{
anchors = (
{
name = Top;
position = "{322, 532}";
}
);
layerId = m002;
paths = (
{
closed = 1;
nodes = (
"599 520 LINE",
"393 520 LINE",
"413 480 LINE",
"409 480 LINE",
"383 513 OFFCURVE",
"334 532 OFFCURVE",
"277 532 CURVE SMOOTH",
"109 532 OFFCURVE",
"10 431 OFFCURVE",
"10 260 CURVE SMOOTH",
"10 88 OFFCURVE",
"112 -13 OFFCURVE",
"285 -13 CURVE SMOOTH",
"339 -13 OFFCURVE",
"387 7 OFFCURVE",
"414 42 CURVE",
"416 42 LINE",
"416 -10 LINE SMOOTH",
"416 -64 OFFCURVE",
"383 -96 OFFCURVE",
"327 -96 CURVE SMOOTH",
"265 -96 OFFCURVE",
"229 -67 OFFCURVE",
"229 -19 CURVE",
"31 -19 LINE",
"31 -154 OFFCURVE",
"139 -233 OFFCURVE",
"322 -233 CURVE SMOOTH",
"496 -233 OFFCURVE",
"599 -151 OFFCURVE",
"599 -13 CURVE SMOOTH"
);
},
{
closed = 1;
nodes = (
"218 335 OFFCURVE",
"255 379 OFFCURVE",
"317 379 CURVE SMOOTH",
"369 379 OFFCURVE",
"400 335 OFFCURVE",
"400 260 CURVE SMOOTH",
"400 184 OFFCURVE",
"369 139 OFFCURVE",
"317 139 CURVE SMOOTH",
"255 139 OFFCURVE",
"218 184 OFFCURVE",
"218 260 CURVE SMOOTH"
);
}
);
width = 619;
}
);
leftKerningGroup = o;
leftMetricsKey = o;
rightKerningGroup = g;
rightMetricsKey = n;
unicode = 0067;
},
{
color = 10;
glyphname = "gamma-latin";
lastChange = "2023-08-29 22:06:56 +0000";
layers = (
{
layerId = "FD4D3FDD-DE85-408F-A52A-FF600B1C6101";
paths = (
{
closed = 1;
nodes = (
"337 -217 OFFCURVE",
"391 -162 OFFCURVE",
"391 -79 CURVE SMOOTH",
"391 -17 OFFCURVE",
"353 37 OFFCURVE",
"321 91 CURVE SMOOTH",
"281 159 LINE",
"490 520 LINE",
"439 520 LINE",
"255 204 LINE",
"71 520 LINE",
"20 520 LINE",
"229 159 LINE",
"189 91 LINE SMOOTH",
"157 37 OFFCURVE",
"119 -17 OFFCURVE",
"119 -79 CURVE SMOOTH",
"119 -162 OFFCURVE",
"173 -217 OFFCURVE",
"255 -217 CURVE SMOOTH"
);
},
{
closed = 1;
nodes = (
"167 -19 OFFCURVE",
"209 34 OFFCURVE",
"240 88 CURVE SMOOTH",
"255 114 LINE",
"270 88 LINE SMOOTH",
"301 34 OFFCURVE",
"343 -19 OFFCURVE",
"343 -79 CURVE SMOOTH",
"343 -137 OFFCURVE",
"308 -175 OFFCURVE",
"255 -175 CURVE SMOOTH",
"202 -175 OFFCURVE",
"167 -137 OFFCURVE",
"167 -79 CURVE SMOOTH"
);
}
);
width = 510;
},
{
layerId = m002;
paths = (
{
closed = 1;
nodes = (
"438 -217 OFFCURVE",
"536 -132 OFFCURVE",
"536 13 CURVE SMOOTH",
"536 55 OFFCURVE",
"516 106 OFFCURVE",
"485 153 CURVE SMOOTH",
"387 301 LINE",
"525 520 LINE",
"304 520 LINE",
"273 473 LINE",
"242 520 LINE",
"21 520 LINE",
"159 301 LINE",
"61 153 LINE SMOOTH",
"30 106 OFFCURVE",
"10 55 OFFCURVE",
"10 13 CURVE SMOOTH",
"10 -132 OFFCURVE",
"108 -217 OFFCURVE",
"273 -217 CURVE SMOOTH"
);
},
{
closed = 1;
nodes = (
"218 22 OFFCURVE",
"231 53 OFFCURVE",
"254 88 CURVE SMOOTH",
"273 118 LINE",
"292 88 LINE SMOOTH",
"315 53 OFFCURVE",
"328 22 OFFCURVE",
"328 4 CURVE SMOOTH",
"328 -29 OFFCURVE",
"308 -49 OFFCURVE",
"273 -49 CURVE SMOOTH",
"238 -49 OFFCURVE",
"218 -29 OFFCURVE",
"218 4 CURVE SMOOTH"
);
}
);
width = 546;
}
);
leftKerningGroup = v;
leftMetricsKey = v;
rightKerningGroup = v;
rightMetricsKey = v;
unicode = 0263;
},
{
color = 10;
glyphname = glottalstop;
lastChange = "2023-08-29 22:07:34 +0000";
layers = (
{
layerId = "FD4D3FDD-DE85-408F-A52A-FF600B1C6101";
paths = (
{
closed = 1;
nodes = (
"428 315 OFFCURVE",
"175 340 OFFCURVE",
"175 0 CURVE",
"223 0 LINE",
"223 315 OFFCURVE",
"476 285 OFFCURVE",
"476 521 CURVE SMOOTH",
"476 650 OFFCURVE",
"395 726 OFFCURVE",
"258 726 CURVE",
"258 684 LINE",
"365 684 OFFCURVE",
"428 623 OFFCURVE",
"428 521 CURVE SMOOTH"
);
},
{
closed = 1;
nodes = (
"30 649 OFFCURVE",
"115 726 OFFCURVE",
"258 726 CURVE",
"258 684 LINE",
"145 684 OFFCURVE",
"78 623 OFFCURVE",
"78 520 CURVE",
"30 520 LINE"
);
}
);
width = 506;
},
{
layerId = m002;
paths = (
{
closed = 1;
nodes = (
"394 303 OFFCURVE",
"119 321 OFFCURVE",
"119 0 CURVE",
"317 0 LINE",
"317 258 OFFCURVE",
"602 216 OFFCURVE",
"602 475 CURVE SMOOTH",
"602 633 OFFCURVE",
"492 726 OFFCURVE",
"306 726 CURVE",
"306 568 LINE",
"361 568 OFFCURVE",
"394 533 OFFCURVE",
"394 475 CURVE SMOOTH"
);
},
{
closed = 1;
nodes = (
"10 629 OFFCURVE",
"120 726 OFFCURVE",
"306 726 CURVE",
"306 568 LINE",
"251 568 OFFCURVE",
"218 530 OFFCURVE",
"218 465 CURVE",
"10 465 LINE"
);
}
);
width = 612;
}
);
leftKerningGroup = o;
leftMetricsKey = o;
rightKerningGroup = p;
rightMetricsKey = o;
unicode = 0294;
},
{
color = 10;
glyphname = glottalstopreversed;
lastChange = "2023-08-29 22:07:34 +0000";
layers = (
{
layerId = "FD4D3FDD-DE85-408F-A52A-FF600B1C6101";
paths = (
{
closed = 1;
nodes = (
"78 623 OFFCURVE",
"141 684 OFFCURVE",
"248 684 CURVE",
"248 726 LINE",
"111 726 OFFCURVE",
"30 650 OFFCURVE",
"30 521 CURVE SMOOTH",
"30 285 OFFCURVE",
"283 315 OFFCURVE",
"283 0 CURVE",
"331 0 LINE",
"331 340 OFFCURVE",
"78 315 OFFCURVE",
"78 521 CURVE SMOOTH"
);
},
{
closed = 1;
nodes = (
"248 726 LINE",
"391 726 OFFCURVE",
"476 649 OFFCURVE",
"476 520 CURVE",
"428 520 LINE",
"428 623 OFFCURVE",
"361 684 OFFCURVE",
"248 684 CURVE"
);
}
);
width = 506;
},
{
layerId = m002;
paths = (
{
closed = 1;
nodes = (
"218 533 OFFCURVE",
"251 568 OFFCURVE",
"306 568 CURVE",
"306 726 LINE",
"120 726 OFFCURVE",
"10 633 OFFCURVE",
"10 475 CURVE SMOOTH",
"10 216 OFFCURVE",
"295 258 OFFCURVE",
"295 0 CURVE",
"493 0 LINE",
"493 321 OFFCURVE",
"218 303 OFFCURVE",
"218 475 CURVE SMOOTH"
);
},
{
closed = 1;
nodes = (
"306 726 LINE",
"492 726 OFFCURVE",
"602 629 OFFCURVE",
"602 465 CURVE",
"394 465 LINE",
"394 530 OFFCURVE",
"361 568 OFFCURVE",
"306 568 CURVE"
);
}
);
width = 612;
}
);
leftKerningGroup = o;
leftMetricsKey = o;
rightKerningGroup = o;
rightMetricsKey = o;
unicode = 0295;
},
{
color = 10;
glyphname = gstroke;
lastChange = "2023-08-29 22:07:17 +0000";
layers = (
{
layerId = "FD4D3FDD-DE85-408F-A52A-FF600B1C6101";
paths = (
{
closed = 1;
nodes = (
"459 238 LINE",
"535 238 LINE",
"535 280 LINE",
"459 280 LINE",
"459 520 LINE",
"396 520 LINE",
"411 442 LINE",
"409 442 LINE",
"376 499 OFFCURVE",
"318 532 OFFCURVE",
"251 532 CURVE SMOOTH",
"112 532 OFFCURVE",
"30 431 OFFCURVE",
"30 260 CURVE SMOOTH",
"30 88 OFFCURVE",
"114 -13 OFFCURVE",
"257 -13 CURVE SMOOTH",
"322 -13 OFFCURVE",
"381 26 OFFCURVE",
"414 93 CURVE",
"416 93 LINE",
"411 -22 LINE SMOOTH",
"406 -128 OFFCURVE",
"348 -191 OFFCURVE",
"255 -191 CURVE SMOOTH",
"171 -191 OFFCURVE",
"112 -143 OFFCURVE",
"95 -61 CURVE",
"47 -61 LINE",
"67 -169 OFFCURVE",
"144 -233 OFFCURVE",
"254 -233 CURVE SMOOTH",
"383 -233 OFFCURVE",
"459 -151 OFFCURVE",
"459 -11 CURVE SMOOTH"
);
},
{
closed = 1;
nodes = (
"78 405 OFFCURVE",
"143 490 OFFCURVE",
"252 490 CURVE SMOOTH",
"347 490 OFFCURVE",
"405 412 OFFCURVE",
"410 278 CURVE",
"335 283 LINE",
"335 238 LINE",
"410 238 LINE",
"404 106 OFFCURVE",
"346 29 OFFCURVE",
"252 29 CURVE SMOOTH",
"143 29 OFFCURVE",
"78 115 OFFCURVE",
"78 260 CURVE SMOOTH"
);
}
);
width = 575;
},
{
layerId = m002;
paths = (
{
closed = 1;
nodes = (
"599 199 LINE",
"669 199 LINE",
"669 319 LINE",
"599 319 LINE",
"599 520 LINE",
"393 520 LINE",
"413 480 LINE",
"409 480 LINE",
"383 513 OFFCURVE",
"334 532 OFFCURVE",
"277 532 CURVE SMOOTH",
"109 532 OFFCURVE",
"10 431 OFFCURVE",
"10 260 CURVE SMOOTH",
"10 88 OFFCURVE",
"112 -13 OFFCURVE",
"285 -13 CURVE SMOOTH",
"339 -13 OFFCURVE",
"387 7 OFFCURVE",
"414 42 CURVE",
"416 42 LINE",
"416 -10 LINE SMOOTH",
"416 -64 OFFCURVE",
"383 -96 OFFCURVE",
"327 -96 CURVE SMOOTH",
"265 -96 OFFCURVE",
"229 -67 OFFCURVE",
"229 -19 CURVE",
"31 -19 LINE",
"31 -154 OFFCURVE",
"139 -233 OFFCURVE",
"322 -233 CURVE SMOOTH",
"496 -233 OFFCURVE",
"599 -151 OFFCURVE",
"599 -13 CURVE SMOOTH"
);
},
{
closed = 1;
nodes = (
"218 335 OFFCURVE",
"255 379 OFFCURVE",
"317 379 CURVE SMOOTH",
"354 379 OFFCURVE",
"380 357 OFFCURVE",
"392 317 CURVE",
"305 322 LINE",
"305 199 LINE",
"391 199 LINE",
"379 161 OFFCURVE",
"353 139 OFFCURVE",
"317 139 CURVE SMOOTH",
"255 139 OFFCURVE",
"218 184 OFFCURVE",
"218 260 CURVE SMOOTH"
);
}
);
width = 689;
}
);
leftKerningGroup = o;
leftMetricsKey = g;
rightKerningGroup = g;
rightMetricsKey = g;
unicode = 01E5;
},
{
glyphname = h;
lastChange = "2023-09-01 23:19:30 +0000";
layers = (
{
anchors = (
{
name = Bottom;
position = "{235, 0}";
},
{
name = Top;
position = "{64, 736}";
}
);
layerId = "FD4D3FDD-DE85-408F-A52A-FF600B1C6101";
paths = (
{
closed = 1;
nodes = (
"40 736 LINE",
"40 0 LINE",
"88 0 LINE",
"88 280 LINE SMOOTH",
"88 412 OFFCURVE",
"146 490 OFFCURVE",
"245 490 CURVE SMOOTH",
"330 490 OFFCURVE",
"381 430 OFFCURVE",
"381 328 CURVE SMOOTH",
"381 0 LINE",
"429 0 LINE",
"429 333 LINE SMOOTH",
"429 458 OFFCURVE",
"363 532 OFFCURVE",
"250 532 CURVE SMOOTH",
"173 532 OFFCURVE",
"112 493 OFFCURVE",
"85 427 CURVE",
"83 427 LINE",
"93 520 LINE",
"93 736 LINE"
);
}
);
width = 469;
},
{
anchors = (
{
name = Bottom;
position = "{287, 0}";
},
{
name = Top;
position = "{115, 736}";
}
);
layerId = m002;
paths = (
{
closed = 1;
nodes = (
"20 736 LINE",
"20 0 LINE",
"218 0 LINE",
"218 276 LINE SMOOTH",
"218 335 OFFCURVE",
"244 370 OFFCURVE",
"287 370 CURVE SMOOTH",
"330 370 OFFCURVE",
"355 340 OFFCURVE",
"355 288 CURVE SMOOTH",
"355 0 LINE",
"553 0 LINE",
"553 333 LINE SMOOTH",
"553 458 OFFCURVE",
"479 532 OFFCURVE",
"353 532 CURVE SMOOTH",
"291 532 OFFCURVE",
"241 512 OFFCURVE",
"215 477 CURVE",
"211 477 LINE",
"218 549 LINE",
"218 736 LINE"
);
}
);
width = 573;
}
);
leftKerningGroup = h;
leftMetricsKey = n;
rightKerningGroup = n;
rightMetricsKey = n;
unicode = 0068;
},
{
color = 10;
glyphname = hbar;
lastChange = "2023-09-05 19:34:12 +0000";
layers = (
{
layerId = "FD4D3FDD-DE85-408F-A52A-FF600B1C6101";
paths = (
{
closed = 1;
nodes = (
"133 736 LINE",
"133 659 LINE",
"40 664 LINE",
"40 619 LINE",
"133 619 LINE",
"133 0 LINE",
"181 0 LINE",
"181 280 LINE SMOOTH",
"181 412 OFFCURVE",
"239 490 OFFCURVE",
"338 490 CURVE SMOOTH",
"423 490 OFFCURVE",
"474 430 OFFCURVE",
"474 328 CURVE SMOOTH",
"474 0 LINE",
"522 0 LINE",
"522 333 LINE SMOOTH",
"522 458 OFFCURVE",
"456 532 OFFCURVE",
"343 532 CURVE SMOOTH",
"266 532 OFFCURVE",
"205 493 OFFCURVE",
"178 427 CURVE",
"176 427 LINE",
"186 520 LINE",
"186 619 LINE",
"315 619 LINE",
"315 661 LINE",
"186 661 LINE",
"186 736 LINE"
);
}
);
width = 562;
},
{
layerId = m002;
paths = (
{
closed = 1;
nodes = (
"96 736 LINE",
"96 685 LINE",
"20 690 LINE",
"20 587 LINE",
"96 587 LINE",
"96 0 LINE",
"294 0 LINE",
"294 276 LINE SMOOTH",
"294 335 OFFCURVE",
"320 370 OFFCURVE",
"363 370 CURVE SMOOTH",
"406 370 OFFCURVE",
"431 340 OFFCURVE",
"431 288 CURVE SMOOTH",
"431 0 LINE",
"629 0 LINE",
"629 333 LINE SMOOTH",
"629 458 OFFCURVE",
"555 532 OFFCURVE",
"429 532 CURVE SMOOTH",
"367 532 OFFCURVE",
"317 512 OFFCURVE",
"291 477 CURVE",
"287 477 LINE",
"294 549 LINE",
"294 587 LINE",
"365 587 LINE",
"365 687 LINE",
"294 687 LINE",
"294 736 LINE"
);
}
);
width = 649;
}
);
leftKerningGroup = hbar;
leftMetricsKey = n;
rightKerningGroup = n;
rightMetricsKey = n;
unicode = 0127;
},
{
color = 10;
glyphname = idotless;
lastChange = "2023-08-29 22:19:03 +0000";
layers = (
{
anchors = (
{
name = Bottom;
position = "{64, 0}";
},
{
name = Top;
position = "{64, 520}";
}
);
layerId = "FD4D3FDD-DE85-408F-A52A-FF600B1C6101";
paths = (
{
closed = 1;
nodes = (
"40 520 LINE",
"40 0 LINE",
"88 0 LINE",
"88 520 LINE"
);
}
);
width = 128;
},
{
anchors = (
{
name = Bottom;
position = "{119, 0}";
},
{
name = Top;
position = "{119, 520}";
}
);
layerId = m002;
paths = (
{
closed = 1;
nodes = (
"20 520 LINE",
"20 0 LINE",
"218 0 LINE",
"218 520 LINE"
);
}
);
width = 238;
}
);
leftKerningGroup = i;
leftMetricsKey = n;
rightKerningGroup = i;
rightMetricsKey = n;
unicode = 0131;
},
{
color = 10;
glyphname = ij;
lastChange = "2023-09-06 16:01:49 +0000";
layers = (
{
layerId = "FD4D3FDD-DE85-408F-A52A-FF600B1C6101";
paths = (
{
closed = 1;
nodes = (
"61 -176 OFFCURVE",
"136 -233 OFFCURVE",
"242 -233 CURVE SMOOTH",
"371 -233 OFFCURVE",
"447 -151 OFFCURVE",
"447 -11 CURVE SMOOTH",
"447 520 LINE",
"399 520 LINE",
"399 207 LINE SMOOTH",
"399 95 OFFCURVE",
"341 29 OFFCURVE",
"243 29 CURVE SMOOTH",
"162 29 OFFCURVE",
"108 81 OFFCURVE",
"108 159 CURVE SMOOTH",
"108 520 LINE",
"60 520 LINE",
"60 147 LINE SMOOTH",
"60 51 OFFCURVE",
"136 -13 OFFCURVE",
"243 -13 CURVE SMOOTH",
"309 -13 OFFCURVE",
"371 23 OFFCURVE",
"397 78 CURVE",
"399 78 LINE",
"399 -22 LINE SMOOTH",
"399 -128 OFFCURVE",
"342 -191 OFFCURVE",
"246 -191 CURVE SMOOTH",
"163 -191 OFFCURVE",
"104 -149 OFFCURVE",
"88 -79 CURVE",
"40 -79 LINE"
);
},
{
closed = 1;
nodes = (
"108 567 LINE",
"108 649 LINE",
"60 649 LINE",
"60 567 LINE"
);
},
{
closed = 1;
nodes = (
"447 567 LINE",
"447 649 LINE",
"399 649 LINE",
"399 567 LINE"
);
}
);
width = 487;
},
{
layerId = m002;
paths = (
{
closed = 1;
nodes = (
"20 -174 OFFCURVE",
"109 -233 OFFCURVE",
"292 -233 CURVE SMOOTH",
"474 -233 OFFCURVE",
"581 -151 OFFCURVE",
"581 -13 CURVE SMOOTH",
"581 520 LINE",
"383 520 LINE",
"383 222 LINE SMOOTH",
"383 177 OFFCURVE",
"356 150 OFFCURVE",
"310 150 CURVE SMOOTH",
"265 150 OFFCURVE",
"239 177 OFFCURVE",
"239 222 CURVE SMOOTH",
"239 520 LINE",
"41 520 LINE",
"41 170 LINE SMOOTH",
"41 56 OFFCURVE",
"120 -12 OFFCURVE",
"255 -12 CURVE SMOOTH",
"310 -12 OFFCURVE",
"359 5 OFFCURVE",
"386 33 CURVE",
"389 33 LINE",
"386 -10 LINE SMOOTH",
"382 -64 OFFCURVE",
"349 -96 OFFCURVE",
"297 -96 CURVE SMOOTH",
"247 -96 OFFCURVE",
"218 -75 OFFCURVE",
"218 -39 CURVE",
"20 -39 LINE"
);
},
{
closed = 1;
nodes = (
"239 567 LINE",
"239 717 LINE",
"41 717 LINE",
"41 567 LINE"
);
},
{
closed = 1;
nodes = (
"581 567 LINE",
"581 717 LINE",
"383 717 LINE",
"383 567 LINE"
);
}
);
width = 601;
}
);
leftKerningGroup = ij;
leftMetricsKey = u;
rightKerningGroup = ij;
unicode = 0133;
},
{
color = 10;
glyphname = "iota-latin";
lastChange = "2023-09-06 15:47:01 +0000";
layers = (
{
layerId = "FD4D3FDD-DE85-408F-A52A-FF600B1C6101";
paths = (
{
closed = 1;
nodes = (
"40 27 OFFCURVE",
"79 -11 OFFCURVE",
"144 -11 CURVE SMOOTH",
"160 -11 OFFCURVE",
"176 -7 OFFCURVE",
"189 -1 CURVE",
"189 41 LINE",
"179 34 OFFCURVE",
"162 30 OFFCURVE",
"143 30 CURVE SMOOTH",
"108 30 OFFCURVE",
"88 53 OFFCURVE",
"88 91 CURVE SMOOTH",
"88 520 LINE",
"40 520 LINE",
"40 91 LINE SMOOTH"
);
}
);
width = 229;
},
{
layerId = m002;
paths = (
{
closed = 1;
nodes = (
"20 55 OFFCURVE",
"105 -13 OFFCURVE",
"250 -13 CURVE SMOOTH",
"276 -13 OFFCURVE",
"303 -8 OFFCURVE",
"321 0 CURVE",
"321 160 LINE",
"303 151 OFFCURVE",
"280 146 OFFCURVE",
"259 146 CURVE SMOOTH",
"233 146 OFFCURVE",
"218 163 OFFCURVE",
"218 191 CURVE SMOOTH",
"218 520 LINE",
"20 520 LINE",
"20 171 LINE SMOOTH"
);
}
);
width = 341;
}
);
leftKerningGroup = iota;
rightKerningGroup = iota;
rightMetricsKey = t;
unicode = 0269;
},
{
color = 10;
glyphname = istroke;
lastChange = "2023-09-06 16:01:00 +0000";
layers = (
{
components = (
{
name = idotless;
transform = "{1, 0, 0, 1, 76, 0}";
}
);
layerId = "FD4D3FDD-DE85-408F-A52A-FF600B1C6101";
paths = (
{
closed = 1;
nodes = (
"116 567 LINE",
"164 567 LINE",
"164 632 LINE",
"116 632 LINE"
);
},
{
closed = 1;
nodes = (
"240 251 LINE",
"240 293 LINE",
"161 293 LINE",
"119 291 LINE",
"40 296 LINE",
"40 251 LINE"
);
}
);
width = 280;
},
{
components = (
{
name = idotless;
transform = "{1, 0, 0, 1, 83, 0}";
}
);
layerId = m002;
paths = (
{
closed = 1;
nodes = (
"103 567 LINE",
"301 567 LINE",
"301 700 LINE",
"103 700 LINE"
);
},
{
closed = 1;
nodes = (
"384 209 LINE",
"384 329 LINE",
"296 329 LINE",
"108 327 LINE",
"20 332 LINE",
"20 209 LINE"
);
}
);
width = 404;
}
);
leftKerningGroup = istroke;
rightKerningGroup = i;
unicode = 0268;
},
{
color = 10;
glyphname = jdotless;
lastChange = "2023-08-29 22:19:20 +0000";
layers = (
{
anchors = (
{
name = Top;
position = "{202, 520}";
}
);
hints = (
{
horizontal = 1;
place = "{520, 0}";
type = Stem;
}
);
layerId = "FD4D3FDD-DE85-408F-A52A-FF600B1C6101";
paths = (
{
closed = 1;
nodes = (
"226 520 LINE",
"178 520 LINE",
"178 -70 LINE SMOOTH",
"178 -147 OFFCURVE",
"134 -192 OFFCURVE",
"59 -192 CURVE SMOOTH",
"40 -192 OFFCURVE",
"22 -191 OFFCURVE",
"10 -188 CURVE",
"10 -230 LINE",
"25 -232 OFFCURVE",
"43 -233 OFFCURVE",
"58 -233 CURVE SMOOTH",
"164 -233 OFFCURVE",
"226 -172 OFFCURVE",
"226 -70 CURVE SMOOTH"
);
}
);
width = 266;
},
{
anchors = (
{
name = Top;
position = "{192, 520}";
}
);
hints = (
{
horizontal = 1;
place = "{520, 0}";
type = Stem;
}
);
layerId = m002;
paths = (
{
closed = 1;
nodes = (
"291 520 LINE",
"93 520 LINE",
"93 -12 LINE SMOOTH",
"93 -51 OFFCURVE",
"77 -74 OFFCURVE",
"49 -74 CURVE SMOOTH",
"31 -74 OFFCURVE",
"13 -73 OFFCURVE",
"0 -70 CURVE",
"0 -230 LINE",
"11 -232 OFFCURVE",
"29 -233 OFFCURVE",
"48 -233 CURVE SMOOTH",
"201 -233 OFFCURVE",
"291 -150 OFFCURVE",
"291 -10 CURVE SMOOTH"
);
}
);
width = 311;
}
);
leftKerningGroup = j;
rightKerningGroup = j;
rightMetricsKey = n;
unicode = 0237;
},
{
glyphname = k;
lastChange = "2023-08-30 03:04:25 +0000";
layers = (
{
anchors = (
{
name = Bottom;
position = "{216, 0}";
},
{
name = Top;
position = "{222, 520}";
}
);
layerId = "FD4D3FDD-DE85-408F-A52A-FF600B1C6101";
paths = (
{
closed = 1;
nodes = (
"40 0 LINE",
"88 0 LINE",
"88 181 LINE",
"193 285 LINE",
"376 0 LINE",
"432 0 LINE",
"229 321 LINE",
"430 520 LINE",
"362 520 LINE",
"90 251 LINE",
"88 251 LINE",
"88 736 LINE",
"40 736 LINE"
);
}
);
width = 452;
},
{
anchors = (
{
name = Bottom;
position = "{310, 0}";
},
{
name = Top;
position = "{322, 520}";
}
);
layerId = m002;
paths = (
{
closed = 1;
nodes = (
"20 0 LINE",
"218 0 LINE",
"218 113 LINE",
"287 184 LINE",
"405 0 LINE",
"619 0 LINE",
"419 319 LINE",
"616 520 LINE",
"360 520 LINE",
"220 380 LINE",
"218 380 LINE",
"218 736 LINE",
"20 736 LINE"
);
}
);
width = 629;
}
);
leftKerningGroup = n;
leftMetricsKey = n;
rightKerningGroup = k;
unicode = 006B;
},
{
color = 10;
glyphname = kgreenlandic;
lastChange = "2023-08-29 22:19:31 +0000";
layers = (
{
layerId = "FD4D3FDD-DE85-408F-A52A-FF600B1C6101";
paths = (
{
closed = 1;
nodes = (
"40 0 LINE",
"88 0 LINE",
"88 269 LINE",
"90 269 LINE",
"325 0 LINE",
"388 0 LINE",
"141 279 LINE",
"388 520 LINE",
"325 520 LINE",
"90 292 LINE",
"88 292 LINE",
"88 520 LINE",
"40 520 LINE"
);
}
);
width = 408;
},
{
layerId = m002;
paths = (
{
closed = 1;
nodes = (
"20 0 LINE",
"218 0 LINE",
"218 203 LINE",
"221 203 LINE",
"399 0 LINE",
"634 0 LINE",
"386 279 LINE",
"634 520 LINE",
"399 520 LINE",
"220 347 LINE",
"218 347 LINE",
"218 520 LINE",
"20 520 LINE"
);
}
);
width = 644;
}
);
leftKerningGroup = h;
leftMetricsKey = k;
rightKerningGroup = k;
rightMetricsKey = k;
unicode = 0138;
},
{
glyphname = l;
lastChange = "2023-09-21 15:09:25 +0000";
layers = (
{
anchors = (
{
name = Bottom;
position = "{64, 0}";
},
{
name = Caron;
position = "{166, 560}";
},
{
name = Top;
position = "{64, 736}";
},
{
name = Top_EC;
position = "{155, 570}";
}
);
layerId = "FD4D3FDD-DE85-408F-A52A-FF600B1C6101";
paths = (
{
closed = 1;
nodes = (
"40 0 LINE",
"88 0 LINE",
"88 736 LINE",
"40 736 LINE"
);
}
);
width = 128;
},
{
anchors = (
{
name = Bottom;
position = "{119, 0}";
},
{
name = Caron;
position = "{336, 560}";
},
{
name = Top;
position = "{119, 736}";
},
{
name = Top_EC;
position = "{336, 570}";
}
);
layerId = m002;
paths = (
{
closed = 1;
nodes = (
"20 0 LINE",
"218 0 LINE",
"218 736 LINE",
"20 736 LINE"
);
}
);
width = 238;
}
);
leftKerningGroup = l;
leftMetricsKey = n;
rightKerningGroup = l;
rightMetricsKey = n;
unicode = 006C;
},
{
color = 10;
glyphname = lambdastroke;
lastChange = "2023-08-29 22:19:57 +0000";
layers = (
{
layerId = "FD4D3FDD-DE85-408F-A52A-FF600B1C6101";
paths = (
{
closed = 1;
nodes = (
"237 435 LINE",
"239 435 LINE",
"353 125 LINE SMOOTH",
"388 30 OFFCURVE",
"442 -13 OFFCURVE",
"517 -13 CURVE SMOOTH",
"533 -13 OFFCURVE",
"551 -10 OFFCURVE",
"565 -5 CURVE",
"565 43 LINE",
"554 37 OFFCURVE",
"532 34 OFFCURVE",
"513 34 CURVE SMOOTH",
"465 34 OFFCURVE",
"425 64 OFFCURVE",
"403 125 CURVE SMOOTH",
"261 511 LINE",
"390 536 LINE",
"396 576 LINE",
"248 547 LINE",
"232 590 LINE SMOOTH",
"196 687 OFFCURVE",
"143 728 OFFCURVE",
"68 728 CURVE SMOOTH",
"52 728 OFFCURVE",
"34 725 OFFCURVE",
"20 720 CURVE",
"20 672 LINE",
"31 678 OFFCURVE",
"53 681 OFFCURVE",
"72 681 CURVE SMOOTH",
"120 681 OFFCURVE",
"160 651 OFFCURVE",
"182 590 CURVE SMOOTH",
"199 543 LINE",
"82 519 LINE",
"76 476 LINE",
"213 502 LINE",
"27 0 LINE",
"77 0 LINE"
);
}
);
width = 585;
},
{
layerId = m002;
paths = (
{
closed = 1;
nodes = (
"304 237 LINE",
"306 237 LINE",
"339 146 LINE SMOOTH",
"395 -6 OFFCURVE",
"476 -13 OFFCURVE",
"596 -13 CURVE SMOOTH",
"621 -13 OFFCURVE",
"645 -10 OFFCURVE",
"661 -5 CURVE",
"661 155 LINE",
"648 149 OFFCURVE",
"620 146 OFFCURVE",
"585 146 CURVE SMOOTH",
"557 146 OFFCURVE",
"532 159 OFFCURVE",
"524 182 CURVE SMOOTH",
"395 536 LINE",
"492 555 LINE",
"498 595 LINE",
"382 572 LINE",
"380 577 LINE SMOOTH",
"323 720 OFFCURVE",
"244 727 OFFCURVE",
"126 727 CURVE SMOOTH",
"101 727 OFFCURVE",
"77 724 OFFCURVE",
"61 719 CURVE",
"61 559 LINE",
"74 565 OFFCURVE",
"102 568 OFFCURVE",
"137 568 CURVE SMOOTH",
"160 568 OFFCURVE",
"181 559 OFFCURVE",
"191 544 CURVE SMOOTH",
"193 541 LINE",
"90 519 LINE",
"84 476 LINE",
"206 500 LINE",
"20 0 LINE",
"218 0 LINE"
);
}
);
width = 681;
}
);
leftKerningGroup = A;
leftMetricsKey = A;
rightKerningGroup = A;
rightMetricsKey = A;
unicode = 019B;
},
{
color = 10;
glyphname = lbar;
lastChange = "2023-08-29 22:19:57 +0000";
layers = (
{
layerId = "FD4D3FDD-DE85-408F-A52A-FF600B1C6101";
paths = (
{
closed = 1;
nodes = (
"116 381 LINE",
"40 386 LINE",
"40 341 LINE",
"116 341 LINE",
"116 0 LINE",
"164 0 LINE",
"164 341 LINE",
"240 341 LINE",
"240 383 LINE",
"164 383 LINE",
"164 736 LINE",
"116 736 LINE"
);
}
);
width = 280;
},
{
layerId = m002;
paths = (
{
closed = 1;
nodes = (
"103 417 LINE",
"20 422 LINE",
"20 299 LINE",
"103 299 LINE",
"103 0 LINE",
"301 0 LINE",
"301 299 LINE",
"384 299 LINE",
"384 419 LINE",
"301 419 LINE",
"301 736 LINE",
"103 736 LINE"
);
}
);
width = 404;
}
);
leftKerningGroup = l;
leftMetricsKey = l;
rightKerningGroup = l;
rightMetricsKey = l;
unicode = 019A;
},
{
color = 10;
glyphname = lbelt;
lastChange = "2023-08-29 22:19:57 +0000";
layers = (
{
layerId = "FD4D3FDD-DE85-408F-A52A-FF600B1C6101";
paths = (
{
closed = 1;
nodes = (
"141 487 LINE",
"133 490 OFFCURVE",
"124 491 OFFCURVE",
"115 491 CURVE SMOOTH",
"70 491 OFFCURVE",
"40 463 OFFCURVE",
"40 421 CURVE SMOOTH",
"40 373 OFFCURVE",
"73 341 OFFCURVE",
"123 341 CURVE SMOOTH",
"141 341 LINE",
"141 0 LINE",
"189 0 LINE",
"189 341 LINE",
"269 341 LINE",
"269 383 LINE",
"189 383 LINE",
"189 736 LINE",
"141 736 LINE"
);
},
{
closed = 1;
nodes = (
"88 438 OFFCURVE",
"99 449 OFFCURVE",
"115 449 CURVE SMOOTH",
"131 449 OFFCURVE",
"141 438 OFFCURVE",
"141 421 CURVE SMOOTH",
"141 383 LINE",
"131 383 LINE SMOOTH",
"105 383 OFFCURVE",
"88 398 OFFCURVE",
"88 421 CURVE SMOOTH"
);
}
);
width = 309;
},
{
layerId = m002;
paths = (
{
closed = 1;
nodes = (
"125 489 LINE",
"119 490 OFFCURVE",
"112 491 OFFCURVE",
"105 491 CURVE SMOOTH",
"52 491 OFFCURVE",
"20 461 OFFCURVE",
"20 410 CURVE SMOOTH",
"20 355 OFFCURVE",
"55 323 OFFCURVE",
"114 323 CURVE SMOOTH",
"125 323 LINE",
"125 0 LINE",
"323 0 LINE",
"323 323 LINE",
"423 323 LINE",
"423 383 LINE",
"323 383 LINE",
"323 736 LINE",
"125 736 LINE"
);
},
{
closed = 1;
nodes = (
"80 432 OFFCURVE",
"89 441 OFFCURVE",
"103 441 CURVE SMOOTH",
"117 441 OFFCURVE",
"125 434 OFFCURVE",
"125 421 CURVE SMOOTH",
"125 383 LINE",
"115 383 LINE SMOOTH",
"93 383 OFFCURVE",
"80 396 OFFCURVE",
"80 418 CURVE SMOOTH"
);
}
);
width = 443;
}
);
leftKerningGroup = l;
leftMetricsKey = l;
rightKerningGroup = l;
rightMetricsKey = l;
unicode = 026C;
},
{
color = 10;
glyphname = lmiddletilde;
lastChange = "2023-08-29 22:19:57 +0000";
layers = (
{
layerId = "FD4D3FDD-DE85-408F-A52A-FF600B1C6101";
paths = (
{
closed = 1;
nodes = (
"213 0 LINE",
"213 324 LINE",
"225 321 OFFCURVE",
"238 318 OFFCURVE",
"252 318 CURVE SMOOTH",
"301 318 OFFCURVE",
"334 350 OFFCURVE",
"334 399 CURVE",
"286 399 LINE",
"286 376 OFFCURVE",
"272 361 OFFCURVE",
"252 361 CURVE SMOOTH",
"238 361 OFFCURVE",
"225 364 OFFCURVE",
"213 369 CURVE",
"213 736 LINE",
"165 736 LINE",
"165 390 LINE",
"152 394 OFFCURVE",
"138 398 OFFCURVE",
"122 398 CURVE SMOOTH",
"73 398 OFFCURVE",
"40 366 OFFCURVE",
"40 317 CURVE",
"88 317 LINE",
"88 340 OFFCURVE",
"102 355 OFFCURVE",
"122 355 CURVE SMOOTH",
"137 355 OFFCURVE",
"151 350 OFFCURVE",
"165 344 CURVE",
"165 0 LINE"
);
}
);
width = 374;
},
{
layerId = m002;
paths = (
{
closed = 1;
nodes = (
"361 0 LINE",
"361 345 LINE",
"375 344 OFFCURVE",
"385 343 OFFCURVE",
"392 343 CURVE SMOOTH",
"462 343 OFFCURVE",
"504 383 OFFCURVE",
"504 451 CURVE",
"399 451 LINE",
"399 438 OFFCURVE",
"391 431 OFFCURVE",
"377 431 CURVE SMOOTH",
"370 431 OFFCURVE",
"366 431 OFFCURVE",
"361 432 CURVE",
"361 736 LINE",
"163 736 LINE",
"163 453 LINE",
"150 454 OFFCURVE",
"140 455 OFFCURVE",
"134 455 CURVE SMOOTH",
"62 455 OFFCURVE",
"20 415 OFFCURVE",
"20 347 CURVE",
"125 347 LINE",
"125 360 OFFCURVE",
"133 368 OFFCURVE",
"147 368 CURVE SMOOTH",
"153 368 OFFCURVE",
"157 368 OFFCURVE",
"163 367 CURVE",
"163 0 LINE"
);
}
);
width = 524;
}
);
leftKerningGroup = l;
leftMetricsKey = l;
rightKerningGroup = l;
rightMetricsKey = l;
unicode = 026B;
},
{
color = 10;
glyphname = lslash;
lastChange = "2023-08-29 22:19:57 +0000";
layers = (
{
layerId = "FD4D3FDD-DE85-408F-A52A-FF600B1C6101";
paths = (
{
closed = 1;
nodes = (
"140 415 LINE",
"40 356 LINE",
"40 298 LINE",
"140 357 LINE",
"140 0 LINE",
"188 0 LINE",
"188 386 LINE",
"288 445 LINE",
"288 503 LINE",
"188 444 LINE",
"188 736 LINE",
"140 736 LINE"
);
}
);
width = 328;
},
{
layerId = m002;
paths = (
{
closed = 1;
nodes = (
"120 412 LINE",
"20 345 LINE",
"20 207 LINE",
"120 275 LINE",
"120 0 LINE",
"288 0 LINE",
"288 388 LINE",
"388 456 LINE",
"388 592 LINE",
"288 525 LINE",
"288 736 LINE",
"120 736 LINE"
);
}
);
width = 408;
}
);
leftKerningGroup = l;
leftMetricsKey = n;
rightKerningGroup = l;
rightMetricsKey = n;
unicode = 0142;
},
{
glyphname = m;
lastChange = "2023-08-29 22:20:00 +0000";
layers = (
{
anchors = (
{
name = Bottom;
position = "{374, 0}";
}
);
hints = (
{
horizontal = 1;
origin = "{0, 35}";
target = up;
type = BottomGhost;
}
);
layerId = "FD4D3FDD-DE85-408F-A52A-FF600B1C6101";
paths = (
{
closed = 1;
nodes = (
"88 293 LINE SMOOTH",
"88 417 OFFCURVE",
"141 490 OFFCURVE",
"230 490 CURVE SMOOTH",
"305 490 OFFCURVE",
"350 430 OFFCURVE",
"350 328 CURVE SMOOTH",
"350 0 LINE",
"398 0 LINE",
"398 333 LINE SMOOTH",
"398 432 OFFCURVE",
"450 490 OFFCURVE",
"537 490 CURVE SMOOTH",
"614 490 OFFCURVE",
"660 430 OFFCURVE",
"660 328 CURVE SMOOTH",
"660 0 LINE",
"708 0 LINE",
"708 333 LINE SMOOTH",
"708 458 OFFCURVE",
"646 532 OFFCURVE",
"542 532 CURVE SMOOTH",
"460 532 OFFCURVE",
"398 495 OFFCURVE",
"375 433 CURVE",
"373 433 LINE",
"347 495 OFFCURVE",
"296 532 OFFCURVE",
"235 532 CURVE SMOOTH",
"162 532 OFFCURVE",
"107 493 OFFCURVE",
"85 427 CURVE",
"83 427 LINE",
"93 520 LINE",
"40 520 LINE",
"40 0 LINE",
"88 0 LINE"
);
}
);
width = 748;
},
{
anchors = (
{
name = Bottom;
position = "{435, 0}";
}
);
layerId = m002;
paths = (
{
closed = 1;
nodes = (
"218 296 LINE SMOOTH",
"218 343 OFFCURVE",
"240 370 OFFCURVE",
"277 370 CURVE SMOOTH",
"314 370 OFFCURVE",
"336 345 OFFCURVE",
"336 303 CURVE SMOOTH",
"336 0 LINE",
"534 0 LINE",
"534 296 LINE SMOOTH",
"534 343 OFFCURVE",
"556 370 OFFCURVE",
"593 370 CURVE SMOOTH",
"630 370 OFFCURVE",
"652 345 OFFCURVE",
"652 303 CURVE SMOOTH",
"652 0 LINE",
"850 0 LINE",
"850 323 LINE SMOOTH",
"850 454 OFFCURVE",
"775 532 OFFCURVE",
"647 532 CURVE SMOOTH",
"586 532 OFFCURVE",
"531 512 OFFCURVE",
"499 477 CURVE",
"497 477 LINE",
"466 512 OFFCURVE",
"412 532 OFFCURVE",
"350 532 CURVE SMOOTH",
"278 532 OFFCURVE",
"221 512 OFFCURVE",
"195 477 CURVE",
"191 477 LINE",
"206 520 LINE",
"20 520 LINE",
"20 0 LINE",
"218 0 LINE"
);
}
);
width = 870;
}
);
leftKerningGroup = n;
leftMetricsKey = n;
rightKerningGroup = n;
rightMetricsKey = n;
unicode = 006D;
},
{
glyphname = n;
lastChange = "2023-08-29 22:20:13 +0000";
layers = (
{
anchors = (
{
name = Bottom;
position = "{235, 0}";
},
{
name = Top;
position = "{240, 532}";
}
);
layerId = "FD4D3FDD-DE85-408F-A52A-FF600B1C6101";
paths = (
{
closed = 1;
nodes = (
"88 280 LINE SMOOTH",
"88 412 OFFCURVE",
"146 490 OFFCURVE",
"245 490 CURVE SMOOTH",
"330 490 OFFCURVE",
"381 430 OFFCURVE",
"381 328 CURVE SMOOTH",
"381 0 LINE",
"429 0 LINE",
"429 333 LINE SMOOTH",
"429 458 OFFCURVE",
"363 532 OFFCURVE",
"250 532 CURVE SMOOTH",
"173 532 OFFCURVE",
"112 493 OFFCURVE",
"85 427 CURVE",
"83 427 LINE",
"93 520 LINE",
"40 520 LINE",
"40 0 LINE",
"88 0 LINE"
);
}
);
width = 469;
},
{
anchors = (
{
name = Bottom;
position = "{288, 0}";
},
{
name = Top;
position = "{306, 532}";
}
);
layerId = m002;
paths = (
{
closed = 1;
nodes = (
"218 276 LINE SMOOTH",
"218 335 OFFCURVE",
"244 370 OFFCURVE",
"287 370 CURVE SMOOTH",
"330 370 OFFCURVE",
"355 340 OFFCURVE",
"355 288 CURVE SMOOTH",
"355 0 LINE",
"553 0 LINE",
"553 333 LINE SMOOTH",
"553 458 OFFCURVE",
"477 532 OFFCURVE",
"343 532 CURVE SMOOTH",
"280 532 OFFCURVE",
"228 512 OFFCURVE",
"202 477 CURVE",
"198 477 LINE",
"218 520 LINE",
"20 520 LINE",
"20 0 LINE",
"218 0 LINE"
);
}
);
width = 573;
}
);
leftKerningGroup = n;
rightKerningGroup = n;
unicode = 006E;
},
{
color = 10;
glyphname = eng;
lastChange = "2023-08-29 22:20:19 +0000";
layers = (
{
layerId = "FD4D3FDD-DE85-408F-A52A-FF600B1C6101";
paths = (
{
closed = 1;
nodes = (
"88 280 LINE SMOOTH",
"88 412 OFFCURVE",
"146 490 OFFCURVE",
"245 490 CURVE SMOOTH",
"330 490 OFFCURVE",
"381 430 OFFCURVE",
"381 328 CURVE SMOOTH",
"381 -70 LINE SMOOTH",
"381 -147 OFFCURVE",
"337 -192 OFFCURVE",
"262 -192 CURVE SMOOTH",
"243 -192 OFFCURVE",
"225 -191 OFFCURVE",
"213 -188 CURVE",
"213 -230 LINE",
"228 -232 OFFCURVE",
"246 -233 OFFCURVE",
"261 -233 CURVE SMOOTH",
"367 -233 OFFCURVE",
"429 -172 OFFCURVE",
"429 -70 CURVE SMOOTH",
"429 333 LINE SMOOTH",
"429 458 OFFCURVE",
"363 532 OFFCURVE",
"250 532 CURVE SMOOTH",
"173 532 OFFCURVE",
"112 493 OFFCURVE",
"85 427 CURVE",
"83 427 LINE",
"93 520 LINE",
"40 520 LINE",
"40 0 LINE",
"88 0 LINE"
);
}
);
width = 469;
},
{
layerId = m002;
paths = (
{
closed = 1;
nodes = (
"218 276 LINE SMOOTH",
"218 335 OFFCURVE",
"244 370 OFFCURVE",
"287 370 CURVE SMOOTH",
"330 370 OFFCURVE",
"355 340 OFFCURVE",
"355 288 CURVE SMOOTH",
"355 -12 LINE SMOOTH",
"355 -51 OFFCURVE",
"339 -74 OFFCURVE",
"311 -74 CURVE SMOOTH",
"293 -74 OFFCURVE",
"275 -73 OFFCURVE",
"262 -70 CURVE",
"262 -230 LINE",
"273 -232 OFFCURVE",
"291 -233 OFFCURVE",
"310 -233 CURVE SMOOTH",
"463 -233 OFFCURVE",
"553 -150 OFFCURVE",
"553 -10 CURVE SMOOTH",
"553 333 LINE SMOOTH",
"553 458 OFFCURVE",
"477 532 OFFCURVE",
"343 532 CURVE SMOOTH",
"280 532 OFFCURVE",
"228 512 OFFCURVE",
"202 477 CURVE",
"198 477 LINE",
"218 520 LINE",
"20 520 LINE",
"20 0 LINE",
"218 0 LINE"
);
}
);
width = 573;
}
);
leftKerningGroup = n;
leftMetricsKey = n;
rightKerningGroup = n;
rightMetricsKey = n;
unicode = 014B;
},
{
glyphname = o;
lastChange = "2023-08-29 22:20:22 +0000";
layers = (
{
anchors = (
{
name = Bottom;
position = "{262, 0}";
},
{
name = Top;
position = "{262, 532}";
}
);
layerId = "FD4D3FDD-DE85-408F-A52A-FF600B1C6101";
paths = (
{
closed = 1;
nodes = (
"116 532 OFFCURVE",
"30 431 OFFCURVE",
"30 259 CURVE SMOOTH",
"30 88 OFFCURVE",
"116 -13 OFFCURVE",
"262 -13 CURVE SMOOTH",
"408 -13 OFFCURVE",
"495 88 OFFCURVE",
"495 259 CURVE SMOOTH",
"495 431 OFFCURVE",
"408 532 OFFCURVE",
"262 532 CURVE SMOOTH"
);
},
{
closed = 1;
nodes = (
"78 404 OFFCURVE",
"146 490 OFFCURVE",
"262 490 CURVE SMOOTH",
"378 490 OFFCURVE",
"447 404 OFFCURVE",
"447 259 CURVE SMOOTH",
"447 114 OFFCURVE",
"378 29 OFFCURVE",
"262 29 CURVE SMOOTH",
"146 29 OFFCURVE",
"78 114 OFFCURVE",
"78 259 CURVE SMOOTH"
);
}
);
width = 525;
},
{
anchors = (
{
name = Bottom;
position = "{300, 0}";
},
{
name = Top;
position = "{300, 532}";
}
);
layerId = m002;
paths = (
{
closed = 1;
nodes = (
"118 532 OFFCURVE",
"10 431 OFFCURVE",
"10 259 CURVE SMOOTH",
"10 88 OFFCURVE",
"118 -13 OFFCURVE",
"300 -13 CURVE SMOOTH",
"483 -13 OFFCURVE",
"591 88 OFFCURVE",
"591 259 CURVE SMOOTH",
"591 431 OFFCURVE",
"483 532 OFFCURVE",
"300 532 CURVE SMOOTH"
);
},
{
closed = 1;
nodes = (
"218 335 OFFCURVE",
"248 380 OFFCURVE",
"300 380 CURVE SMOOTH",
"352 380 OFFCURVE",
"383 335 OFFCURVE",
"383 259 CURVE SMOOTH",
"383 184 OFFCURVE",
"352 139 OFFCURVE",
"300 139 CURVE SMOOTH",
"248 139 OFFCURVE",
"218 184 OFFCURVE",
"218 259 CURVE SMOOTH"
);
}
);
width = 601;
}
);
leftKerningGroup = o;
rightKerningGroup = o;
unicode = 006F;
},
{
color = 10;
glyphname = oopen;
lastChange = "2023-08-29 22:20:31 +0000";
layers = (
{
layerId = "FD4D3FDD-DE85-408F-A52A-FF600B1C6101";
paths = (
{
closed = 1;
nodes = (
"30 437 LINE",
"64 469 OFFCURVE",
"123 490 OFFCURVE",
"178 490 CURVE SMOOTH",
"282 490 OFFCURVE",
"351 398 OFFCURVE",
"351 260 CURVE SMOOTH",
"351 121 OFFCURVE",
"280 29 OFFCURVE",
"174 29 CURVE SMOOTH",
"121 29 OFFCURVE",
"63 50 OFFCURVE",
"30 81 CURVE",
"30 33 LINE",
"61 5 OFFCURVE",
"118 -13 OFFCURVE",
"174 -13 CURVE SMOOTH",
"309 -13 OFFCURVE",
"399 96 OFFCURVE",
"399 260 CURVE SMOOTH",
"399 423 OFFCURVE",
"311 532 OFFCURVE",
"178 532 CURVE SMOOTH",
"123 532 OFFCURVE",
"64 514 OFFCURVE",
"30 488 CURVE"
);
}
);
width = 429;
},
{
layerId = m002;
paths = (
{
closed = 1;
nodes = (
"10 342 LINE",
"30 360 OFFCURVE",
"65 370 OFFCURVE",
"106 370 CURVE SMOOTH",
"178 370 OFFCURVE",
"220 329 OFFCURVE",
"220 260 CURVE SMOOTH",
"220 190 OFFCURVE",
"178 149 OFFCURVE",
"108 149 CURVE SMOOTH",
"67 149 OFFCURVE",
"31 156 OFFCURVE",
"10 167 CURVE",
"10 2 LINE",
"48 -7 OFFCURVE",
"92 -13 OFFCURVE",
"128 -13 CURVE SMOOTH",
"317 -13 OFFCURVE",
"428 88 OFFCURVE",
"428 260 CURVE SMOOTH",
"428 431 OFFCURVE",
"314 532 OFFCURVE",
"121 532 CURVE SMOOTH",
"92 532 OFFCURVE",
"51 526 OFFCURVE",
"10 515 CURVE"
);
}
);
width = 438;
}
);
leftKerningGroup = o;
leftMetricsKey = o;
rightKerningGroup = o;
rightMetricsKey = o;
unicode = 0254;
},
{
color = 10;
glyphname = oslash;
lastChange = "2023-08-29 22:20:31 +0000";
layers = (
{
anchors = (
{
name = Top;
position = "{262, 532}";
}
);
layerId = "FD4D3FDD-DE85-408F-A52A-FF600B1C6101";
paths = (
{
closed = 1;
nodes = (
"123 532 OFFCURVE",
"30 423 OFFCURVE",
"30 259 CURVE SMOOTH",
"30 146 OFFCURVE",
"75 58 OFFCURVE",
"149 16 CURVE",
"125 -50 LINE",
"178 -50 LINE",
"195 -4 LINE",
"216 -10 OFFCURVE",
"238 -13 OFFCURVE",
"262 -13 CURVE SMOOTH",
"402 -13 OFFCURVE",
"495 96 OFFCURVE",
"495 259 CURVE SMOOTH",
"495 371 OFFCURVE",
"451 458 OFFCURVE",
"379 501 CURVE",
"400 558 LINE",
"347 558 LINE",
"334 521 LINE",
"312 528 OFFCURVE",
"288 532 OFFCURVE",
"262 532 CURVE SMOOTH"
);
},
{
closed = 1;
nodes = (
"78 398 OFFCURVE",
"152 490 OFFCURVE",
"262 490 CURVE SMOOTH",
"282 490 OFFCURVE",
"301 487 OFFCURVE",
"319 481 CURVE",
"165 59 LINE",
"111 96 OFFCURVE",
"78 167 OFFCURVE",
"78 259 CURVE SMOOTH"
);
},
{
closed = 1;
nodes = (
"363 458 LINE",
"416 420 OFFCURVE",
"447 349 OFFCURVE",
"447 259 CURVE SMOOTH",
"447 121 OFFCURVE",
"373 29 OFFCURVE",
"262 29 CURVE SMOOTH",
"243 29 OFFCURVE",
"226 32 OFFCURVE",
"210 37 CURVE"
);
}
);
width = 525;
},
{
anchors = (
{
name = Top;
position = "{290, 532}";
}
);
layerId = m002;
paths = (
{
closed = 1;
nodes = (
"122 532 OFFCURVE",
"10 423 OFFCURVE",
"10 259 CURVE SMOOTH",
"10 143 OFFCURVE",
"66 55 OFFCURVE",
"159 13 CURVE",
"136 -50 LINE",
"223 -50 LINE",
"238 -9 LINE",
"255 -12 OFFCURVE",
"272 -13 OFFCURVE",
"290 -13 CURVE SMOOTH",
"459 -13 OFFCURVE",
"571 96 OFFCURVE",
"571 259 CURVE SMOOTH",
"571 374 OFFCURVE",
"516 462 OFFCURVE",
"425 504 CURVE",
"445 558 LINE",
"358 558 LINE",
"347 528 LINE",
"329 531 OFFCURVE",
"310 532 OFFCURVE",
"290 532 CURVE SMOOTH"
);
},
{
closed = 1;
nodes = (
"178 332 OFFCURVE",
"222 380 OFFCURVE",
"289 380 CURVE",
"290 380 OFFCURVE",
"292 380 OFFCURVE",
"293 380 CURVE",
"215 166 LINE",
"192 187 OFFCURVE",
"178 219 OFFCURVE",
"178 259 CURVE SMOOTH"
);
},
{
closed = 1;
nodes = (
"369 350 LINE",
"391 329 OFFCURVE",
"403 297 OFFCURVE",
"403 259 CURVE SMOOTH",
"403 189 OFFCURVE",
"361 141 OFFCURVE",
"295 139 CURVE",
"294 139 OFFCURVE",
"293 139 OFFCURVE",
"292 139 CURVE"
);
}
);
width = 581;
}
);
leftKerningGroup = o;
leftMetricsKey = o;
rightKerningGroup = o;
rightMetricsKey = o;
unicode = 00F8;
},
{
color = 10;
glyphname = oe;
lastChange = "2023-08-29 22:20:31 +0000";
layers = (
{
layerId = "FD4D3FDD-DE85-408F-A52A-FF600B1C6101";
paths = (
{
closed = 1;
nodes = (
"123 532 OFFCURVE",
"30 423 OFFCURVE",
"30 259 CURVE SMOOTH",
"30 96 OFFCURVE",
"123 -13 OFFCURVE",
"262 -13 CURVE SMOOTH",
"359 -13 OFFCURVE",
"434 39 OFFCURVE",
"470 126 CURVE",
"505 39 OFFCURVE",
"577 -13 OFFCURVE",
"672 -13 CURVE SMOOTH",
"777 -13 OFFCURVE",
"860 56 OFFCURVE",
"879 159 CURVE",
"831 159 LINE",
"815 81 OFFCURVE",
"752 29 OFFCURVE",
"673 29 CURVE SMOOTH",
"566 29 OFFCURVE",
"495 119 OFFCURVE",
"495 254 CURVE SMOOTH",
"884 255 LINE",
"884 437 OFFCURVE",
"796 532 OFFCURVE",
"665 532 CURVE SMOOTH",
"575 532 OFFCURVE",
"505 479 OFFCURVE",
"471 391 CURVE",
"434 479 OFFCURVE",
"360 532 OFFCURVE",
"262 532 CURVE SMOOTH"
);
},
{
closed = 1;
nodes = (
"78 398 OFFCURVE",
"152 490 OFFCURVE",
"262 490 CURVE SMOOTH",
"373 490 OFFCURVE",
"447 398 OFFCURVE",
"447 259 CURVE SMOOTH",
"447 121 OFFCURVE",
"373 29 OFFCURVE",
"262 29 CURVE SMOOTH",
"152 29 OFFCURVE",
"78 121 OFFCURVE",
"78 259 CURVE SMOOTH"
);
},
{
closed = 1;
nodes = (
"509 414 OFFCURVE",
"573 490 OFFCURVE",
"666 490 CURVE SMOOTH",
"768 490 OFFCURVE",
"836 412 OFFCURVE",
"836 295 CURVE",
"496.996 295 LINE"
);
}
);
width = 914;
},
{
layerId = m002;
paths = (
{
closed = 1;
nodes = (
"122 532 OFFCURVE",
"10 423 OFFCURVE",
"10 259 CURVE SMOOTH",
"10 96 OFFCURVE",
"122 -13 OFFCURVE",
"290 -13 CURVE SMOOTH",
"390 -13 OFFCURVE",
"470 25 OFFCURVE",
"518 89 CURVE",
"566 23 OFFCURVE",
"646 -13 OFFCURVE",
"753 -13 CURVE SMOOTH",
"907 -13 OFFCURVE",
"1013 57 OFFCURVE",
"1037 175 CURVE",
"839 175 LINE",
"831 143 OFFCURVE",
"801 124 OFFCURVE",
"757 124 CURVE SMOOTH",
"712 124 OFFCURVE",
"682 157 OFFCURVE",
"672 214 CURVE",
"1032 214 LINE",
"1032 424 OFFCURVE",
"932 532 OFFCURVE",
"762 532 CURVE SMOOTH",
"651 532 OFFCURVE",
"568 495 OFFCURVE",
"519 428 CURVE",
"470 494 OFFCURVE",
"390 532 OFFCURVE",
"290 532 CURVE SMOOTH"
);
},
{
closed = 1;
nodes = (
"178 332 OFFCURVE",
"223 380 OFFCURVE",
"290 380 CURVE SMOOTH",
"358 380 OFFCURVE",
"403 332 OFFCURVE",
"403 259 CURVE SMOOTH",
"403 187 OFFCURVE",
"358 139 OFFCURVE",
"290 139 CURVE SMOOTH",
"223 139 OFFCURVE",
"178 187 OFFCURVE",
"178 259 CURVE SMOOTH"
);
},
{
closed = 1;
nodes = (
"690 369 OFFCURVE",
"719 395 OFFCURVE",
"759 395 CURVE SMOOTH",
"798 395 OFFCURVE",
"823 369 OFFCURVE",
"831 324 CURVE",
"676 324 LINE"
);
}
);
width = 1047;
}
);
leftKerningGroup = o;
leftMetricsKey = o;
rightKerningGroup = o;
rightMetricsKey = e;
unicode = 0153;
},
{
glyphname = p;
lastChange = "2023-08-29 22:20:37 +0000";
layers = (
{
anchors = (
{
name = Top;
position = "{253, 532}";
}
);
layerId = "FD4D3FDD-DE85-408F-A52A-FF600B1C6101";
paths = (
{
closed = 1;
nodes = (
"178 533 OFFCURVE",
"117 499 OFFCURVE",
"90 442 CURVE",
"88 442 LINE",
"103 520 LINE",
"40 520 LINE",
"40 -216 LINE",
"88 -216 LINE",
"88 0 LINE",
"83 93 LINE",
"85 93 LINE",
"115 27 OFFCURVE",
"183 -12 OFFCURVE",
"268 -12 CURVE SMOOTH",
"400 -12 OFFCURVE",
"478 89 OFFCURVE",
"478 259 CURVE SMOOTH",
"478 431 OFFCURVE",
"394 533 OFFCURVE",
"253 533 CURVE SMOOTH"
);
},
{
closed = 1;
nodes = (
"88 405 OFFCURVE",
"149 491 OFFCURVE",
"253 491 CURVE SMOOTH",
"364 491 OFFCURVE",
"430 405 OFFCURVE",
"430 259 CURVE SMOOTH",
"430 115 OFFCURVE",
"368 30 OFFCURVE",
"262 30 CURVE SMOOTH",
"153 30 OFFCURVE",
"88 115 OFFCURVE",
"88 259 CURVE SMOOTH"
);
}
);
width = 508;
},
{
anchors = (
{
name = Top;
position = "{323, 532}";
}
);
layerId = m002;
paths = (
{
closed = 1;
nodes = (
"279 533 OFFCURVE",
"232 514 OFFCURVE",
"210 483 CURVE",
"206 483 LINE",
"228 520 LINE",
"20 520 LINE",
"20 -216 LINE",
"218 -216 LINE",
"218 -29 LINE",
"213 23 LINE",
"215 23 LINE",
"243 1 OFFCURVE",
"287 -12 OFFCURVE",
"333 -12 CURVE SMOOTH",
"500 -12 OFFCURVE",
"598 89 OFFCURVE",
"598 259 CURVE SMOOTH",
"598 431 OFFCURVE",
"501 533 OFFCURVE",
"337 533 CURVE SMOOTH"
);
},
{
closed = 1;
nodes = (
"218 347 OFFCURVE",
"250 399 OFFCURVE",
"304 399 CURVE SMOOTH",
"358 399 OFFCURVE",
"390 347 OFFCURVE",
"390 259 CURVE SMOOTH",
"390 172 OFFCURVE",
"358 120 OFFCURVE",
"304 120 CURVE SMOOTH",
"250 120 OFFCURVE",
"218 172 OFFCURVE",
"218 259 CURVE SMOOTH"
);
}
);
width = 608;
}
);
leftKerningGroup = n;
leftMetricsKey = n;
rightKerningGroup = o;
rightMetricsKey = o;
unicode = 0070;
},
{
color = 10;
glyphname = thorn;
lastChange = "2023-08-29 22:20:42 +0000";
layers = (
{
layerId = "FD4D3FDD-DE85-408F-A52A-FF600B1C6101";
paths = (
{
closed = 1;
nodes = (
"177 533 OFFCURVE",
"115 495 OFFCURVE",
"85 432 CURVE",
"83 432 LINE",
"88 520 LINE",
"88 736 LINE",
"40 736 LINE",
"40 -216 LINE",
"88 -216 LINE",
"88 0 LINE",
"83 93 LINE",
"85 93 LINE",
"115 27 OFFCURVE",
"183 -12 OFFCURVE",
"268 -12 CURVE SMOOTH",
"400 -12 OFFCURVE",
"478 89 OFFCURVE",
"478 259 CURVE SMOOTH",
"478 431 OFFCURVE",
"394 533 OFFCURVE",
"253 533 CURVE SMOOTH"
);
},
{
closed = 1;
nodes = (
"88 405 OFFCURVE",
"149 491 OFFCURVE",
"253 491 CURVE SMOOTH",
"364 491 OFFCURVE",
"430 405 OFFCURVE",
"430 259 CURVE SMOOTH",
"430 115 OFFCURVE",
"368 30 OFFCURVE",
"262 30 CURVE SMOOTH",
"153 30 OFFCURVE",
"88 115 OFFCURVE",
"88 259 CURVE SMOOTH"
);
}
);
width = 508;
},
{
layerId = m002;
paths = (
{
closed = 1;
nodes = (
"279 533 OFFCURVE",
"232 514 OFFCURVE",
"210 483 CURVE",
"206 483 LINE",
"228 520 LINE",
"228 736 LINE",
"20 736 LINE",
"20 -216 LINE",
"218 -216 LINE",
"218 -29 LINE",
"213 23 LINE",
"215 23 LINE",
"243 1 OFFCURVE",
"287 -12 OFFCURVE",
"333 -12 CURVE SMOOTH",
"500 -12 OFFCURVE",
"598 89 OFFCURVE",
"598 259 CURVE SMOOTH",
"598 431 OFFCURVE",
"501 533 OFFCURVE",
"337 533 CURVE SMOOTH"
);
},
{
closed = 1;
nodes = (
"218 347 OFFCURVE",
"250 399 OFFCURVE",
"304 399 CURVE SMOOTH",
"358 399 OFFCURVE",
"390 347 OFFCURVE",
"390 259 CURVE SMOOTH",
"390 172 OFFCURVE",
"358 120 OFFCURVE",
"304 120 CURVE SMOOTH",
"250 120 OFFCURVE",
"218 172 OFFCURVE",
"218 259 CURVE SMOOTH"
);
}
);
width = 608;
}
);
leftKerningGroup = n;
leftMetricsKey = p;
rightKerningGroup = o;
rightMetricsKey = p;
unicode = 00FE;
},
{
glyphname = q;
lastChange = "2023-08-29 22:20:45 +0000";
layers = (
{
anchors = (
{
name = Top;
position = "{247, 532}";
}
);
layerId = "FD4D3FDD-DE85-408F-A52A-FF600B1C6101";
paths = (
{
closed = 1;
nodes = (
"114 533 OFFCURVE",
"30 431 OFFCURVE",
"30 259 CURVE SMOOTH",
"30 89 OFFCURVE",
"108 -12 OFFCURVE",
"240 -12 CURVE SMOOTH",
"325 -12 OFFCURVE",
"393 27 OFFCURVE",
"423 93 CURVE",
"425 93 LINE",
"420 0 LINE",
"420 -216 LINE",
"468 -216 LINE",
"468 520 LINE",
"410 520 LINE",
"420 442 LINE",
"418 442 LINE",
"391 499 OFFCURVE",
"330 533 OFFCURVE",
"255 533 CURVE SMOOTH"
);
},
{
closed = 1;
nodes = (
"78 405 OFFCURVE",
"144 491 OFFCURVE",
"255 491 CURVE SMOOTH",
"359 491 OFFCURVE",
"420 405 OFFCURVE",
"420 259 CURVE SMOOTH",
"420 115 OFFCURVE",
"355 30 OFFCURVE",
"246 30 CURVE SMOOTH",
"140 30 OFFCURVE",
"78 115 OFFCURVE",
"78 259 CURVE SMOOTH"
);
}
);
width = 508;
},
{
anchors = (
{
name = Top;
position = "{295, 532}";
}
);
layerId = m002;
paths = (
{
closed = 1;
nodes = (
"107 533 OFFCURVE",
"10 431 OFFCURVE",
"10 259 CURVE SMOOTH",
"10 89 OFFCURVE",
"108 -12 OFFCURVE",
"275 -12 CURVE SMOOTH",
"321 -12 OFFCURVE",
"365 1 OFFCURVE",
"393 23 CURVE",
"395 23 LINE",
"390 -29 LINE",
"390 -216 LINE",
"588 -216 LINE",
"588 520 LINE",
"380 520 LINE",
"402 483 LINE",
"398 483 LINE",
"376 514 OFFCURVE",
"329 533 OFFCURVE",
"271 533 CURVE SMOOTH"
);
},
{
closed = 1;
nodes = (
"218 347 OFFCURVE",
"250 399 OFFCURVE",
"304 399 CURVE SMOOTH",
"358 399 OFFCURVE",
"390 347 OFFCURVE",
"390 259 CURVE SMOOTH",
"390 172 OFFCURVE",
"358 120 OFFCURVE",
"304 120 CURVE SMOOTH",
"250 120 OFFCURVE",
"218 172 OFFCURVE",
"218 259 CURVE SMOOTH"
);
}
);
width = 608;
}
);
leftKerningGroup = o;
leftMetricsKey = o;
rightKerningGroup = n;
rightMetricsKey = n;
unicode = 0071;
},
{
glyphname = r;
lastChange = "2023-08-29 22:20:48 +0000";
layers = (
{
anchors = (
{
name = Bottom;
position = "{64, 0}";
},
{
name = Top;
position = "{178, 532}";
}
);
layerId = "FD4D3FDD-DE85-408F-A52A-FF600B1C6101";
paths = (
{
closed = 1;
nodes = (
"88 280 LINE SMOOTH",
"88 412 OFFCURVE",
"146 490 OFFCURVE",
"245 490 CURVE SMOOTH",
"267 490 OFFCURVE",
"292 486 OFFCURVE",
"312 478 CURVE",
"319 521 LINE",
"300 528 OFFCURVE",
"273 532 OFFCURVE",
"247 532 CURVE SMOOTH",
"177 532 OFFCURVE",
"119 499 OFFCURVE",
"90 442 CURVE",
"88 442 LINE",
"98 520 LINE",
"40 520 LINE",
"40 0 LINE",
"88 0 LINE"
);
}
);
width = 339;
},
{
anchors = (
{
name = Bottom;
position = "{134, 0}";
},
{
name = Top;
position = "{238, 532}";
}
);
layerId = m002;
paths = (
{
closed = 1;
nodes = (
"218 237 LINE SMOOTH",
"218 321 OFFCURVE",
"262 371 OFFCURVE",
"336 371 CURVE SMOOTH",
"358 371 OFFCURVE",
"383 366 OFFCURVE",
"403 358 CURVE",
"429 521 LINE",
"406 529 OFFCURVE",
"372 533 OFFCURVE",
"336 533 CURVE SMOOTH",
"280 533 OFFCURVE",
"233 513 OFFCURVE",
"210 480 CURVE",
"206 480 LINE",
"228 520 LINE",
"20 520 LINE",
"20 0 LINE",
"218 0 LINE"
);
}
);
width = 439;
}
);
leftKerningGroup = n;
leftMetricsKey = n;
rightKerningGroup = r;
rightMetricsKey = k;
unicode = 0072;
},
{
glyphname = s;
lastChange = "2023-08-29 22:20:56 +0000";
layers = (
{
anchors = (
{
name = Bottom;
position = "{229, 0}";
},
{
name = Top;
position = "{226, 532}";
}
);
layerId = "FD4D3FDD-DE85-408F-A52A-FF600B1C6101";
paths = (
{
closed = 1;
nodes = (
"114 532 OFFCURVE",
"48 478 OFFCURVE",
"48 386 CURVE SMOOTH",
"48 194 OFFCURVE",
"364 282 OFFCURVE",
"364 136 CURVE SMOOTH",
"364 69 OFFCURVE",
"316 29 OFFCURVE",
"235 29 CURVE SMOOTH",
"136 29 OFFCURVE",
"78 80 OFFCURVE",
"78 167 CURVE",
"30 167 LINE",
"30 54 OFFCURVE",
"105 -13 OFFCURVE",
"232 -13 CURVE SMOOTH",
"345 -13 OFFCURVE",
"412 44 OFFCURVE",
"412 140 CURVE SMOOTH",
"412 326 OFFCURVE",
"96 247 OFFCURVE",
"96 389 CURVE SMOOTH",
"96 452 OFFCURVE",
"141 490 OFFCURVE",
"217 490 CURVE SMOOTH",
"301 490 OFFCURVE",
"351 445 OFFCURVE",
"351 369 CURVE",
"399 369 LINE",
"399 471 OFFCURVE",
"335 532 OFFCURVE",
"226 532 CURVE SMOOTH"
);
}
);
width = 442;
},
{
anchors = (
{
name = Bottom;
position = "{278, 0}";
},
{
name = Top;
position = "{275, 532}";
}
);
layerId = m002;
paths = (
{
closed = 1;
nodes = (
"125 532 OFFCURVE",
"37 468 OFFCURVE",
"37 360 CURVE SMOOTH",
"37 153 OFFCURVE",
"333 227 OFFCURVE",
"333 165 CURVE SMOOTH",
"333 146 OFFCURVE",
"313 134 OFFCURVE",
"279 134 CURVE SMOOTH",
"241 134 OFFCURVE",
"218 152 OFFCURVE",
"218 182 CURVE",
"20 182 LINE",
"20 59 OFFCURVE",
"117 -13 OFFCURVE",
"281 -13 CURVE SMOOTH",
"438 -13 OFFCURVE",
"531 52 OFFCURVE",
"531 161 CURVE SMOOTH",
"531 355 OFFCURVE",
"235 295 OFFCURVE",
"235 353 CURVE SMOOTH",
"235 373 OFFCURVE",
"252 385 OFFCURVE",
"281 385 CURVE SMOOTH",
"311 385 OFFCURVE",
"329 370 OFFCURVE",
"329 344 CURVE",
"527 344 LINE",
"527 462 OFFCURVE",
"433 532 OFFCURVE",
"275 532 CURVE SMOOTH"
);
}
);
width = 551;
}
);
leftKerningGroup = s;
rightKerningGroup = s;
unicode = 0073;
},
{
color = 10;
glyphname = saltillo;
lastChange = "2023-08-29 22:21:06 +0000";
layers = (
{
layerId = "FD4D3FDD-DE85-408F-A52A-FF600B1C6101";
paths = (
{
closed = 1;
nodes = (
"40 520 LINE",
"45 409 LINE",
"75 409 LINE",
"80 520 LINE",
"80 730 LINE",
"40 730 LINE"
);
}
);
width = 120;
},
{
layerId = m002;
paths = (
{
closed = 1;
nodes = (
"20 520 LINE",
"25 409 LINE",
"165 409 LINE",
"170 520 LINE",
"170 730 LINE",
"20 730 LINE"
);
}
);
width = 190;
}
);
leftKerningGroup = n;
leftMetricsKey = n;
rightKerningGroup = n;
rightMetricsKey = n;
unicode = A78C;
},
{
color = 10;
glyphname = germandbls;
lastChange = "2023-08-29 22:21:14 +0000";
layers = (
{
layerId = "FD4D3FDD-DE85-408F-A52A-FF600B1C6101";
paths = (
{
closed = 1;
nodes = (
"266 -4 OFFCURVE",
"307 -13 OFFCURVE",
"344 -13 CURVE SMOOTH",
"437 -13 OFFCURVE",
"499 39 OFFCURVE",
"499 117 CURVE SMOOTH",
"499 271 OFFCURVE",
"263 259 OFFCURVE",
"263 377 CURVE SMOOTH",
"263 433 OFFCURVE",
"319 473 OFFCURVE",
"404 478 CURVE",
"435 520 LINE",
"324 673 LINE SMOOTH",
"292 720 OFFCURVE",
"259 736 OFFCURVE",
"195 736 CURVE SMOOTH",
"102 736 OFFCURVE",
"40 670 OFFCURVE",
"40 571 CURVE SMOOTH",
"40 0 LINE",
"88 0 LINE",
"88 583 LINE SMOOTH",
"88 650 OFFCURVE",
"130 695 OFFCURVE",
"193 695 CURVE SMOOTH",
"235 695 OFFCURVE",
"258 683 OFFCURVE",
"283 649 CURVE SMOOTH",
"376 518 LINE",
"278 507 OFFCURVE",
"215 452 OFFCURVE",
"215 374 CURVE SMOOTH",
"215 212 OFFCURVE",
"451 231 OFFCURVE",
"451 113 CURVE SMOOTH",
"451 63 OFFCURVE",
"409 29 OFFCURVE",
"345 29 CURVE SMOOTH",
"315 29 OFFCURVE",
"274 38 OFFCURVE",
"241 52 CURVE",
"241 10 LINE"
);
}
);
width = 529;
},
{
layerId = m002;
paths = (
{
closed = 1;
nodes = (
"307 -4 OFFCURVE",
"353 -13 OFFCURVE",
"404 -13 CURVE SMOOTH",
"533 -13 OFFCURVE",
"609 47 OFFCURVE",
"609 143 CURVE SMOOTH",
"609 284 OFFCURVE",
"453 298 OFFCURVE",
"453 345 CURVE SMOOTH",
"453 366 OFFCURVE",
"481 373 OFFCURVE",
"494 358 CURVE",
"628 503 LINE",
"499 649 LINE SMOOTH",
"451 704 OFFCURVE",
"366 736 OFFCURVE",
"269 736 CURVE SMOOTH",
"112 736 OFFCURVE",
"20 652 OFFCURVE",
"20 511 CURVE SMOOTH",
"20 0 LINE",
"218 0 LINE",
"218 503 LINE SMOOTH",
"218 548 OFFCURVE",
"240 575 OFFCURVE",
"276 575 CURVE SMOOTH",
"300 575 OFFCURVE",
"320 570 OFFCURVE",
"353 529 CURVE SMOOTH",
"373 505 LINE",
"292 482 OFFCURVE",
"255 431 OFFCURVE",
"255 363 CURVE SMOOTH",
"255 226 OFFCURVE",
"411 209 OFFCURVE",
"411 169 CURVE SMOOTH",
"411 155 OFFCURVE",
"398 149 OFFCURVE",
"375 149 CURVE SMOOTH",
"350 149 OFFCURVE",
"315 158 OFFCURVE",
"281 172 CURVE",
"281 10 LINE"
);
}
);
width = 638;
}
);
leftKerningGroup = n;
leftMetricsKey = n;
rightKerningGroup = germandbls;
rightMetricsKey = o;
unicode = 00DF;
},
{
glyphname = t;
lastChange = "2023-08-29 23:37:09 +0000";
layers = (
{
anchors = (
{
name = Bottom;
position = "{253, 0}";
},
{
name = Top;
position = "{283, 532}";
},
{
name = Top_EC;
position = "{234, 532}";
}
);
hints = (
{
place = "{149, 0}";
type = Stem;
}
);
layerId = "FD4D3FDD-DE85-408F-A52A-FF600B1C6101";
paths = (
{
closed = 1;
nodes = (
"133 30 OFFCURVE",
"174 -13 OFFCURVE",
"277 -13 CURVE SMOOTH",
"300 -13 OFFCURVE",
"315 -10 OFFCURVE",
"332 -3 CURVE",
"332 39 LINE",
"320 31 OFFCURVE",
"304 28 OFFCURVE",
"276 28 CURVE SMOOTH",
"208 28 OFFCURVE",
"181 60 OFFCURVE",
"181 139 CURVE SMOOTH",
"181 478 LINE",
"315 478 LINE",
"315 520 LINE",
"181 520 LINE",
"181 629 LINE",
"133 629 LINE",
"133 518 LINE",
"40 523 LINE",
"40 478 LINE",
"133 478 LINE",
"133 139 LINE SMOOTH"
);
}
);
width = 372;
},
{
anchors = (
{
name = Bottom;
position = "{295, 0}";
},
{
name = Top;
position = "{375, 520}";
},
{
name = Top_EC;
position = "{366, 520}";
}
);
hints = (
{
place = "{149, 0}";
type = Stem;
}
);
layerId = m002;
paths = (
{
closed = 1;
nodes = (
"83 55 OFFCURVE",
"170 -13 OFFCURVE",
"316 -13 CURVE SMOOTH",
"353 -13 OFFCURVE",
"386 -8 OFFCURVE",
"404 0 CURVE",
"404 160 LINE",
"381 151 OFFCURVE",
"351 146 OFFCURVE",
"325 146 CURVE SMOOTH",
"297 146 OFFCURVE",
"281 163 OFFCURVE",
"281 191 CURVE SMOOTH",
"281 370 LINE",
"385 370 LINE",
"385 520 LINE",
"281 520 LINE",
"281 629 LINE",
"83 629 LINE",
"83 518 LINE",
"10 523 LINE",
"10 370 LINE",
"83 370 LINE",
"83 171 LINE SMOOTH"
);
}
);
width = 424;
}
);
leftKerningGroup = t;
rightKerningGroup = t;
unicode = 0074;
},
{
color = 10;
glyphname = tbar;
lastChange = "2023-08-29 22:21:24 +0000";
layers = (
{
layerId = "FD4D3FDD-DE85-408F-A52A-FF600B1C6101";
paths = (
{
closed = 1;
nodes = (
"133 30 OFFCURVE",
"174 -13 OFFCURVE",
"277 -13 CURVE SMOOTH",
"300 -13 OFFCURVE",
"315 -10 OFFCURVE",
"332 -3 CURVE",
"332 39 LINE",
"320 31 OFFCURVE",
"304 28 OFFCURVE",
"276 28 CURVE SMOOTH",
"208 28 OFFCURVE",
"181 60 OFFCURVE",
"181 139 CURVE SMOOTH",
"181 328 LINE",
"315 328 LINE",
"315 370 LINE",
"181 370 LINE",
"181 478 LINE",
"315 478 LINE",
"315 520 LINE",
"181 520 LINE",
"181 629 LINE",
"133 629 LINE",
"133 518 LINE",
"40 523 LINE",
"40 478 LINE",
"133 478 LINE",
"133 368 LINE",
"40 373 LINE",
"40 328 LINE",
"133 328 LINE",
"133 139 LINE SMOOTH"
);
}
);
width = 372;
},
{
layerId = m002;
paths = (
{
closed = 1;
nodes = (
"83 55 OFFCURVE",
"170 -13 OFFCURVE",
"316 -13 CURVE SMOOTH",
"353 -13 OFFCURVE",
"386 -8 OFFCURVE",
"404 0 CURVE",
"404 160 LINE",
"381 151 OFFCURVE",
"351 146 OFFCURVE",
"325 146 CURVE SMOOTH",
"297 146 OFFCURVE",
"281 163 OFFCURVE",
"281 191 CURVE SMOOTH",
"281 230 LINE",
"385 230 LINE",
"385 330 LINE",
"281 330 LINE",
"281 370 LINE",
"385 370 LINE",
"385 520 LINE",
"281 520 LINE",
"281 629 LINE",
"83 629 LINE",
"83 518 LINE",
"10 523 LINE",
"10 370 LINE",
"83 370 LINE",
"83 328 LINE",
"10 333 LINE",
"10 230 LINE",
"83 230 LINE",
"83 171 LINE SMOOTH"
);
}
);
width = 424;
}
);
leftKerningGroup = t;
leftMetricsKey = t;
rightKerningGroup = t;
rightMetricsKey = t;
unicode = 0167;
},
{
color = 10;
glyphname = tdiagonalstroke;
lastChange = "2023-08-29 22:21:24 +0000";
layers = (
{
layerId = "FD4D3FDD-DE85-408F-A52A-FF600B1C6101";
paths = (
{
closed = 1;
nodes = (
"133 131 OFFCURVE",
"133 123 OFFCURVE",
"134 116 CURVE",
"73 -50 LINE",
"114 -50 LINE",
"149 47 LINE",
"170 5 OFFCURVE",
"211 -13 OFFCURVE",
"277 -13 CURVE SMOOTH",
"300 -13 OFFCURVE",
"315 -10 OFFCURVE",
"332 -3 CURVE",
"332 39 LINE",
"320 31 OFFCURVE",
"304 28 OFFCURVE",
"276 28 CURVE SMOOTH",
"210 28 OFFCURVE",
"182 59 OFFCURVE",
"181 134 CURVE",
"307 478 LINE",
"315 478 LINE",
"315 500 LINE",
"336 558 LINE",
"295 558 LINE",
"281 520 LINE",
"181 520 LINE",
"181 629 LINE",
"133 629 LINE",
"133 518 LINE",
"40 523 LINE",
"40 478 LINE",
"133 478 LINE",
"133 139 LINE SMOOTH"
);
},
{
closed = 1;
nodes = (
"181 478 LINE",
"266 478 LINE",
"181 246 LINE"
);
}
);
width = 376;
},
{
layerId = m002;
paths = (
{
closed = 1;
nodes = (
"83 96 OFFCURVE",
"119 41 OFFCURVE",
"184 12 CURVE",
"162 -50 LINE",
"213 -50 LINE",
"230 -4 LINE",
"256 -10 OFFCURVE",
"284 -13 OFFCURVE",
"316 -13 CURVE SMOOTH",
"353 -13 OFFCURVE",
"386 -8 OFFCURVE",
"404 0 CURVE",
"404 160 LINE",
"381 151 OFFCURVE",
"351 146 OFFCURVE",
"325 146 CURVE SMOOTH",
"309 146 OFFCURVE",
"297 151 OFFCURVE",
"290 161 CURVE",
"366 370 LINE",
"385 370 LINE",
"385 421 LINE",
"435 558 LINE",
"384 558 LINE",
"370 520 LINE",
"281 520 LINE",
"281 629 LINE",
"83 629 LINE",
"83 518 LINE",
"10 523 LINE",
"10 370 LINE",
"83 370 LINE",
"83 171 LINE SMOOTH"
);
},
{
closed = 1;
nodes = (
"281 370 LINE",
"315 370 LINE",
"281 276 LINE"
);
}
);
width = 455;
}
);
leftKerningGroup = t;
leftMetricsKey = t;
rightKerningGroup = t;
rightMetricsKey = t;
unicode = 2C66;
},
{
glyphname = u;
lastChange = "2023-09-05 19:40:59 +0000";
layers = (
{
anchors = (
{
name = Bottom;
position = "{235, 0}";
},
{
name = Top;
position = "{234, 520}";
}
);
layerId = "FD4D3FDD-DE85-408F-A52A-FF600B1C6101";
paths = (
{
closed = 1;
nodes = (
"289 -13 OFFCURVE",
"351 23 OFFCURVE",
"377 78 CURVE",
"379 78 LINE",
"369 0 LINE",
"427 0 LINE",
"427 520 LINE",
"379 520 LINE",
"379 207 LINE SMOOTH",
"379 95 OFFCURVE",
"321 29 OFFCURVE",
"223 29 CURVE SMOOTH",
"142 29 OFFCURVE",
"88 81 OFFCURVE",
"88 159 CURVE SMOOTH",
"88 520 LINE",
"40 520 LINE",
"40 147 LINE SMOOTH",
"40 51 OFFCURVE",
"116 -13 OFFCURVE",
"223 -13 CURVE SMOOTH"
);
}
);
width = 467;
},
{
anchors = (
{
name = Bottom;
position = "{280, 0}";
},
{
name = Top;
position = "{289, 520}";
}
);
layerId = m002;
paths = (
{
closed = 1;
nodes = (
"296 -13 OFFCURVE",
"348 8 OFFCURVE",
"374 43 CURVE",
"378 43 LINE",
"361 0 LINE",
"559 0 LINE",
"559 520 LINE",
"361 520 LINE",
"361 222 LINE SMOOTH",
"361 177 OFFCURVE",
"334 149 OFFCURVE",
"289 149 CURVE SMOOTH",
"244 149 OFFCURVE",
"218 177 OFFCURVE",
"218 222 CURVE SMOOTH",
"218 520 LINE",
"20 520 LINE",
"20 170 LINE SMOOTH",
"20 56 OFFCURVE",
"99 -13 OFFCURVE",
"234 -13 CURVE SMOOTH"
);
}
);
width = 579;
}
);
leftKerningGroup = u;
leftMetricsKey = n;
rightKerningGroup = u;
unicode = 0075;
},
{
color = 10;
glyphname = "upsilon-latin";
lastChange = "2023-08-29 22:21:38 +0000";
layers = (
{
layerId = "FD4D3FDD-DE85-408F-A52A-FF600B1C6101";
paths = (
{
closed = 1;
nodes = (
"418 -13 OFFCURVE",
"504 77 OFFCURVE",
"504 229 CURVE SMOOTH",
"504 352 OFFCURVE",
"453 441 OFFCURVE",
"363 477 CURVE",
"504 477 LINE",
"504 520 LINE",
"302 520 LINE",
"302 477 LINE",
"399 451 OFFCURVE",
"456 359 OFFCURVE",
"456 229 CURVE SMOOTH",
"456 103 OFFCURVE",
"388 29 OFFCURVE",
"272 29 CURVE SMOOTH",
"156 29 OFFCURVE",
"88 103 OFFCURVE",
"88 229 CURVE SMOOTH",
"88 359 OFFCURVE",
"145 451 OFFCURVE",
"242 477 CURVE",
"242 520 LINE",
"40 520 LINE",
"40 477 LINE",
"181 477 LINE",
"91 441 OFFCURVE",
"40 352 OFFCURVE",
"40 229 CURVE SMOOTH",
"40 77 OFFCURVE",
"126 -13 OFFCURVE",
"272 -13 CURVE SMOOTH"
);
}
);
width = 544;
},
{
layerId = m002;
paths = (
{
closed = 1;
nodes = (
"499 -13 OFFCURVE",
"607 65 OFFCURVE",
"607 197 CURVE SMOOTH",
"607 276 OFFCURVE",
"565 337 OFFCURVE",
"490 370 CURVE",
"614 370 LINE",
"614 520 LINE",
"347 520 LINE",
"347 370 LINE",
"380 357 OFFCURVE",
"399 316 OFFCURVE",
"399 259 CURVE SMOOTH",
"399 184 OFFCURVE",
"369 139 OFFCURVE",
"317 139 CURVE SMOOTH",
"265 139 OFFCURVE",
"235 184 OFFCURVE",
"235 259 CURVE SMOOTH",
"235 316 OFFCURVE",
"254 357 OFFCURVE",
"287 370 CURVE",
"287 520 LINE",
"20 520 LINE",
"20 370 LINE",
"144 370 LINE",
"69 337 OFFCURVE",
"27 276 OFFCURVE",
"27 197 CURVE SMOOTH",
"27 65 OFFCURVE",
"135 -13 OFFCURVE",
"317 -13 CURVE SMOOTH"
);
}
);
width = 634;
}
);
leftKerningGroup = o;
leftMetricsKey = u;
rightKerningGroup = o;
rightMetricsKey = u;
unicode = 028A;
},
{
glyphname = v;
lastChange = "2023-09-02 20:51:23 +0000";
layers = (
{
anchors = (
{
name = Top;
position = "{239, 520}";
}
);
layerId = "FD4D3FDD-DE85-408F-A52A-FF600B1C6101";
paths = (
{
closed = 1;
nodes = (
"217 0 LINE",
"261 0 LINE",
"458 520 LINE",
"408 520 LINE",
"240 68 LINE",
"238 68 LINE",
"70 520 LINE",
"20 520 LINE"
);
}
);
width = 478;
},
{
anchors = (
{
name = Top;
position = "{329, 520}";
}
);
layerId = m002;
paths = (
{
closed = 1;
nodes = (
"237 0 LINE",
"421 0 LINE",
"648 520 LINE",
"443 520 LINE",
"330 237 LINE",
"328 237 LINE",
"215 520 LINE",
"10 520 LINE"
);
}
);
width = 658;
}
);
leftKerningGroup = v;
leftMetricsKey = "=|k";
rightKerningGroup = v;
rightMetricsKey = k;
unicode = 0076;
},
{
glyphname = w;
lastChange = "2023-08-29 22:21:47 +0000";
layers = (
{
anchors = (
{
name = Top;
position = "{361, 520}";
}
);
layerId = "FD4D3FDD-DE85-408F-A52A-FF600B1C6101";
paths = (
{
closed = 1;
nodes = (
"157 0 LINE",
"207 0 LINE",
"359 447 LINE",
"361 447 LINE",
"513 0 LINE",
"563 0 LINE",
"700 520 LINE",
"650 520 LINE",
"536 83 LINE",
"534 83 LINE",
"385 520 LINE",
"335 520 LINE",
"186 84 LINE",
"184 84 LINE",
"70 520 LINE",
"20 520 LINE"
);
}
);
width = 720;
},
{
anchors = (
{
name = Top;
position = "{423, 520}";
}
);
layerId = m002;
paths = (
{
closed = 1;
nodes = (
"150 0 LINE",
"338 0 LINE",
"423 280 LINE",
"425 280 LINE",
"510 0 LINE",
"698 0 LINE",
"838 520 LINE",
"640 520 LINE",
"585 296 LINE",
"583 296 LINE",
"498 520 LINE",
"350 520 LINE",
"265 296 LINE",
"263 296 LINE",
"208 520 LINE",
"10 520 LINE"
);
}
);
width = 848;
}
);
leftKerningGroup = v;
leftMetricsKey = "=|k";
rightKerningGroup = v;
rightMetricsKey = k;
unicode = 0077;
},
{
glyphname = x;
lastChange = "2023-08-29 22:21:53 +0000";
layers = (
{
anchors = (
{
name = Top;
position = "{235, 520}";
}
);
layerId = "FD4D3FDD-DE85-408F-A52A-FF600B1C6101";
paths = (
{
closed = 1;
nodes = (
"208 260 LINE",
"21 0 LINE",
"76 0 LINE",
"235 222 LINE",
"395 0 LINE",
"450 0 LINE",
"263 260 LINE",
"449 520 LINE",
"394 520 LINE",
"235 298 LINE",
"75 520 LINE",
"20 520 LINE"
);
}
);
width = 470;
},
{
anchors = (
{
name = Top;
position = "{315, 520}";
}
);
layerId = m002;
paths = (
{
closed = 1;
nodes = (
"205 260 LINE",
"11 0 LINE",
"232 0 LINE",
"316 112 LINE",
"400 0 LINE",
"621 0 LINE",
"426 260 LINE",
"620 520 LINE",
"399 520 LINE",
"315 408 LINE",
"231 520 LINE",
"10 520 LINE"
);
}
);
width = 631;
}
);
leftKerningGroup = x;
leftMetricsKey = "=|k";
rightKerningGroup = x;
rightMetricsKey = k;
unicode = 0078;
},
{
glyphname = y;
lastChange = "2023-09-01 23:38:56 +0000";
layers = (
{
anchors = (
{
name = Bottom;
position = "{355, 0}";
},
{
name = Top;
position = "{264, 520}";
}
);
layerId = "FD4D3FDD-DE85-408F-A52A-FF600B1C6101";
paths = (
{
closed = 1;
nodes = (
"507 520 LINE",
"457 520 LINE",
"281 75 LINE",
"279 75 LINE",
"70 520 LINE",
"20 520 LINE",
"257 15 LINE",
"223 -70 LINE SMOOTH",
"199 -130 OFFCURVE",
"161 -161 OFFCURVE",
"113 -161 CURVE SMOOTH",
"94 -161 OFFCURVE",
"72 -158 OFFCURVE",
"61 -152 CURVE",
"61 -200 LINE",
"75 -205 OFFCURVE",
"93 -208 OFFCURVE",
"109 -208 CURVE SMOOTH",
"184 -208 OFFCURVE",
"236 -165 OFFCURVE",
"273 -70 CURVE SMOOTH"
);
}
);
width = 527;
},
{
anchors = (
{
name = Bottom;
position = "{513, 0}";
},
{
name = Top;
position = "{326, 520}";
}
);
hints = (
{
horizontal = 1;
place = "{520, -20}";
target = down;
type = TopGhost;
}
);
layerId = m002;
paths = (
{
closed = 1;
nodes = (
"638 520 LINE",
"440 520 LINE",
"334 266 LINE",
"331.996 266 LINE",
"208 520 LINE",
"10 520 LINE",
"241 46 LINE",
"217 -12 LINE SMOOTH",
"207 -35 OFFCURVE",
"185 -48 OFFCURVE",
"157 -48 CURVE SMOOTH",
"122 -48 OFFCURVE",
"94 -45 OFFCURVE",
"81 -39 CURVE",
"81 -199 LINE",
"97 -204 OFFCURVE",
"121 -207 OFFCURVE",
"146 -207 CURVE SMOOTH",
"266 -207 OFFCURVE",
"341 -198 OFFCURVE",
"403 -48 CURVE SMOOTH"
);
}
);
width = 648;
}
);
leftKerningGroup = y;
leftMetricsKey = "=|k";
rightKerningGroup = y;
rightMetricsKey = k;
unicode = 0079;
},
{
glyphname = z;
lastChange = "2023-08-29 22:22:04 +0000";
layers = (
{
anchors = (
{
name = Bottom;
position = "{220, 0}";
},
{
name = Top;
position = "{231, 520}";
}
);
layerId = "FD4D3FDD-DE85-408F-A52A-FF600B1C6101";
paths = (
{
closed = 1;
nodes = (
"410 520 LINE",
"63 520 LINE",
"63 480 LINE",
"352 480 LINE",
"40 40 LINE",
"40 0 LINE",
"411 0 LINE",
"411 40 LINE",
"98 40 LINE",
"410 480 LINE"
);
}
);
width = 451;
},
{
anchors = (
{
name = Bottom;
position = "{229, 0}";
},
{
name = Top;
position = "{235, 520}";
}
);
layerId = m002;
paths = (
{
closed = 1;
nodes = (
"420 520 LINE",
"30 520 LINE",
"30 370 LINE",
"217 370 LINE",
"20 150 LINE",
"20 0 LINE",
"421 0 LINE",
"421 150 LINE",
"221 150 LINE",
"420 370 LINE"
);
}
);
width = 441;
}
);
leftKerningGroup = z;
leftMetricsKey = n;
rightKerningGroup = z;
unicode = 007A;
},
{
glyphname = a.ss01;
lastChange = "2023-09-21 16:14:23 +0000";
layers = (
{
anchors = (
{
name = Bottom;
position = "{265, 0}";
},
{
name = Ogonek;
position = "{435, 0}";
},
{
name = Top;
position = "{252, 532}";
}
);
layerId = "FD4D3FDD-DE85-408F-A52A-FF600B1C6101";
paths = (
{
closed = 1;
nodes = (
"331 -13 OFFCURVE",
"393 21 OFFCURVE",
"420 78 CURVE",
"422 78 LINE",
"412 0 LINE",
"470 0 LINE",
"470 520 LINE",
"422 520 LINE",
"427 427 LINE",
"425 427 LINE",
"395 493 OFFCURVE",
"327 532 OFFCURVE",
"242 532 CURVE SMOOTH",
"109 532 OFFCURVE",
"30 431 OFFCURVE",
"30 261 CURVE SMOOTH",
"30 89 OFFCURVE",
"113 -13 OFFCURVE",
"253 -13 CURVE SMOOTH"
);
},
{
closed = 1;
nodes = (
"78 405 OFFCURVE",
"141 490 OFFCURVE",
"248 490 CURVE SMOOTH",
"357 490 OFFCURVE",
"422 405 OFFCURVE",
"422 261 CURVE SMOOTH",
"422 115 OFFCURVE",
"359 29 OFFCURVE",
"253 29 CURVE SMOOTH",
"143 29 OFFCURVE",
"78 115 OFFCURVE",
"78 261 CURVE SMOOTH"
);
}
);
width = 510;
},
{
anchors = (
{
name = Bottom;
position = "{295, 0}";
},
{
name = Ogonek;
position = "{516, 0}";
},
{
name = Top;
position = "{291, 532}";
}
);
layerId = m002;
paths = (
{
closed = 1;
nodes = (
"312 -13 OFFCURVE",
"357 7 OFFCURVE",
"388 40 CURVE",
"390 40 LINE",
"380 0 LINE",
"588 0 LINE",
"588 520 LINE",
"390 520 LINE",
"395 497 LINE",
"393 497 LINE",
"365 519 OFFCURVE",
"321 532 OFFCURVE",
"275 532 CURVE SMOOTH",
"108 532 OFFCURVE",
"10 431 OFFCURVE",
"10 261 CURVE SMOOTH",
"10 89 OFFCURVE",
"105 -13 OFFCURVE",
"267 -13 CURVE SMOOTH"
);
},
{
closed = 1;
nodes = (
"218 333 OFFCURVE",
"251 375 OFFCURVE",
"307 375 CURVE SMOOTH",
"359 375 OFFCURVE",
"390 333 OFFCURVE",
"390 261 CURVE SMOOTH",
"390 191 OFFCURVE",
"358 150 OFFCURVE",
"303 150 CURVE SMOOTH",
"250 150 OFFCURVE",
"218 191 OFFCURVE",
"218 261 CURVE SMOOTH"
);
}
);
width = 608;
}
);
leftKerningGroup = o;
leftMetricsKey = a;
rightKerningGroup = n;
rightMetricsKey = n;
subCategory = Letter;
},
{
color = 10;
glyphname = astroke.ss01;
lastChange = "2023-09-21 16:13:12 +0000";
layers = (
{
layerId = "FD4D3FDD-DE85-408F-A52A-FF600B1C6101";
paths = (
{
closed = 1;
nodes = (
"331 -13 OFFCURVE",
"393 21 OFFCURVE",
"420 78 CURVE",
"422 78 LINE",
"412 0 LINE",
"470 0 LINE",
"470 520 LINE",
"422 520 LINE",
"427 427 LINE",
"425 427 LINE",
"412 456 OFFCURVE",
"392 479 OFFCURVE",
"366 497 CURVE",
"388 558 LINE",
"337 558 LINE",
"323 519 LINE",
"298 527 OFFCURVE",
"271 532 OFFCURVE",
"242 532 CURVE SMOOTH",
"109 532 OFFCURVE",
"30 431 OFFCURVE",
"30 261 CURVE SMOOTH",
"30 143 OFFCURVE",
"69 58 OFFCURVE",
"139 16 CURVE",
"115 -50 LINE",
"166 -50 LINE",
"183 -3 LINE",
"204 -10 OFFCURVE",
"228 -13 OFFCURVE",
"253 -13 CURVE SMOOTH"
);
},
{
closed = 1;
nodes = (
"78 405 OFFCURVE",
"141 490 OFFCURVE",
"248 490 CURVE SMOOTH",
"270.002 490 OFFCURVE",
"290 487 OFFCURVE",
"308 480 CURVE",
"155 59 LINE",
"105 96 OFFCURVE",
"78 166 OFFCURVE",
"78 261 CURVE SMOOTH"
);
},
{
closed = 1;
nodes = (
"351 456 LINE",
"397 418 OFFCURVE",
"422 351 OFFCURVE",
"422 261 CURVE SMOOTH",
"422 115 OFFCURVE",
"359 29 OFFCURVE",
"253 29 CURVE SMOOTH",
"233 29 OFFCURVE",
"215 32 OFFCURVE",
"198 37 CURVE"
);
}
);
width = 510;
},
{
layerId = m002;
paths = (
{
closed = 1;
nodes = (
"312 -13 OFFCURVE",
"357 7 OFFCURVE",
"388 40 CURVE",
"390 40 LINE",
"380 0 LINE",
"588 0 LINE",
"588 520 LINE",
"390 520 LINE",
"395 497 LINE",
"393 497 LINE",
"389 500 OFFCURVE",
"385 503 OFFCURVE",
"381 505 CURVE",
"400 558 LINE",
"349 558 LINE",
"337 524 LINE",
"317 529 OFFCURVE",
"296 532 OFFCURVE",
"275 532 CURVE SMOOTH",
"108 532 OFFCURVE",
"10 431 OFFCURVE",
"10 261 CURVE SMOOTH",
"10 136 OFFCURVE",
"60 49 OFFCURVE",
"149 10 CURVE",
"127 -50 LINE",
"178 -50 LINE",
"194 -5 LINE",
"217 -10 OFFCURVE",
"241 -13 OFFCURVE",
"267 -13 CURVE SMOOTH"
);
},
{
closed = 1;
nodes = (
"218 312 OFFCURVE",
"236 354 OFFCURVE",
"273 369 CURVE SMOOTH",
"278 371 OFFCURVE",
"278 371 OFFCURVE",
"281 372 CURVE",
"224 215 LINE",
"220 227 OFFCURVE",
"218 244 OFFCURVE",
"218 261 CURVE SMOOTH"
);
},
{
closed = 1;
nodes = (
"332 371 LINE",
"369 360 OFFCURVE",
"390 321 OFFCURVE",
"390 261 CURVE SMOOTH",
"390 191 OFFCURVE",
"358 150 OFFCURVE",
"303 150 CURVE SMOOTH",
"285 150 OFFCURVE",
"269 155 OFFCURVE",
"256 164 CURVE"
);
}
);
width = 608;
}
);
leftKerningGroup = o;
leftMetricsKey = a;
rightKerningGroup = n;
rightMetricsKey = a;
subCategory = Letter;
},
{
color = 10;
glyphname = germandbls.ss01;
lastChange = "2023-09-21 16:13:17 +0000";
layers = (
{
layerId = "FD4D3FDD-DE85-408F-A52A-FF600B1C6101";
paths = (
{
closed = 1;
nodes = (
"88 0 LINE",
"88 583 LINE SMOOTH",
"88 650 OFFCURVE",
"130 694 OFFCURVE",
"193 694 CURVE SMOOTH",
"250 694 LINE",
"208 663 OFFCURVE",
"184 616 OFFCURVE",
"184 558 CURVE SMOOTH",
"184 373 OFFCURVE",
"476 340 OFFCURVE",
"476 171 CURVE SMOOTH",
"476 86 OFFCURVE",
"412 29 OFFCURVE",
"315 29 CURVE SMOOTH",
"276 29 OFFCURVE",
"224 38 OFFCURVE",
"187 52 CURVE",
"187 10 LINE",
"212 -4 OFFCURVE",
"262 -13 OFFCURVE",
"314 -13 CURVE SMOOTH",
"440 -13 OFFCURVE",
"524 63 OFFCURVE",
"524 177 CURVE SMOOTH",
"524 368 OFFCURVE",
"232 410 OFFCURVE",
"232 562 CURVE SMOOTH",
"232 641 OFFCURVE",
"296 694 OFFCURVE",
"392 694 CURVE",
"392 736 LINE",
"195 736 LINE SMOOTH",
"102 736 OFFCURVE",
"40 670 OFFCURVE",
"40 571 CURVE SMOOTH",
"40 0 LINE"
);
}
);
width = 554;
},
{
layerId = m002;
paths = (
{
closed = 1;
nodes = (
"218 0 LINE",
"218 523 LINE SMOOTH",
"218 554 OFFCURVE",
"236 574 OFFCURVE",
"263 574 CURVE SMOOTH",
"341 574 LINE",
"336 556 OFFCURVE",
"334 538 OFFCURVE",
"334 518 CURVE SMOOTH",
"334 375 OFFCURVE",
"456 297 OFFCURVE",
"456 201 CURVE SMOOTH",
"456 170 OFFCURVE",
"434 149 OFFCURVE",
"401 149 CURVE SMOOTH",
"373 149 OFFCURVE",
"332 158 OFFCURVE",
"297 172 CURVE",
"297 10 LINE",
"322 -4 OFFCURVE",
"372 -13 OFFCURVE",
"424 -13 CURVE SMOOTH",
"568 -13 OFFCURVE",
"664 71 OFFCURVE",
"664 197 CURVE SMOOTH",
"664 375 OFFCURVE",
"542 442 OFFCURVE",
"542 522 CURVE SMOOTH",
"542 553 OFFCURVE",
"558 574 OFFCURVE",
"582 574 CURVE",
"582 736 LINE",
"245 736 LINE SMOOTH",
"108 736 OFFCURVE",
"20 670 OFFCURVE",
"20 571 CURVE SMOOTH",
"20 0 LINE"
);
}
);
width = 674;
}
);
leftKerningGroup = n;
leftMetricsKey = n;
rightKerningGroup = germandbls;
rightMetricsKey = o;
subCategory = Letter;
},
{
color = 10;
glyphname = f_f;
lastChange = "2023-08-29 22:23:21 +0000";
layers = (
{
layerId = "FD4D3FDD-DE85-408F-A52A-FF600B1C6101";
paths = (
{
closed = 1;
nodes = (
"133 518 LINE",
"40 523 LINE",
"40 478 LINE",
"133 478 LINE",
"133 0 LINE",
"181 0 LINE",
"181 478 LINE",
"398 478 LINE",
"398 0 LINE",
"446 0 LINE",
"446 478 LINE",
"570 478 LINE",
"570 520 LINE",
"446 520 LINE",
"446 573 LINE SMOOTH",
"446 650 OFFCURVE",
"490 695 OFFCURVE",
"565 695 CURVE SMOOTH",
"586 695 OFFCURVE",
"609 689 OFFCURVE",
"624 681 CURVE",
"624 723 LINE",
"606 731 OFFCURVE",
"583 736 OFFCURVE",
"566 736 CURVE SMOOTH",
"460 736 OFFCURVE",
"398 675 OFFCURVE",
"398 573 CURVE SMOOTH",
"398 518 LINE",
"305 520 LINE",
"181 520 LINE",
"181 573 LINE SMOOTH",
"181 650 OFFCURVE",
"225 695 OFFCURVE",
"300 695 CURVE SMOOTH",
"321 695 OFFCURVE",
"344 689 OFFCURVE",
"359 681 CURVE",
"359 723 LINE",
"341 731 OFFCURVE",
"318 736 OFFCURVE",
"301 736 CURVE SMOOTH",
"195 736 OFFCURVE",
"133 675 OFFCURVE",
"133 573 CURVE SMOOTH"
);
}
);
width = 634;
},
{
layerId = m002;
paths = (
{
closed = 1;
nodes = (
"93 518 LINE",
"20 523 LINE",
"20 370 LINE",
"93 370 LINE",
"93 0 LINE",
"291 0 LINE",
"291 370 LINE",
"438 370 LINE",
"438 0 LINE",
"636 0 LINE",
"636 370 LINE",
"740 370 LINE",
"740 520 LINE",
"636 520 LINE",
"636 532 LINE SMOOTH",
"636 562 OFFCURVE",
"655 577 OFFCURVE",
"690 577 CURVE SMOOTH",
"706 577 OFFCURVE",
"732 571 OFFCURVE",
"754 563 CURVE",
"754 723 LINE",
"736 731 OFFCURVE",
"707 736 OFFCURVE",
"680 736 CURVE SMOOTH",
"521 736 OFFCURVE",
"438 673 OFFCURVE",
"438 552 CURVE SMOOTH",
"438 518 LINE",
"395 520 LINE",
"291 520 LINE",
"291 532 LINE SMOOTH",
"291 562 OFFCURVE",
"310 577 OFFCURVE",
"345 577 CURVE SMOOTH",
"361 577 OFFCURVE",
"387 571 OFFCURVE",
"409 563 CURVE",
"409 723 LINE",
"391 731 OFFCURVE",
"362 736 OFFCURVE",
"335 736 CURVE SMOOTH",
"176 736 OFFCURVE",
"93 673 OFFCURVE",
"93 552 CURVE SMOOTH"
);
}
);
width = 764;
}
);
leftKerningGroup = f;
leftMetricsKey = f;
rightKerningGroup = f;
rightMetricsKey = f;
unicode = FB00;
},
{
color = 10;
glyphname = f_f_i;
lastChange = "2023-09-06 15:47:01 +0000";
layers = (
{
layerId = "FD4D3FDD-DE85-408F-A52A-FF600B1C6101";
paths = (
{
closed = 1;
nodes = (
"133 518 LINE",
"40 523 LINE",
"40 478 LINE",
"133 478 LINE",
"133 0 LINE",
"181 0 LINE",
"181 478 LINE",
"358 478 LINE",
"358 0 LINE",
"406 0 LINE",
"406 478 LINE",
"624 478 LINE",
"624 0 LINE",
"672 0 LINE",
"672 520 LINE",
"406 520 LINE",
"406 573 LINE SMOOTH",
"406 650 OFFCURVE",
"450 695 OFFCURVE",
"525 695 CURVE SMOOTH",
"546 695 OFFCURVE",
"569 689 OFFCURVE",
"584 681 CURVE",
"584 723 LINE",
"566 731 OFFCURVE",
"543 736 OFFCURVE",
"526 736 CURVE SMOOTH",
"420 736 OFFCURVE",
"358 675 OFFCURVE",
"358 573 CURVE SMOOTH",
"358 518 LINE",
"265 520 LINE",
"181 520 LINE",
"181 573 LINE SMOOTH",
"181 650 OFFCURVE",
"225 695 OFFCURVE",
"300 695 CURVE SMOOTH",
"321 695 OFFCURVE",
"344 689 OFFCURVE",
"359 681 CURVE",
"359 723 LINE",
"341 731 OFFCURVE",
"318 736 OFFCURVE",
"301 736 CURVE SMOOTH",
"195 736 OFFCURVE",
"133 675 OFFCURVE",
"133 573 CURVE SMOOTH"
);
},
{
closed = 1;
nodes = (
"672 654 LINE",
"672 723 LINE",
"624 723 LINE",
"624 654 LINE"
);
}
);
width = 712;
},
{
layerId = m002;
paths = (
{
closed = 1;
nodes = (
"93 518 LINE",
"20 523 LINE",
"20 370 LINE",
"93 370 LINE",
"93 0 LINE",
"291 0 LINE",
"291 370 LINE",
"438 370 LINE",
"438 0 LINE",
"636 0 LINE",
"636 370 LINE",
"780 370 LINE",
"780 0 LINE",
"948 0 LINE",
"948 520 LINE",
"636 520 LINE",
"636 532 LINE SMOOTH",
"636 562 OFFCURVE",
"655 577 OFFCURVE",
"690 577 CURVE SMOOTH",
"706 577 OFFCURVE",
"732 571 OFFCURVE",
"754 563 CURVE",
"754 723 LINE",
"736 731 OFFCURVE",
"707 736 OFFCURVE",
"680 736 CURVE SMOOTH",
"521 736 OFFCURVE",
"438 673 OFFCURVE",
"438 552 CURVE SMOOTH",
"438 518 LINE",
"395 520 LINE",
"291 520 LINE",
"291 532 LINE SMOOTH",
"291 562 OFFCURVE",
"310 577 OFFCURVE",
"345 577 CURVE SMOOTH",
"361 577 OFFCURVE",
"387 571 OFFCURVE",
"409 563 CURVE",
"409 723 LINE",
"391 731 OFFCURVE",
"362 736 OFFCURVE",
"335 736 CURVE SMOOTH",
"176 736 OFFCURVE",
"93 673 OFFCURVE",
"93 552 CURVE SMOOTH"
);
},
{
closed = 1;
nodes = (
"948 553 LINE",
"948 723 LINE",
"780 723 LINE",
"780 553 LINE"
);
}
);
width = 968;
}
);
leftKerningGroup = f;
leftMetricsKey = f;
rightKerningGroup = i;
unicode = FB03;
},
{
color = 10;
glyphname = f_t;
lastChange = "2023-08-29 22:23:21 +0000";
layers = (
{
layerId = "FD4D3FDD-DE85-408F-A52A-FF600B1C6101";
paths = (
{
closed = 1;
nodes = (
"133 518 LINE",
"40 523 LINE",
"40 478 LINE",
"133 478 LINE",
"133 0 LINE",
"181 0 LINE",
"181 478 LINE",
"398 478 LINE",
"398 139 LINE SMOOTH",
"398 30 OFFCURVE",
"439 -13 OFFCURVE",
"542 -13 CURVE SMOOTH",
"565 -13 OFFCURVE",
"580 -10 OFFCURVE",
"597 -3 CURVE",
"597 39 LINE",
"585 31 OFFCURVE",
"569 28 OFFCURVE",
"541 28 CURVE SMOOTH",
"473 28 OFFCURVE",
"446 60 OFFCURVE",
"446 139 CURVE SMOOTH",
"446 478 LINE",
"580 478 LINE",
"580 520 LINE",
"446 520 LINE",
"446 629 LINE",
"398 629 LINE",
"398 518 LINE",
"315 520 LINE",
"181 520 LINE",
"181 573 LINE SMOOTH",
"181 650 OFFCURVE",
"225 695 OFFCURVE",
"300 695 CURVE SMOOTH",
"321 695 OFFCURVE",
"344 689 OFFCURVE",
"359 681 CURVE",
"359 723 LINE",
"341 731 OFFCURVE",
"318 736 OFFCURVE",
"301 736 CURVE SMOOTH",
"195 736 OFFCURVE",
"133 675 OFFCURVE",
"133 573 CURVE SMOOTH"
);
}
);
width = 637;
},
{
layerId = m002;
paths = (
{
closed = 1;
nodes = (
"93 518 LINE",
"20 523 LINE",
"20 370 LINE",
"93 370 LINE",
"93 0 LINE",
"291 0 LINE",
"291 370 LINE",
"435 370 LINE",
"435 171 LINE SMOOTH",
"435 55 OFFCURVE",
"522 -13 OFFCURVE",
"668 -13 CURVE SMOOTH",
"705 -13 OFFCURVE",
"738 -8 OFFCURVE",
"756 0 CURVE",
"756 160 LINE",
"733 151 OFFCURVE",
"703 146 OFFCURVE",
"677 146 CURVE SMOOTH",
"649 146 OFFCURVE",
"633 163 OFFCURVE",
"633 191 CURVE SMOOTH",
"633 370 LINE",
"737 370 LINE",
"737 520 LINE",
"633 520 LINE",
"633 629 LINE",
"435 629 LINE",
"435 518 LINE",
"362 520 LINE",
"291 520 LINE",
"291 532 LINE SMOOTH",
"291 562 OFFCURVE",
"310 577 OFFCURVE",
"345 577 CURVE SMOOTH",
"361 577 OFFCURVE",
"387 571 OFFCURVE",
"409 563 CURVE",
"409 723 LINE",
"391 731 OFFCURVE",
"362 736 OFFCURVE",
"335 736 CURVE SMOOTH",
"176 736 OFFCURVE",
"93 673 OFFCURVE",
"93 552 CURVE SMOOTH"
);
}
);
width = 776;
}
);
leftKerningGroup = f;
leftMetricsKey = f;
rightKerningGroup = t;
rightMetricsKey = t;
unicode = FB05;
},
{
color = 10;
glyphname = fi;
lastChange = "2023-09-06 15:47:01 +0000";
layers = (
{
layerId = "FD4D3FDD-DE85-408F-A52A-FF600B1C6101";
paths = (
{
closed = 1;
nodes = (
"133 518 LINE",
"40 523 LINE",
"40 478 LINE",
"133 478 LINE",
"133 0 LINE",
"181 0 LINE",
"181 478 LINE",
"369 478 LINE",
"369 0 LINE",
"417 0 LINE",
"417 520 LINE",
"181 520 LINE",
"181 575 LINE SMOOTH",
"181 654 OFFCURVE",
"215 695 OFFCURVE",
"280 695 CURVE SMOOTH",
"301 695 OFFCURVE",
"322 690 OFFCURVE",
"339 681 CURVE",
"339 723 LINE",
"321 731 OFFCURVE",
"298 736 OFFCURVE",
"277 736 CURVE SMOOTH",
"182 736 OFFCURVE",
"133 680 OFFCURVE",
"133 572 CURVE SMOOTH"
);
},
{
closed = 1;
nodes = (
"417 654 LINE",
"417 723 LINE",
"369 723 LINE",
"369 654 LINE"
);
}
);
width = 457;
},
{
layerId = m002;
paths = (
{
closed = 1;
nodes = (
"93 518 LINE",
"20 523 LINE",
"20 370 LINE",
"93 370 LINE",
"93 0 LINE",
"291 0 LINE",
"291 370 LINE",
"439 370 LINE",
"439 0 LINE",
"637 0 LINE",
"637 520 LINE",
"291 520 LINE",
"291 532 LINE SMOOTH",
"291 562 OFFCURVE",
"310 577 OFFCURVE",
"345 577 CURVE SMOOTH",
"361 577 OFFCURVE",
"387 571 OFFCURVE",
"409 563 CURVE",
"409 723 LINE",
"391 731 OFFCURVE",
"362 736 OFFCURVE",
"335 736 CURVE SMOOTH",
"176 736 OFFCURVE",
"93 673 OFFCURVE",
"93 552 CURVE SMOOTH"
);
},
{
closed = 1;
nodes = (
"637 553 LINE",
"637 723 LINE",
"439 723 LINE",
"439 553 LINE"
);
}
);
width = 657;
}
);
leftKerningGroup = f;
leftMetricsKey = f;
rightKerningGroup = i;
unicode = FB01;
},
{
color = 10;
glyphname = fl;
lastChange = "2023-08-29 22:23:21 +0000";
layers = (
{
layerId = "FD4D3FDD-DE85-408F-A52A-FF600B1C6101";
paths = (
{
closed = 1;
nodes = (
"359 520 LINE",
"181 520 LINE",
"181 575 LINE SMOOTH",
"181 654 OFFCURVE",
"215 695 OFFCURVE",
"280 695 CURVE SMOOTH",
"301 695 OFFCURVE",
"322 690 OFFCURVE",
"339 681 CURVE",
"339 723 LINE",
"321 731 OFFCURVE",
"298 736 OFFCURVE",
"277 736 CURVE SMOOTH",
"182 736 OFFCURVE",
"133 680 OFFCURVE",
"133 572 CURVE SMOOTH",
"133 518 LINE",
"40 523 LINE",
"40 478 LINE",
"133 478 LINE",
"133 0 LINE",
"181 0 LINE",
"181 478 LINE",
"359 478 LINE",
"359 0 LINE",
"407 0 LINE",
"407 704 LINE",
"359 723 LINE"
);
}
);
width = 447;
},
{
layerId = m002;
paths = (
{
closed = 1;
nodes = (
"439 520 LINE",
"291 520 LINE",
"291 532 LINE SMOOTH",
"291 562 OFFCURVE",
"310 577 OFFCURVE",
"345 577 CURVE SMOOTH",
"361 577 OFFCURVE",
"387 571 OFFCURVE",
"409 563 CURVE",
"409 723 LINE",
"391 731 OFFCURVE",
"362 736 OFFCURVE",
"335 736 CURVE SMOOTH",
"176 736 OFFCURVE",
"93 673 OFFCURVE",
"93 552 CURVE SMOOTH",
"93 518 LINE",
"20 523 LINE",
"20 370 LINE",
"93 370 LINE",
"93 0 LINE",
"291 0 LINE",
"291 370 LINE",
"439 370 LINE",
"439 0 LINE",
"607 0 LINE",
"607 669 LINE",
"439 723 LINE"
);
}
);
width = 627;
}
);
leftKerningGroup = f;
leftMetricsKey = f;
rightKerningGroup = l;
rightMetricsKey = l;
unicode = FB02;
},
{
color = 10;
glyphname = clickalveolar;
lastChange = "2023-08-29 22:23:31 +0000";
layers = (
{
layerId = "FD4D3FDD-DE85-408F-A52A-FF600B1C6101";
paths = (
{
closed = 1;
nodes = (
"180 518 LINE",
"40 523 LINE",
"40 478 LINE",
"180 478 LINE",
"180 369 LINE",
"40 374 LINE",
"40 329 LINE",
"180 329 LINE",
"180 -182 LINE",
"230 -182 LINE",
"230 329 LINE",
"365 329 LINE",
"365 371 LINE",
"230 371 LINE",
"230 478 LINE",
"365 478 LINE",
"365 520 LINE",
"230 520 LINE",
"230 714 LINE",
"180 714 LINE"
);
}
);
width = 405;
},
{
layerId = m002;
paths = (
{
closed = 1;
nodes = (
"148 523 LINE",
"10 528 LINE",
"10 375 LINE",
"148 375 LINE",
"148 283 LINE",
"10 288 LINE",
"10 135 LINE",
"148 135 LINE",
"148 -182 LINE",
"298 -182 LINE",
"298 135 LINE",
"435 135 LINE",
"435 285 LINE",
"298 285 LINE",
"298 375 LINE",
"435 375 LINE",
"435 525 LINE",
"298 525 LINE",
"298 714 LINE",
"148 714 LINE"
);
}
);
width = 455;
}
);
leftKerningGroup = t;
leftMetricsKey = t;
rightKerningGroup = t;
rightMetricsKey = t;
unicode = 01C2;
},
{
color = 10;
glyphname = ordfeminine;
lastChange = "2023-08-29 22:28:49 +0000";
layers = (
{
layerId = "FD4D3FDD-DE85-408F-A52A-FF600B1C6101";
paths = (
{
closed = 1;
nodes = (
"180 433 OFFCURVE",
"216 454 OFFCURVE",
"231 486 CURVE",
"232 486 LINE",
"230 439 LINE",
"269 439 LINE",
"269 707 LINE",
"231 707 LINE",
"232 660 LINE",
"231 660 LINE",
"216 692 OFFCURVE",
"181 714 OFFCURVE",
"144 714 CURVE SMOOTH",
"76 714 OFFCURVE",
"30 658 OFFCURVE",
"30 574 CURVE SMOOTH",
"30 489 OFFCURVE",
"75 433 OFFCURVE",
"142 433 CURVE SMOOTH"
);
},
{
closed = 1;
nodes = (
"68 639 OFFCURVE",
"101 682 OFFCURVE",
"150 682 CURVE SMOOTH",
"199 682 OFFCURVE",
"231 639 OFFCURVE",
"231 574 CURVE SMOOTH",
"231 508 OFFCURVE",
"198 464 OFFCURVE",
"148 464 CURVE SMOOTH",
"100 464 OFFCURVE",
"68 508 OFFCURVE",
"68 574 CURVE SMOOTH"
);
}
);
width = 309;
},
{
layerId = m002;
paths = (
{
closed = 1;
nodes = (
"166 433 OFFCURVE",
"194 443 OFFCURVE",
"205 459 CURVE",
"207 459 LINE",
"205 439 LINE",
"306 439 LINE",
"306 707 LINE",
"205 707 LINE",
"207 690 LINE",
"205 690 LINE",
"194 704 OFFCURVE",
"169 713 OFFCURVE",
"142 713 CURVE SMOOTH",
"63 713 OFFCURVE",
"10 657 OFFCURVE",
"10 573 CURVE SMOOTH",
"10 489 OFFCURVE",
"60 433 OFFCURVE",
"135 433 CURVE SMOOTH"
);
},
{
closed = 1;
nodes = (
"121 604 OFFCURVE",
"138 624 OFFCURVE",
"163 624 CURVE SMOOTH",
"188 624 OFFCURVE",
"205 604 OFFCURVE",
"205 573 CURVE SMOOTH",
"205 542 OFFCURVE",
"188 522 OFFCURVE",
"163 522 CURVE SMOOTH",
"138 522 OFFCURVE",
"121 542 OFFCURVE",
"121 573 CURVE SMOOTH"
);
}
);
width = 326;
}
);
leftKerningGroup = o;
leftMetricsKey = a;
rightKerningGroup = n;
rightMetricsKey = a;
unicode = 00AA;
},
{
color = 10;
glyphname = ordmasculine;
lastChange = "2023-08-29 22:28:49 +0000";
layers = (
{
layerId = "FD4D3FDD-DE85-408F-A52A-FF600B1C6101";
paths = (
{
closed = 1;
nodes = (
"78 714 OFFCURVE",
"30 658 OFFCURVE",
"30 573 CURVE SMOOTH",
"30 489 OFFCURVE",
"78 433 OFFCURVE",
"149 433 CURVE SMOOTH",
"221 433 OFFCURVE",
"269 489 OFFCURVE",
"269 573 CURVE SMOOTH",
"269 658 OFFCURVE",
"221 714 OFFCURVE",
"149 714 CURVE SMOOTH"
);
},
{
closed = 1;
nodes = (
"68 638 OFFCURVE",
"100 682 OFFCURVE",
"149 682 CURVE SMOOTH",
"198 682 OFFCURVE",
"231 638 OFFCURVE",
"231 573 CURVE SMOOTH",
"231 508 OFFCURVE",
"198 465 OFFCURVE",
"149 465 CURVE SMOOTH",
"100 465 OFFCURVE",
"68 508 OFFCURVE",
"68 573 CURVE SMOOTH"
);
}
);
width = 299;
},
{
layerId = m002;
paths = (
{
closed = 1;
nodes = (
"65 713 OFFCURVE",
"10 661 OFFCURVE",
"10 572 CURVE SMOOTH",
"10 484 OFFCURVE",
"65 432 OFFCURVE",
"158 432 CURVE SMOOTH",
"252 432 OFFCURVE",
"307 484 OFFCURVE",
"307 572 CURVE SMOOTH",
"307 661 OFFCURVE",
"252 713 OFFCURVE",
"158 713 CURVE SMOOTH"
);
},
{
closed = 1;
nodes = (
"121 605 OFFCURVE",
"135 624 OFFCURVE",
"158 624 CURVE SMOOTH",
"182 624 OFFCURVE",
"196 605 OFFCURVE",
"196 572 CURVE SMOOTH",
"196 540 OFFCURVE",
"182 521 OFFCURVE",
"158 521 CURVE SMOOTH",
"135 521 OFFCURVE",
"121 540 OFFCURVE",
"121 572 CURVE SMOOTH"
);
}
);
width = 317;
}
);
leftKerningGroup = o;
leftMetricsKey = o;
rightKerningGroup = o;
rightMetricsKey = o;
unicode = 00BA;
},
{
color = 10;
glyphname = "Be-cy";
lastChange = "2023-08-29 19:18:16 +0000";
layers = (
{
layerId = "FD4D3FDD-DE85-408F-A52A-FF600B1C6101";
paths = (
{
closed = 1;
nodes = (
"310 0 LINE SMOOTH",
"443 0 OFFCURVE",
"522 74 OFFCURVE",
"522 198 CURVE SMOOTH",
"522 324 OFFCURVE",
"439 398 OFFCURVE",
"298 398 CURVE SMOOTH",
"90 398 LINE",
"90 666 LINE",
"502 666 LINE",
"502 714 LINE",
"40 714 LINE",
"40 0 LINE"
);
},
{
closed = 1;
nodes = (
"90 351 LINE",
"298 351 LINE SMOOTH",
"407 351 OFFCURVE",
"472 293 OFFCURVE",
"472 196 CURVE SMOOTH",
"472 103 OFFCURVE",
"411 48 OFFCURVE",
"308 48 CURVE SMOOTH",
"90 48 LINE"
);
}
);
width = 562;
},
{
layerId = m002;
paths = (
{
closed = 1;
nodes = (
"360 0 LINE SMOOTH",
"525 0 OFFCURVE",
"622 84 OFFCURVE",
"622 225 CURVE SMOOTH",
"622 366 OFFCURVE",
"520 449 OFFCURVE",
"348 449 CURVE SMOOTH",
"230 449 LINE",
"230 546 LINE",
"592 546 LINE",
"592 714 LINE",
"20 714 LINE",
"20 0 LINE"
);
},
{
closed = 1;
nodes = (
"230 281 LINE",
"348 281 LINE SMOOTH",
"382 281 OFFCURVE",
"402 260 OFFCURVE",
"402 225 CURVE SMOOTH",
"402 189 OFFCURVE",
"386 168 OFFCURVE",
"358 168 CURVE SMOOTH",
"230 168 LINE"
);
}
);
width = 642;
}
);
leftKerningGroup = H;
leftMetricsKey = H;
rightKerningGroup = E;
rightMetricsKey = E;
unicode = 0411;
},
{
color = 10;
glyphname = "Ge-cy";
lastChange = "2023-08-29 19:18:16 +0000";
layers = (
{
anchors = (
{
name = Bottom;
position = "{284, 0}";
},
{
name = Top;
position = "{279, 714}";
}
);
layerId = "FD4D3FDD-DE85-408F-A52A-FF600B1C6101";
paths = (
{
closed = 1;
nodes = (
"90 666 LINE",
"502 666 LINE",
"502 714 LINE",
"40 714 LINE",
"40 0 LINE",
"90 0 LINE"
);
}
);
width = 522;
},
{
anchors = (
{
name = Bottom;
position = "{314, 0}";
},
{
name = Top;
position = "{309, 714}";
}
);
layerId = m002;
paths = (
{
closed = 1;
nodes = (
"230 546 LINE",
"562 546 LINE",
"562 714 LINE",
"20 714 LINE",
"20 0 LINE",
"230 0 LINE"
);
}
);
width = 572;
}
);
leftKerningGroup = H;
leftMetricsKey = H;
rightKerningGroup = "Ge-cy";
rightMetricsKey = T;
unicode = 0413;
},
{
color = 10;
glyphname = "Geupturn-cy";
lastChange = "2023-08-29 19:55:39 +0000";
layers = (
{
layerId = "FD4D3FDD-DE85-408F-A52A-FF600B1C6101";
paths = (
{
closed = 1;
nodes = (
"90 666 LINE",
"527 666 LINE",
"527 752 LINE",
"477 752 LINE",
"477 714 LINE",
"40 714 LINE",
"40 0 LINE",
"90 0 LINE"
);
}
);
width = 547;
},
{
layerId = m002;
paths = (
{
closed = 1;
nodes = (
"230 546 LINE",
"666 546 LINE",
"666 772 LINE",
"456 772 LINE",
"456 714 LINE",
"20 714 LINE",
"20 0 LINE",
"230 0 LINE"
);
}
);
width = 676;
}
);
leftKerningGroup = H;
leftMetricsKey = "Ge-cy";
rightKerningGroup = "Ge-cy";
rightMetricsKey = "Ge-cy";
unicode = 0490;
},
{
color = 10;
glyphname = "Gedescender-cy";
lastChange = "2023-08-29 21:43:33 +0000";
layers = (
{
layerId = "FD4D3FDD-DE85-408F-A52A-FF600B1C6101";
paths = (
{
closed = 1;
nodes = (
"90 -100 LINE",
"140 -100 LINE",
"140 48 LINE",
"90 48 LINE",
"90 666 LINE",
"502 666 LINE",
"502 714 LINE",
"40 714 LINE",
"40 0 LINE",
"90 0 LINE"
);
}
);
width = 522;
},
{
layerId = m002;
paths = (
{
closed = 1;
nodes = (
"230 -100 LINE",
"440 -100 LINE",
"440 168 LINE",
"230 168 LINE",
"230 546 LINE",
"562 546 LINE",
"562 714 LINE",
"20 714 LINE",
"20 0 LINE",
"230 0 LINE"
);
}
);
width = 572;
}
);
leftKerningGroup = H;
leftMetricsKey = "Ge-cy";
rightKerningGroup = "Ge-cy";
rightMetricsKey = "Ge-cy";
unicode = 04F6;
},
{
color = 10;
glyphname = "Gestroke-cy";
lastChange = "2023-08-29 19:55:39 +0000";
layers = (
{
layerId = "FD4D3FDD-DE85-408F-A52A-FF600B1C6101";
paths = (
{
closed = 1;
nodes = (
"150 344 LINE",
"470 344 LINE",
"470 384 LINE",
"150 384 LINE",
"150 666 LINE",
"562 666 LINE",
"562 714 LINE",
"100 714 LINE",
"100 384 LINE",
"40 384 LINE",
"40 344 LINE",
"100 344 LINE",
"100 0 LINE",
"150 0 LINE"
);
}
);
width = 582;
},
{
layerId = m002;
paths = (
{
closed = 1;
nodes = (
"290 233 LINE",
"575 233 LINE",
"575 383 LINE",
"290 383 LINE",
"290 546 LINE",
"622 546 LINE",
"622 714 LINE",
"80 714 LINE",
"80 383 LINE",
"20 383 LINE",
"20 233 LINE",
"80 233 LINE",
"80 0 LINE",
"290 0 LINE"
);
}
);
width = 632;
}
);
leftKerningGroup = "Ge-cy";
leftMetricsKey = "Ge-cy";
rightKerningGroup = "Ge-cy";
rightMetricsKey = "Ge-cy";
unicode = 0492;
},
{
color = 10;
glyphname = "Gemiddlehook-cy";
lastChange = "2023-08-29 21:43:33 +0000";
layers = (
{
layerId = "FD4D3FDD-DE85-408F-A52A-FF600B1C6101";
paths = (
{
closed = 1;
nodes = (
"500 349 OFFCURVE",
"416 432 OFFCURVE",
"275 432 CURVE SMOOTH",
"203 432 OFFCURVE",
"134 403 OFFCURVE",
"88 353 CURVE",
"86 353 LINE",
"95 420 LINE",
"95 666 LINE",
"502 666 LINE",
"502 714 LINE",
"40 714 LINE",
"40 0 LINE",
"90 0 LINE",
"90 290 LINE",
"139 348 OFFCURVE",
"207 382 OFFCURVE",
"273 382 CURVE SMOOTH",
"386 382 OFFCURVE",
"453 317 OFFCURVE",
"453 208 CURVE SMOOTH",
"453 90 OFFCURVE",
"408 -13 OFFCURVE",
"332 -69 CURVE",
"363 -105 LINE",
"449 -43 OFFCURVE",
"500 73 OFFCURVE",
"500 208 CURVE SMOOTH"
);
}
);
width = 532;
},
{
layerId = m002;
paths = (
{
closed = 1;
nodes = (
"688 327 OFFCURVE",
"579 432 OFFCURVE",
"395 432 CURVE SMOOTH",
"326 432 OFFCURVE",
"263 413 OFFCURVE",
"223 382 CURVE",
"221 382 LINE",
"230 439 LINE",
"230 546 LINE",
"652 546 LINE",
"652 714 LINE",
"20 714 LINE",
"20 0 LINE",
"230 0 LINE",
"230 189 LINE",
"270 236 OFFCURVE",
"324 264 OFFCURVE",
"375 264 CURVE SMOOTH",
"433 264 OFFCURVE",
"468 221 OFFCURVE",
"468 148 CURVE SMOOTH",
"468 63 OFFCURVE",
"432 -5 OFFCURVE",
"370 -35 CURVE",
"486 -166 LINE",
"613 -84 OFFCURVE",
"688 33 OFFCURVE",
"688 148 CURVE SMOOTH"
);
}
);
width = 698;
}
);
leftKerningGroup = H;
leftMetricsKey = H;
rightKerningGroup = "Dje-cy";
rightMetricsKey = b;
unicode = 0494;
},
{
color = 10;
glyphname = "De-cy";
lastChange = "2023-08-29 19:18:16 +0000";
layers = (
{
layerId = "FD4D3FDD-DE85-408F-A52A-FF600B1C6101";
paths = (
{
closed = 1;
nodes = (
"218 714 LINE",
"178 163 LINE SMOOTH",
"172 87 OFFCURVE",
"129 48 OFFCURVE",
"52 48 CURVE SMOOTH",
"30 48 LINE",
"30 -100 LINE",
"80 -100 LINE",
"80 0 LINE",
"620 0 LINE",
"620 -100 LINE",
"670 -100 LINE",
"670 48 LINE",
"620 48 LINE",
"620 714 LINE"
);
},
{
closed = 1;
nodes = (
"209 75 OFFCURVE",
"224 114 OFFCURVE",
"228 163 CURVE SMOOTH",
"265 666 LINE",
"570 666 LINE",
"570 48 LINE",
"183 48 LINE"
);
}
);
width = 690;
},
{
layerId = m002;
paths = (
{
closed = 1;
nodes = (
"282 714 LINE",
"242 291 LINE SMOOTH",
"234 210 OFFCURVE",
"194 168 OFFCURVE",
"124 168 CURVE SMOOTH",
"20 168 LINE",
"20 -100 LINE",
"230 -100 LINE",
"230 0 LINE",
"687 0 LINE",
"687 -100 LINE",
"897 -100 LINE",
"897 168 LINE",
"792 168 LINE",
"792 714 LINE"
);
},
{
closed = 1;
nodes = (
"438 204 OFFCURVE",
"448 246 OFFCURVE",
"452 293 CURVE SMOOTH",
"476 546 LINE",
"582 546 LINE",
"582 168 LINE",
"424 168 LINE"
);
}
);
width = 917;
}
);
leftKerningGroup = "De-cy";
leftMetricsKey = J;
rightKerningGroup = "De-cy";
rightMetricsKey = L;
unicode = 0414;
},
{
color = 10;
glyphname = "Zhe-cy";
lastChange = "2023-08-29 19:18:16 +0000";
layers = (
{
anchors = (
{
name = Bottom;
position = "{335, 0}";
},
{
name = Top;
position = "{335, 714}";
}
);
layerId = "FD4D3FDD-DE85-408F-A52A-FF600B1C6101";
paths = (
{
closed = 1;
nodes = (
"360 326 LINE",
"362 326 LINE",
"591 0 LINE",
"650 0 LINE",
"399 357 LINE",
"650 714 LINE",
"591 714 LINE",
"362 388 LINE",
"360 388 LINE",
"360 714 LINE",
"310 714 LINE",
"310 388 LINE",
"308 388 LINE",
"79 714 LINE",
"20 714 LINE",
"271 357 LINE",
"20 0 LINE",
"79 0 LINE",
"308 326 LINE",
"310 326 LINE",
"310 0 LINE",
"360 0 LINE"
);
}
);
width = 670;
},
{
anchors = (
{
name = Bottom;
position = "{557, 0}";
},
{
name = Top;
position = "{557, 714}";
}
);
layerId = m002;
paths = (
{
closed = 1;
nodes = (
"662 282 LINE",
"665 282 LINE",
"865 0 LINE",
"1094 0 LINE",
"841 357 LINE",
"1094 714 LINE",
"865 714 LINE",
"664 431 LINE",
"662 431 LINE",
"662 714 LINE",
"452 714 LINE",
"452 431 LINE",
"450 431 LINE",
"249 714 LINE",
"20 714 LINE",
"273 357 LINE",
"20 0 LINE",
"249 0 LINE",
"449 282 LINE",
"452 282 LINE",
"452 0 LINE",
"662 0 LINE"
);
}
);
width = 1114;
}
);
leftKerningGroup = "Zhe-cy";
leftMetricsKey = A;
rightKerningGroup = "Zhe-cy";
rightMetricsKey = A;
unicode = 0416;
},
{
color = 10;
glyphname = "Ze-cy";
lastChange = "2023-08-29 19:18:16 +0000";
layers = (
{
anchors = (
{
name = Bottom;
position = "{265, 0}";
},
{
name = Top;
position = "{265, 714}";
}
);
layerId = "FD4D3FDD-DE85-408F-A52A-FF600B1C6101";
paths = (
{
closed = 1;
nodes = (
"456 100 OFFCURVE",
"381 35 OFFCURVE",
"268 35 CURVE SMOOTH",
"155 35 OFFCURVE",
"80 98 OFFCURVE",
"80 193 CURVE",
"30 193 LINE",
"30 69 OFFCURVE",
"125 -13 OFFCURVE",
"268 -13 CURVE SMOOTH",
"411 -13 OFFCURVE",
"506 71 OFFCURVE",
"506 197 CURVE SMOOTH",
"506 285 OFFCURVE",
"448 355 OFFCURVE",
"361 371 CURVE",
"361 373 LINE",
"434 399 OFFCURVE",
"483 462 OFFCURVE",
"483 530 CURVE SMOOTH",
"483 647 OFFCURVE",
"396 725 OFFCURVE",
"265 725 CURVE SMOOTH",
"128 725 OFFCURVE",
"37 647 OFFCURVE",
"37 529 CURVE",
"87 529 LINE",
"87 618 OFFCURVE",
"158 677 OFFCURVE",
"265 677 CURVE SMOOTH",
"366 677 OFFCURVE",
"433 618 OFFCURVE",
"433 530 CURVE SMOOTH",
"433 450 OFFCURVE",
"366 396 OFFCURVE",
"265 396 CURVE SMOOTH",
"218 396 LINE",
"218 348 LINE",
"265 348 LINE SMOOTH",
"380 348 OFFCURVE",
"456 288 OFFCURVE",
"456 197 CURVE SMOOTH"
);
}
);
width = 536;
},
{
anchors = (
{
name = Bottom;
position = "{299, 0}";
},
{
name = Top;
position = "{299, 714}";
}
);
layerId = m002;
paths = (
{
closed = 1;
nodes = (
"405 184 OFFCURVE",
"367 155 OFFCURVE",
"304 155 CURVE SMOOTH",
"247 155 OFFCURVE",
"213 184 OFFCURVE",
"213 233 CURVE",
"13 233 LINE",
"13 78 OFFCURVE",
"121 -13 OFFCURVE",
"304 -13 CURVE SMOOTH",
"493 -13 OFFCURVE",
"605 72 OFFCURVE",
"605 217 CURVE SMOOTH",
"605 289 OFFCURVE",
"564 346 OFFCURVE",
"494 371 CURVE",
"494 373 LINE",
"549 399 OFFCURVE",
"582 450 OFFCURVE",
"582 511 CURVE SMOOTH",
"582 646 OFFCURVE",
"478 726 OFFCURVE",
"302 726 CURVE SMOOTH",
"118 726 OFFCURVE",
"10 635 OFFCURVE",
"10 480 CURVE",
"210 480 LINE",
"210 529 OFFCURVE",
"244 558 OFFCURVE",
"302 558 CURVE SMOOTH",
"352 558 OFFCURVE",
"382 535 OFFCURVE",
"382 497 CURVE SMOOTH",
"382 459 OFFCURVE",
"355 437 OFFCURVE",
"308 437 CURVE SMOOTH",
"256 437 LINE",
"256 307 LINE",
"308 307 LINE SMOOTH",
"369 307 OFFCURVE",
"405 279 OFFCURVE",
"405 232 CURVE SMOOTH"
);
}
);
width = 615;
}
);
leftKerningGroup = "Ze-cy";
leftMetricsKey = O;
rightKerningGroup = "Ze-cy";
rightMetricsKey = O;
unicode = 0417;
},
{
color = 10;
glyphname = "Ii-cy";
lastChange = "2023-08-29 19:18:16 +0000";
layers = (
{
anchors = (
{
name = Bottom;
position = "{304, 0}";
},
{
name = Top;
position = "{299, 714}";
}
);
layerId = "FD4D3FDD-DE85-408F-A52A-FF600B1C6101";
paths = (
{
closed = 1;
nodes = (
"92 88 LINE",
"90 88 LINE",
"90 714 LINE",
"40 714 LINE",
"40 0 LINE",
"90 0 LINE",
"513 626 LINE",
"515 626 LINE",
"515 0 LINE",
"565 0 LINE",
"565 714 LINE",
"515 714 LINE"
);
}
);
width = 605;
},
{
anchors = (
{
name = Bottom;
position = "{368, 0}";
},
{
name = Top;
position = "{363, 714}";
}
);
layerId = m002;
paths = (
{
closed = 1;
nodes = (
"232 335 LINE",
"230 335 LINE",
"230 714 LINE",
"20 714 LINE",
"20 0 LINE",
"230 0 LINE",
"503 379 LINE",
"505 379 LINE",
"505 0 LINE",
"715 0 LINE",
"715 714 LINE",
"505 714 LINE"
);
}
);
width = 735;
}
);
leftKerningGroup = H;
leftMetricsKey = N;
rightKerningGroup = H;
rightMetricsKey = N;
unicode = 0418;
},
{
color = 10;
glyphname = "Ka-cy";
lastChange = "2023-08-29 19:18:16 +0000";
layers = (
{
anchors = (
{
name = Bottom;
position = "{234, 0}";
},
{
name = Top;
position = "{229, 714}";
}
);
layerId = "FD4D3FDD-DE85-408F-A52A-FF600B1C6101";
paths = (
{
closed = 1;
nodes = (
"40 0 LINE",
"90 0 LINE",
"90 369 LINE",
"92 369 LINE",
"416 0 LINE",
"486 0 LINE",
"146 383 LINE",
"486 714 LINE",
"416 714 LINE",
"93 401 LINE",
"90 401 LINE",
"90 714 LINE",
"40 714 LINE"
);
}
);
width = 506;
},
{
anchors = (
{
name = Bottom;
position = "{358, 0}";
},
{
name = Top;
position = "{353, 714}";
}
);
layerId = m002;
paths = (
{
closed = 1;
nodes = (
"20 0 LINE",
"230 0 LINE",
"230 288 LINE",
"233 288 LINE",
"486 0 LINE",
"756 0 LINE",
"416 383 LINE",
"756 714 LINE",
"486 714 LINE",
"232 468 LINE",
"230 468 LINE",
"230 714 LINE",
"20 714 LINE"
);
}
);
width = 776;
}
);
leftKerningGroup = H;
leftMetricsKey = K;
rightKerningGroup = K;
rightMetricsKey = K;
unicode = 041A;
},
{
color = 10;
glyphname = "El-cy";
lastChange = "2023-08-29 19:18:16 +0000";
layers = (
{
layerId = "FD4D3FDD-DE85-408F-A52A-FF600B1C6101";
paths = (
{
closed = 1;
nodes = (
"177 714 LINE",
"177 163 LINE SMOOTH",
"177 90 OFFCURVE",
"141 47 OFFCURVE",
"79 47 CURVE SMOOTH",
"60 47 OFFCURVE",
"42 48 OFFCURVE",
"30 51 CURVE",
"30 3 LINE",
"45 1 OFFCURVE",
"63 0 OFFCURVE",
"78 0 CURVE SMOOTH",
"172 0 OFFCURVE",
"227 61 OFFCURVE",
"227 163 CURVE SMOOTH",
"227 666 LINE",
"569 666 LINE",
"569 0 LINE",
"619 0 LINE",
"619 714 LINE"
);
}
);
width = 659;
},
{
layerId = m002;
paths = (
{
closed = 1;
nodes = (
"107 714 LINE",
"107 219 LINE SMOOTH",
"107 186 OFFCURVE",
"89 167 OFFCURVE",
"59 167 CURVE SMOOTH",
"41 167 OFFCURVE",
"33 168 OFFCURVE",
"20 171 CURVE",
"20 3 LINE",
"31 1 OFFCURVE",
"57 0 OFFCURVE",
"88 0 CURVE SMOOTH",
"232 0 OFFCURVE",
"317 83 OFFCURVE",
"317 223 CURVE SMOOTH",
"317 546 LINE",
"517 546 LINE",
"517 0 LINE",
"727 0 LINE",
"727 714 LINE"
);
}
);
width = 747;
}
);
leftKerningGroup = "El-cy";
leftMetricsKey = J;
rightKerningGroup = N;
rightMetricsKey = N;
unicode = 041B;
},
{
color = 10;
glyphname = "Pe-cy";
lastChange = "2023-08-29 19:18:16 +0000";
layers = (
{
layerId = "FD4D3FDD-DE85-408F-A52A-FF600B1C6101";
paths = (
{
closed = 1;
nodes = (
"90 666 LINE",
"534 666 LINE",
"534 0 LINE",
"584 0 LINE",
"584 714 LINE",
"40 714 LINE",
"40 0 LINE",
"90 0 LINE"
);
}
);
width = 624;
},
{
layerId = m002;
paths = (
{
closed = 1;
nodes = (
"230 546 LINE",
"484 546 LINE",
"484 0 LINE",
"694 0 LINE",
"694 714 LINE",
"20 714 LINE",
"20 0 LINE",
"230 0 LINE"
);
}
);
width = 714;
}
);
leftKerningGroup = H;
leftMetricsKey = H;
rightKerningGroup = H;
rightMetricsKey = H;
unicode = 041F;
},
{
color = 10;
glyphname = "U-cy";
lastChange = "2023-08-29 19:18:16 +0000";
layers = (
{
anchors = (
{
name = Top;
position = "{264, 714}";
}
);
layerId = "FD4D3FDD-DE85-408F-A52A-FF600B1C6101";
paths = (
{
closed = 1;
nodes = (
"507 714 LINE",
"457 714 LINE",
"281 270 LINE",
"279 270 LINE",
"70 714 LINE",
"20 714 LINE",
"257 210 LINE",
"223 125 LINE SMOOTH",
"199 65 OFFCURVE",
"161 34 OFFCURVE",
"113 34 CURVE SMOOTH",
"94 34 OFFCURVE",
"72 37 OFFCURVE",
"61 43 CURVE",
"61 -5 LINE",
"75 -10 OFFCURVE",
"93 -13 OFFCURVE",
"109 -13 CURVE SMOOTH",
"184 -13 OFFCURVE",
"235 30 OFFCURVE",
"273 125 CURVE SMOOTH"
);
}
);
width = 527;
},
{
anchors = (
{
name = Top;
position = "{337, 714}";
}
);
layerId = m002;
paths = (
{
closed = 1;
nodes = (
"653 714 LINE",
"445 714 LINE",
"346 477 LINE",
"344 477 LINE",
"228 714 LINE",
"20 714 LINE",
"249 245 LINE",
"234 210 LINE SMOOTH",
"218 173 OFFCURVE",
"183 154 OFFCURVE",
"132 154 CURVE SMOOTH",
"120 154 OFFCURVE",
"106 157 OFFCURVE",
"91 163 CURVE",
"91 -5 LINE",
"107 -10 OFFCURVE",
"132 -13 OFFCURVE",
"168 -13 CURVE SMOOTH",
"294 -13 OFFCURVE",
"383 61 OFFCURVE",
"449 221 CURVE SMOOTH"
);
}
);
width = 673;
}
);
leftKerningGroup = "U-cy";
leftMetricsKey = Y;
rightKerningGroup = "U-cy";
rightMetricsKey = Y;
unicode = 0423;
},
{
color = 10;
glyphname = "Ef-cy";
lastChange = "2023-08-29 19:18:16 +0000";
layers = (
{
layerId = "FD4D3FDD-DE85-408F-A52A-FF600B1C6101";
paths = (
{
closed = 1;
nodes = (
"80 500 OFFCURVE",
"174 588 OFFCURVE",
"332 596 CURVE",
"332 116 LINE",
"174 124 OFFCURVE",
"80 212 OFFCURVE",
"80 356 CURVE SMOOTH"
);
},
{
closed = 1;
nodes = (
"30 181 OFFCURVE",
"142 76 OFFCURVE",
"332 68 CURVE",
"332 -13 LINE",
"382 -13 LINE",
"382 68 LINE",
"572 76 OFFCURVE",
"683 182 OFFCURVE",
"683 356 CURVE SMOOTH",
"683 530 OFFCURVE",
"572 637 OFFCURVE",
"382 645 CURVE",
"382 726 LINE",
"332 726 LINE",
"332 645 LINE",
"142 637 OFFCURVE",
"30 531 OFFCURVE",
"30 356 CURVE SMOOTH"
);
},
{
closed = 1;
nodes = (
"382 596 LINE",
"540 588 OFFCURVE",
"633 499 OFFCURVE",
"633 356 CURVE SMOOTH",
"633 213 OFFCURVE",
"540 124 OFFCURVE",
"382 116 CURVE"
);
}
);
width = 713;
},
{
layerId = m002;
paths = (
{
closed = 1;
nodes = (
"230 405 OFFCURVE",
"252 441 OFFCURVE",
"292 461 CURVE",
"292 252 LINE",
"252 272 OFFCURVE",
"230 307 OFFCURVE",
"230 356 CURVE SMOOTH"
);
},
{
closed = 1;
nodes = (
"10 197 OFFCURVE",
"113 96 OFFCURVE",
"292 72 CURVE",
"292 -13 LINE",
"462 -13 LINE",
"462 72 LINE",
"640 96 OFFCURVE",
"743 198 OFFCURVE",
"743 356 CURVE SMOOTH",
"743 514 OFFCURVE",
"640 616 OFFCURVE",
"462 640 CURVE",
"462 726 LINE",
"292 726 LINE",
"292 641 LINE",
"113 617 OFFCURVE",
"10 515 OFFCURVE",
"10 356 CURVE SMOOTH"
);
},
{
closed = 1;
nodes = (
"462 460 LINE",
"501 440 OFFCURVE",
"523 405 OFFCURVE",
"523 356 CURVE SMOOTH",
"523 308 OFFCURVE",
"501 273 OFFCURVE",
"462 253 CURVE"
);
}
);
width = 753;
}
);
leftKerningGroup = O;
leftMetricsKey = O;
rightKerningGroup = O;
rightMetricsKey = O;
unicode = 0424;
},
